<svg width="1440" height="1729" fill="none" xmlns="http://www.w3.org/2000/svg"><g filter="url(#filter0_f)"><path d="M474.171-462.459C-291.105-192.476-333.24 564.439-192.595 899.814-15.794 1321.4 271.553 263.319 824.143 338.224c719.827 97.573 175.51-986.069-349.972-800.683z" fill="#0A1C66"/></g><g filter="url(#filter1_f)"><path d="M1433.4 734.965c-538.842-606.785-991.052-840.183-1332.501-715-429.224 157.362 1047.331 524.228 563.5 801.5-821 470.495 1169.501 364.495 769.001-86.5z" fill="#0F0C8B"/></g><g filter="url(#filter2_f)"><path d="M550.567-107.68C18.274-188.342-192.276-11.11-188.483 97.97c4.768 137.121 430.398 41.352 748.845 165.664 414.82 161.932 355.707-315.927-9.795-371.314z" fill="#6409AC"/></g><defs><filter id="filter0_f" x="-683.245" y="-911.167" width="2281.02" height="2337.89" filterUnits="userSpaceOnUse" color-interpolation-filters="sRGB"><feFlood flood-opacity="0" result="BackgroundImageFix"/><feBlend in="SourceGraphic" in2="BackgroundImageFix" result="shape"/><feGaussianBlur stdDeviation="213.662" result="effect1_foregroundBlur"/></filter><filter id="filter1_f" x="-420.323" y="-701.324" width="2374.59" height="2429.48" filterUnits="userSpaceOnUse" color-interpolation-filters="sRGB"><feFlood flood-opacity="0" result="BackgroundImageFix"/><feBlend in="SourceGraphic" in2="BackgroundImageFix" result="shape"/><feGaussianBlur stdDeviation="213.662" result="effect1_foregroundBlur"/></filter><filter id="filter2_f" x="-399.138" y="-421.857" width="1487.22" height="943.829" filterUnits="userSpaceOnUse" color-interpolation-filters="sRGB"><feFlood flood-opacity="0" result="BackgroundImageFix"/><feBlend in="SourceGraphic" in2="BackgroundImageFix" result="shape"/><feGaussianBlur stdDeviation="99.985" result="effect1_foregroundBlur"/></filter></defs></svg>