<svg width="87" height="61" fill="none" xmlns="http://www.w3.org/2000/svg"><path d="M85.368 30.077c.202 1.86-2.479 4.699-4.88 4.695-1.69 0-3.833-.787-4.124-3.94-.528-5.722 3.2-9.754 3.14-10.31-.062-.557-1.113-1.102-1.697-1.038 0 0-.043.042-.119.124-.341-1.151-1.995-1.7-2.985-1.628-1.457.11-3.338 2.31-4.196 4.005a9.202 9.202 0 00-1.832.452c.443-3.322-1.001-4.131-2.457-3.973-.917.09-1.8.407-2.566.92a1.21 1.21 0 00.011-.291c-.08-.744-2.636-1.702-2.534-.744.185 1.674-4.08 7.533-5.835 13.361-.197.13-.264.114-.495.05-.877-.24-1.686-2.877-2.56-3.776 1.416-.723 6.135-5.186 6.257-7.05.044-.675-2.342-2.232-2.652-1.277-.556 1.716-3.656 6.205-5.562 7.068.847-2.945 2.33-5.562 2.31-5.748-.039-.372-1.51-.941-2.55-.776-.418.067-1.785 3.224-2.595 5.538-2.095 3.39-8.783 11.101-9.362 11.161-.422.047-.699-.999-.699-1.964 0-5.16 5.262-10.841 7.306-11.063.556-.061 1.626.873 1.524-.068-.145-1.342-1.78-2.145-2.794-2.102-4.063.17-7.67 4.797-8.824 7.487-1.484 2.572-6.607 8.774-8.344 11.043a.174.174 0 01-.312-.126c.974-7.978 8.088-15.726 8.094-16.613 0-.787-1.52-1.354-2.913-1.204-1.699.186-13.239 16.81-16.968 20.577a.271.271 0 01-.461-.186c-.31-10.1 20.677-29.494 20.813-31.096.089-1.066-2.394-1.86-3.605-1.823C21.717 10.052.123 27.664.123 31.911c0 2.046 3.594 4.723 3.573 3.406-.078-4.65 20.366-23.644 26.854-23.337-2.297 1.445-22.637 19.45-23.505 32.377-.256 3.814 3 4.759 5.221 4.759 1.513 0 3.2-.964 9.998-11.72-.199.836-.436 2.968-.388 3.427.199 1.832 2.815 2.89 4.433 2.686.816-.1 4.265-5.43 6.967-8.929-.056 2.739 1.657 5.023 5.403 4.625 1.755-.186 6.142-6.236 7.416-8.637-.32 1.345-.964 3.004-.858 3.98.046.438 3.152 2.378 2.946.455-.119-1.098.742-3.535 1.285-5.665 1.734.546 2.071 5.845 5.027 5.525l.092-.033c-.226 1.29-.37 2.368-.237 3.575.069.632.463.818.64 1.302-19.308 2.366-44.47 14.137-49.771 15.376-1.966.456-2.077-.53-2.41-.082-.915 1.205 2.157 6.261 5.11 5.84 8.575-1.22 25.889-15.096 49.935-19.194l-.185-1.064c-.312-12.649 7.63-20.733 8.45-20.056.37.314.305 1.438-.02 3.095-3.129 2.513-5.947 5.618-5.584 9 .06.558.417 2.43 2.225 2.17 2.63-.372 4.9-6.298 5.69-10.591a4.362 4.362 0 011.346-.731c-.448 1.302-.926 2.448-.926 4.228 0 .604.027 3.925 2.73 3.925.927 0 1.8-.651 2.622-1.6.345 3.012 1.669 4.576 3.395 5.69a92.809 92.809 0 00-12.176 1.916c-1.346.147-1.36 2.604-.827 2.735 12.067-2.99 18.047-2.707 19.365-2.906.61-.091.263-.815-.312-1.715 2.552-1.187 2.967-3.162 3.152-3.925.371-1.624-1.505-2.437-1.43-1.741zm-22.893 3.259c-.152.017-.263-.372-.3-.718-.149-1.37 1.37-4.135 3.337-6.633-.983 3.502-2.344 7.275-3.037 7.351zm9.189-3.752c-.269.041-.4-.413-.42-.705-.258-4.161 3.118-8.659 4.13-8.971.694-.214.985.186 1.02.505.02.205.408.043.641.186-.402.546-1.166 1.784-1.297 2.047-1.18 2.035-3.299 6.823-4.074 6.938z" fill="#fff"/><path d="M57.279.56c.637.298 1.84 3.097 1.678 4.201-.966 6.552-18.446 5.223-21.387 11.976-.87 2-2.146-.429-1.756-1.378 2.718-6.59 19.396-8.423 20.46-14.188.124-.67.54-.826 1.005-.61zm7.668 9.705a.414.414 0 01.145-.065.653.653 0 01.44.041.569.569 0 01.213.187l.48-.44a.817.817 0 00-.182-.17 1.368 1.368 0 00-.495-.2 1.551 1.551 0 00-.74.045c-.14.045-.27.114-.387.206a.943.943 0 00-.358.752c-.003.11.017.22.058.322a.712.712 0 00.153.23c.066.065.142.12.225.16.091.047.184.087.28.12.121.039.236.095.34.169a.3.3 0 01.127.254.347.347 0 01-.04.174.347.347 0 01-.106.118.44.44 0 01-.157.066.79.79 0 01-.537-.067.657.657 0 01-.263-.227l-.524.438c.062.08.136.15.218.21.086.061.179.112.277.15a1.729 1.729 0 001.072.062 1.2 1.2 0 00.4-.187.978.978 0 00.292-.322.963.963 0 00.112-.477.773.773 0 00-.216-.561 1.198 1.198 0 00-.26-.187 2.568 2.568 0 00-.35-.155 1.04 1.04 0 01-.28-.142.248.248 0 01-.1-.208.3.3 0 01.046-.17.363.363 0 01.117-.126zm1.478-.598l-.111.626h.843l-.42 2.476h.706l.426-2.476h.825l.106-.626h-2.375zm4.511 0l-.327 1.887a1.43 1.43 0 01-.058.234.69.69 0 01-.113.21.57.57 0 01-.192.153.654.654 0 01-.295.06.636.636 0 01-.235-.04.412.412 0 01-.158-.106.43.43 0 01-.087-.155.602.602 0 01-.027-.187v-.088a.805.805 0 01.01-.092l.324-1.87h-.703l-.332 1.945c0 .043-.01.088-.014.135-.004.046 0 .09 0 .13a.972.972 0 00.082.405.833.833 0 00.238.303c.112.086.24.15.374.187.161.047.327.07.493.067.186.004.37-.026.546-.088a1.199 1.199 0 00.689-.62c.074-.158.125-.327.153-.5l.33-1.961-.698-.01zm3.273.3a1.301 1.301 0 00-.456-.227 1.821 1.821 0 00-.507-.073h-1.117l-.53 3.102h1.23c.249.002.495-.041.728-.128a1.66 1.66 0 00.968-.922c.095-.237.142-.492.137-.748a1.277 1.277 0 00-.129-.597c-.08-.16-.192-.3-.33-.408l.006.002zm-.345 1.497a1.003 1.003 0 01-.546.588 1.144 1.144 0 01-.467.09h-.455l.315-1.852h.4a.989.989 0 01.364.061.724.724 0 01.258.167.65.65 0 01.151.247c.033.096.05.197.049.3a1.23 1.23 0 01-.07.392l.001.007zm.89 1.31h.71l.531-3.1h-.71l-.532 3.1zm4.169-2.806a1.26 1.26 0 00-.459-.275 1.768 1.768 0 00-.61-.098 1.733 1.733 0 00-1.28.55 1.835 1.835 0 00-.364.601 2.07 2.07 0 00-.131.748c-.002.192.032.383.1.562a1.215 1.215 0 00.751.709c.2.066.409.099.618.095a1.703 1.703 0 001.277-.55 1.86 1.86 0 00.364-.6c.086-.236.13-.486.129-.738a1.52 1.52 0 00-.1-.56 1.228 1.228 0 00-.287-.454l-.008.01zm-.416 1.496a1.18 1.18 0 01-.197.375c-.085.11-.19.2-.313.264a.887.887 0 01-.418.099.823.823 0 01-.33-.062.698.698 0 01-.39-.414.886.886 0 01-.05-.305 1.279 1.279 0 01.269-.806c.086-.108.193-.198.314-.264a.917.917 0 01.744-.04c.09.037.172.093.24.166a.755.755 0 01.147.248c.035.098.052.2.05.304a1.424 1.424 0 01-.068.42l.002.015zm-11.675-2.63c.216-.08.413-.202.582-.361a1.64 1.64 0 00.385-.561 1.88 1.88 0 00.139-.749 1.301 1.301 0 00-.129-.598 1.19 1.19 0 00-.33-.405 1.34 1.34 0 00-.456-.23 1.887 1.887 0 00-.507-.07h-1.117l-.529 3.1h1.23c.249-.003.497-.05.73-.141l.002.015zm-.844-2.356h.395a1.05 1.05 0 01.364.06.668.668 0 01.409.415c.033.097.05.198.049.3 0 .136-.023.272-.067.4a1.012 1.012 0 01-.212.354.97.97 0 01-.334.234 1.147 1.147 0 01-.467.09h-.455l.318-1.853zm2.036 2.483h.71l.531-3.1h-.71l-.531 3.1zm2.349-2.187c.09-.108.203-.196.327-.26a.932.932 0 01.411-.097.742.742 0 01.364.086.67.67 0 01.232.213l.515-.479a1.01 1.01 0 00-.458-.342 1.72 1.72 0 00-.65-.116 1.665 1.665 0 00-.709.15 1.745 1.745 0 00-.565.41c-.163.175-.29.382-.375.609-.09.239-.134.493-.132.748-.003.193.032.384.103.562a1.229 1.229 0 00.746.694c.19.064.389.095.59.093a2.42 2.42 0 001.11-.27l.277-1.64h-1.23l-.107.6h.587l-.096.583a.753.753 0 01-.202.069 1.772 1.772 0 01-.237.024.924.924 0 01-.341-.06.723.723 0 01-.251-.166.693.693 0 01-.153-.255.935.935 0 01-.051-.316 1.31 1.31 0 01.295-.84zm1.94 2.19h.711l.53-3.103h-.71l-.53 3.102zm1.851 0h.708l.424-2.474h.825l.107-.627h-2.376l-.11.627h.842l-.42 2.473zm3.37-.62l.104.617h.747l-.571-3.1h-.702l-1.919 3.102h.81l.363-.617 1.168-.002zm-.23-1.684l.159 1.1h-.79l.632-1.1zm2.168 1.669l.424-2.466h-.711l-.53 3.1h1.89l.11-.636-1.183.002zm-12.32-4.42h1.128l.101-.598h-1.127l.114-.66h1.197l.108-.622h-1.895l-.531 3.102h.698l.207-1.221zm1.506.33a.937.937 0 00.084.402c.054.12.136.224.238.305.113.085.24.148.374.187.16.047.325.07.492.068.185.002.37-.027.545-.088a1.198 1.198 0 00.69-.629c.072-.159.124-.328.152-.501l.333-1.963h-.699l-.327 1.888c-.014.08-.035.157-.06.234a.688.688 0 01-.112.211.57.57 0 01-.488.211.632.632 0 01-.235-.039.42.42 0 01-.156-.106.419.419 0 01-.088-.156.623.623 0 01-.027-.187v-.088c0-.03.004-.062.011-.091l.322-1.871h-.702l-.33 1.944c0 .043-.012.09-.017.134-.005.045-.002.077-.002.118l.002.017zm4.763.889l.11-.637h-1.183l.425-2.465h-.71l-.532 3.1 1.89.002zm2.345-.637h-1.184l.426-2.465h-.711l-.531 3.1h1.89l.11-.635z" fill="#fff"/></svg>