<svg width="159" height="157" fill="none" xmlns="http://www.w3.org/2000/svg"><path d="M65.647 1.13c1.949-.378 3.9-.75 5.849-1.13-.09 3.832-.274 7.661-.212 11.499-1.887.37-3.776.72-5.662 1.088l-.195-1.388c-.725.939-1.59 1.837-2.764 2.18-1.357.454-3.085.726-4.265-.28-.826-.984-1.035-2.349-.947-3.598.11-2.286.104-4.578.257-6.864 1.912-.32 3.801-.786 5.727-1.026-.073 2.357-.079 4.72-.076 7.079-.017.407.082.817.328 1.144.786.45 1.683-.285 1.731-1.102.382-2.512.133-5.07.23-7.602zm9.857.744C76.86.22 79.206.01 81.2.042c1.759.147 3.696.331 5.085 1.543.648.517.854 1.343 1.064 2.103a165.288 165.288 0 01-4.582-.122c-.385-.638-1.067-1.19-1.856-.898-.588.07-.551.791-.681 1.218 1.79 1.014 4.11.904 5.665 2.357 1.134.972.953 2.777.107 3.874-.9 1.074-2.336 1.48-3.674 1.647-2.067.213-4.23.156-6.188-.601-1.293-.492-2.206-1.656-2.585-2.96 1.598-.008 3.199.01 4.794.071.328.38.591.893 1.128 1.004.716.325 1.887-.591 1.25-1.306-.39-.545-1.142-.593-1.73-.797-1.412-.396-3.089-.68-3.943-2.015-.721-1.011-.34-2.427.45-3.286zm32.683 1.243c.495-.85 1.01-1.69 1.536-2.52 1.753.692 3.589 1.18 5.311 1.938.032.927-.907 1.73-1.323 2.566-1.841-.661-3.7-1.277-5.524-1.984zM92.74 1.602c2.37-.469 4.884-.107 7.09.854 1.428.604 2.661 1.958 2.605 3.589-1.499-.24-2.999-.475-4.486-.763-.348-.667-.95-1.343-1.793-1.165-.716.043-.88 1.122-.294 1.47 1.668 1.037 3.95 1.342 5.037 3.15.732 1.103.198 2.567-.688 3.409-.964 1.006-2.446 1.164-3.764 1.176-2.084-.037-4.237-.362-6.08-1.388-1.234-.672-2.184-1.987-2.128-3.43 1.542.327 3.106.522 4.647.839.32.61.77 1.348 1.59 1.192.752.113.888-.715.944-1.263-1.69-1.22-4.132-1.413-5.3-3.298-.88-1.905.752-3.965 2.62-4.372zM46.703 3.109c1.395-.797 3.08-1.122 4.65-.713 1.793.701 2.97 3.035 2.065 4.827-.351.828-.987 1.484-1.564 2.16.857.214 1.886.211 2.505.94 1.214 1.235 1.296 3.07 2.08 4.544-1.633.944-3.296 1.834-4.939 2.759-.642-.925-1.02-1.984-1.318-3.06-.22-.623-.483-1.496-1.267-1.564-.962.074-1.76.704-2.596 1.12.447 1.859 1.18 3.636 1.606 5.502-1.714.893-3.368 1.896-5.094 2.766-1.47-4.883-3.034-9.738-4.485-14.624 2.755-1.605 5.563-3.12 8.357-4.657zm-2.228 4.937c.237 1.088.565 2.156.916 3.213 1.018-.49 2.147-.947 2.806-1.914.602-.912-.114-2.455-1.245-2.424-.91.15-1.671.72-2.477 1.125zm62.886-3.601c1.875.574 3.708 1.278 5.558 1.925-1.969 3.292-3.957 6.576-6.013 9.814-1.827-.655-3.66-1.297-5.49-1.941 1.926-3.298 3.991-6.517 5.945-9.798zm7.456 6.02c1.858-1.504 4.485-.995 6.397.121 1.884 1.085 3.864 2.377 4.814 4.409.58 1.206.017 2.563-.891 3.428-1.722 1.718-3.479 3.4-5.164 5.151-1.497-.994-3.007-1.967-4.489-2.978.294-.379.588-.76.877-1.145-2.356.416-5.057-.494-6.214-2.687-.704-2.145 1.372-4.508 3.564-4.332 2.593.045 4.737 1.743 6.881 2.998.41-.475 1.123-1.125.557-1.77-.483-.83-1.519-.545-2.302-.55-1.406-.777-2.71-1.735-4.03-2.645zm.763 6.126c-.008.86.716 1.478 1.53 1.543.77-.17 1.415-.675 1.921-1.263-.702-.404-1.392-.935-2.223-1.009-.495.06-.832.475-1.228.73zm-90.3.475c1.377-1.382 2.895-2.617 4.261-4.01 2.86 4.499 5.44 9.17 8.344 13.644-1.437 1.305-2.817 2.67-4.268 3.962-.24-.356-.48-.712-.721-1.066-.048 2.018-1.327 3.985-3.21 4.74-1.91.644-3.824-.582-4.958-2.046-1.474-1.727-2.271-4.095-1.706-6.342.71-2.196 2.537-4.112 4.882-4.473-.871-1.473-1.748-2.942-2.625-4.409zm3.139 6.726c-.874.28-.775 1.387-.643 2.102.405 1.326 1.16 2.609 2.269 3.462.896.56 1.895-.557 1.595-1.435-.328-1.218-.953-2.346-1.697-3.358-.348-.449-.897-1.031-1.524-.771zm92.906.859c3.323-1.905 6.7-3.725 9.986-5.697 1.259 1.444 2.574 2.837 3.77 4.332-.305.235-.611.472-.91.712 1.071.45 2.305.613 3.176 1.45 1.185.97 2.243 2.473 1.731 4.075-.538 1.113-1.661 1.763-2.687 2.36-1.94 1.09-3.883 2.176-5.81 3.29-1.306-1.46-2.627-2.906-3.869-4.418 2.113-1.198 4.268-2.334 6.336-3.609.588-.274.738-1.144.232-1.568-.637-.588-1.545-.17-2.204.147-1.982 1.09-3.928 2.246-5.922 3.32-1.273-1.47-2.588-2.899-3.829-4.394zM17.897 32.369c-.254-1.066.269-2.086.665-3.041 1.168 1.204 2.339 2.408 3.513 3.612-.62 1.105-1.44 2.436-.863 3.724.82 1.721 2.704 2.631 3.677 4.22a71.477 71.477 0 01-3.103 4.778c-2.797-2.611-5.385-5.44-8.196-8.037 1.04-1.515 1.883-3.188 3.077-4.58.747.573 1.383 1.276 2.138 1.842-.28-.848-.681-1.654-.908-2.518zm125.692 6.443c1.51-1.673 4.27-1.778 6.044-.458 2.63 2.024 4.154 5.28 4.468 8.54.139 1.608-.67 3.256-2.093 4.053a1591.87 1591.87 0 01-2.282-4.703c.964-.972.549-3.074-.942-3.182-.984.043-1.142 1.176-.967 1.936.396 2.17 1.086 4.513.119 6.635-1.211 2.157-4.302 2.524-6.251 1.168-2.277-1.606-3.716-4.149-4.607-6.738-.529-1.732-.815-3.778.19-5.397.35-.633.933-1.08 1.473-1.543.823 1.63 1.598 3.284 2.418 4.914-.203.283-.407.568-.608.854-.079 1.07.218 2.382 1.293 2.868.775.308 1.521-.438 1.524-1.193.011-1.356-.551-2.636-.577-3.99-.028-1.277-.136-2.75.798-3.764zM9.667 45.699c.733-1.159 1.652-2.462 3.108-2.69 1.134-.212 2.13.471 3.02 1.065 1.794 1.23 3.624 2.405 5.451 3.58-.684 1.656-1.301 3.338-2.014 4.983a84.45 84.45 0 00-1.3-.71c.506 1.507.766 3.21.093 4.711-.439 1.15-1.406 2.295-2.73 2.334-1.15-.016-2.341-.491-3.074-1.398-.653-.786-.78-1.851-.8-2.838.076-1.99.936-3.82 1.527-5.691.257-.512-.407-.72-.761-.86-.679-.225-1.137.464-1.281 1.027-.21.675.571 1.288.26 1.952-.529 1.405-1.12 2.787-1.66 4.188-.67-.638-1.462-1.314-1.559-2.3-.475-2.574.45-5.146 1.72-7.353zm5.187 4.205c-.26.89-.74 1.868-.342 2.792.311.52.961.466 1.48.551.245-.511.641-1.034.485-1.636-.163-.837-.961-1.289-1.623-1.707zm126.922 6.033c5.34.006 10.679.017 16.022 0 .444 1.877.84 3.77 1.202 5.666-1.799.029-3.6-.025-5.396.034.922 1.156 1.929 2.349 2.121 3.875.401 1.393-.136 3.165-1.604 3.674-1.62.576-3.382.33-5.071.39-1.451-.037-2.91.087-4.355-.057-.498-1.86-.79-3.767-1.242-5.638 2.715-.07 5.447.184 8.148-.172.091-.402.365-.831.119-1.23-.3-.757-1.199-.79-1.889-.856-2.294-.09-4.591.054-6.884-.068-.348-1.882-.772-3.747-1.171-5.618zm6.301 16.529c2.291-.474 4.862.187 6.449 1.959 1.422 1.636 1.872 3.877 1.869 5.991-.068 1.998-.679 4.095-2.093 5.562-2.65 2.28-7.285 1.099-8.841-1.94-1.134-2.034-1.069-4.456-.877-6.702.238-2.052 1.313-4.335 3.493-4.87zm-.599 5.85c-.447.52-.227 1.34.328 1.687 1.332.958 3.012 1.377 4.635 1.427.826.122 1.544-.935.942-1.596-.928-1.088-2.407-1.464-3.762-1.693-.704-.096-1.518-.263-2.143.175zM12.8 80.851c.479-.18.976-.302 1.471-.424.371 1.863.8 3.716 1.265 5.559-.744.254-1.494.503-2.24.757.399 1.733.667 3.51 1.247 5.197.772.283 1.59.407 2.396.557.57 1.953.913 3.96 1.425 5.926-5.52-1.58-11.07-3.058-16.582-4.671C1.219 91.104.566 88.472 0 85.825c4.27-1.645 8.536-3.306 12.8-4.974zm-8.306 8.63l.246.637c1.955.206 3.89.585 5.82.94a38.358 38.358 0 00-.723-3.193c-1.77.566-3.57 1.046-5.343 1.617zm139.57-.872c3.679.813 7.319 1.785 10.982 2.667-.52 1.868-1.148 3.708-1.816 5.525-2.35-.938-4.68-1.927-7.062-2.775.091.362.099.794.472 1 1.912 1.475 3.85 2.922 5.77 4.392-.523 1.602-1.08 3.196-1.558 4.813-2.362-.642-4.579-1.707-6.89-2.49a27.92 27.92 0 00-.229.458c1.96 1.642 4.234 2.893 6.177 4.569-.43 1.84-1.151 3.601-1.728 5.398-2.707-2.671-5.337-5.418-8.038-8.094-.294-.308-.614-.599-.826-.966.546-2.026 1.304-3.996 1.94-5.997 1.895.661 3.725 1.49 5.578 2.255.198-.834-.606-1.21-1.14-1.653-1.247-.96-2.435-1.995-3.649-2.996.662-2.04 1.341-4.072 2.017-6.106zM14.116 105.352c2.308-.641 4.633-1.232 6.935-1.904.905 1.729 1.787 3.476 2.684 5.214-2.31.644-4.644 1.206-6.935 1.91-.563.147-1.295.783-.798 1.379.393.887 1.505.661 2.269.529 2.175-.563 4.333-1.196 6.51-1.753a503.552 503.552 0 012.656 5.197c-3.73.975-7.435 2.058-11.174 3.004-.815-1.721-1.79-3.362-2.523-5.12l.865-.204c-.003-.116-.005-.35-.008-.466a5.936 5.936 0 01-3.505-3.849c-.107-.808-.197-1.761.36-2.433.645-.842 1.68-1.224 2.664-1.504zm116.649 10.912c1.352-1.408 2.577-2.937 4.005-4.268 2.947 4.18 5.92 8.34 8.858 12.525-1.903 2.04-3.784 4.098-5.684 6.138-1.171 1.232-2.685 2.34-4.441 2.43-3.02.198-5.622-3.176-4.616-6.044.724-2.787 3.154-4.522 4.811-6.718-.987-1.348-1.96-2.707-2.933-4.063zm3.12 8.921c-.682 1.128.201 2.88 1.558 2.846.99-.223 1.57-1.162 2.254-1.829-.602-1.076-1.346-2.062-2.087-3.043-.588.661-1.258 1.266-1.725 2.026zm-108.541-6.347c2.062-.684 4.347-.048 6.044 1.224 2.164 1.531 4.146 3.727 4.525 6.44.029 1.893-1.385 3.501-2.932 4.431-1.8 1.148-4.158 1.193-6.073.308-2.067-.983-3.795-2.639-4.915-4.629-.77-1.416-1.146-3.258-.303-4.725.755-1.449 2.124-2.515 3.654-3.049zm3.267 4.804c-1.16.577-2.356 1.269-3.094 2.366-.345.771.432 1.271 1.035 1.517a9.652 9.652 0 004.94-2.981c-.11-.379-.01-.896-.392-1.136-.778-.475-1.728-.085-2.49.234zm89.585 4.225c1.499-1.272 3.154-2.34 4.681-3.575 1.692 3.451 3.174 6.994 4.882 10.436-1.468 1.128-2.964 2.213-4.446 3.315-.492-.842-.928-1.712-1.392-2.568.079 1.814.108 4.247-1.801 5.151-.625-1.486-1.448-2.919-1.864-4.476.97-.913 2.279-1.893 1.98-3.42-.334-1.732-1.381-3.241-2.04-4.863zm-86.191 8.091c2.752-2.671 5.458-5.384 8.193-8.071 1.635 1.04 3.239 2.131 4.865 3.187-2.656 2.77-5.464 5.387-8.154 8.12a294.854 294.854 0 01-4.904-3.236zm14.823-4.095c1.46.294 2.822.947 4.087 1.718.732.472 1.485 1.097 1.626 2.009.045.882-.416 1.699-.95 2.366-1.019 1.274-2.088 2.509-3.055 3.826.495.266.99.529 1.49.794-.63.8-1.26 1.6-1.911 2.382-.498-.248-.993-.497-1.488-.746-.684.803-1.363 1.611-2.028 2.431-1.785-.806-3.518-1.718-5.277-2.58.642-.797 1.292-1.591 1.951-2.374a53.193 53.193 0 00-1.584-.961 57.425 57.425 0 001.807-2.32c.572.246 1.135.531 1.748.667.82-.851 1.508-1.814 2.28-2.707.291-.393.73-.797.591-1.34-.286-.367-.645-.667-.981-.981.577-.72 1.14-1.447 1.694-2.184zm62.804 1.382c1.383-.243 2.987-.353 4.186.523 1.454 1.009 2.102 2.795 2.373 4.473.235 2.47-1.213 4.813-3.213 6.166-2.186 1.518-5.017 2.637-7.667 1.738-3.171-1.319-4.149-5.804-2.274-8.551 1.544-2.218 4.047-3.597 6.595-4.349zm-1.493 3.546c-.458.388-.43 1.032-.455 1.577.005 1.484.359 3.002 1.145 4.27.371.766 1.66.529 1.768-.313.353-1.699-.113-3.49-.888-5.011-.246-.579-1.044-1.099-1.57-.523zm-79.308 2.306a97.766 97.766 0 012.062-2.088c1.683 1.012 3.281 2.156 4.944 3.199-.699.701-1.326 1.492-2.138 2.071-1.663-.994-3.244-2.127-4.868-3.182zm24.839.662c.936-1.165 2.206-2.165 3.733-2.346 2.438-.254 4.91.455 7.04 1.611 1.368.791 2.471 2.241 2.35 3.891-.068 2.634-1.912 5.166-4.398 6.048-2.583.794-5.368.124-7.719-1.06-1.202-.638-2.412-1.622-2.672-3.032-.184-.707-.023-1.433.065-2.137 1.671.512 3.334 1.052 5.008 1.569-.096.466-.24.932-.217 1.419.215.299.512.534.831.717 1.672-.392 2.455-2.119 3.145-3.518.272-.78.866-1.766.244-2.526-.928-.701-1.805.384-2.436.966-1.651-.557-3.326-1.04-4.975-1.602zm38.266 1.466c.959-1.396 2.469-2.436 4.208-2.458 1.341-.178 2.636.596 3.29 1.746 1.25 2.103 1.287 4.821.285 7.034-1.221 2.86-4.935 4.358-7.789 3.1.003 1.721.017 3.442-.05 5.163-1.96.393-3.92.78-5.875 1.19 0-5.299.306-10.603.13-15.899 1.9-.526 3.855-.817 5.784-1.224l.017 1.348zm.902 1.182c-.71.35-.854 1.212-.953 1.919-.141 1.181-.235 2.421.141 3.572.244.813 1.471.712 1.859.073.828-1.232.678-2.809.588-4.216.003-.809-.755-1.851-1.635-1.348zm-22.527-1.99c1.92 0 3.84.088 5.761.198l-.025 1.39c1.618-1.452 4.022-1.774 6.04-1.059 1.412.508 1.811 2.306 1.455 3.62-.713 2.554-1.386 5.12-2.124 7.669a388.724 388.724 0 00-5.9-.35c.614-2.278 1.27-4.544 1.86-6.828.216-.585.08-1.543-.703-1.554-.897-.09-1.316.851-1.55 1.554-.66 2.21-1.208 4.454-1.853 6.67-1.971-.074-3.94-.212-5.905-.334 1.001-3.651 2.107-7.279 2.944-10.976zM3.736 64.947c1.18.147 2.353.341 3.536.46 1.052.226 2.751.486 3.829.563-.11-.334-.178-.735-.588-.814-2.198-.907-4.395-1.823-6.553-2.824.195-1.884.328-3.778.642-5.649 3.532 2.354 7.141 4.593 10.645 6.986-.3 2.075-.452 4.169-.678 6.251a99.906 99.906 0 01-5.912-1.026c.051.314-.059.73.345.84 1.754.918 3.57 1.715 5.261 2.752-.19 2.125-.36 4.256-.673 6.367-3.77-.138-7.552-.11-11.31-.359.164-1.89.367-3.78.622-5.663 2.483.32 4.946.783 7.416 1.19-.051-.41-.17-.823-.611-.947-2.192-1.031-4.407-2.018-6.59-3.072.28-1.676.31-3.382.62-5.055z" opacity=".6" fill="#00F0FF"/></svg>