<svg width="401" height="300" fill="none" xmlns="http://www.w3.org/2000/svg"><path d="M127.957-30.646l33.213-5.594-10.389-28.967-1.298-43.502 33.862-7.142 36.259 1.149 37.459 10.488-5.894-56.237-2.897-27.919 30.966-8.84 45.299 57.086 3.247 4.146 22.624-21.726 27.869 5.993 26.67-66.276 28.518 50.045 7.392-3.696 10.139-5.045 13.685-6.942 1.798 3.496 12.286 24.673 6.593 12.935 13.035-7.142 21.875-11.687 2.098 8.191 5.144 19.129 3.447 13.335 11.287-5.444 20.527-10.339 14.134-6.792 2.048 8.79 6.143 24.722 1.948 8.491 16.981 5.644 6.393 2.097 15.482-2.497 32.714-5.793 1.199 40.554-2.598 38.008 53.491-5.594 3.546-.4 14.334 23.474 1.498 2.448 38.207 13.434 3.746 1.349-7.841 32.464-1.299 5.494-36.809 34.71-5.294 5.095-2.047 30.416 2.797 1.748 34.911 21.426-15.633 28.968-35.161 24.822 6.943 26.271-31.216 8.091-20.277 5.494 8.591 9.439 19.228 21.076 2.747 2.997 4.295 23.574 1.049 5.993-2.297 28.518-37.259 8.091-17.98 16.182.3 23.873.1 10.838-22.925 2.747-9.189 1.149 5.494 47.097-17.88 23.574-22.775 17.98-38.956-20.827-2.498-1.298-20.876 10.688-2.248 1.198-28.868.2-1.648 3.247-15.233 31.414-22.574 15.933-2.198 1.548-20.178-16.881-13.484-11.437-21.676 13.285-23.024 6.792-11.038 3.496-27.32-9.289-8.44-10.639-12.636-16.231-17.78 12.735-25.871 18.979.499-4.495 6.793-55.238-20.078-8.041-14.584-5.544-18.579-6.942-3.796-4.545-18.529 9.24-49.495 24.672 7.991-44.8 1.349-8.041-36.459 4.245-18.63 1.998 9.19-26.67 7.941-23.774-18.08-23.224 2.298-28.318.55-8.141-36.96-13.834-7.341-7.242-17.83-17.731 1.748-1.997 27.519-30.566 4.745-5.394-7.692-26.221-1.448-4.994 21.476-23.574 1.248-1.348-10.438-28.269 1.798-12.186 2.198-15.683-6.793-12.685-7.042-13.336-3.995-7.641 1.498-16.132 1.448-14.784 10.738-12.685L79.561 26.99l2.098-1.299 20.577-12.885 13.934-8.141 3.047-9.04 8.74-26.27z" stroke="#00EDFF" stroke-opacity=".12" stroke-width="3.346" stroke-miterlimit="10"/><path d="M153.328-14.564l30.017-5.094-9.29-26.171-1.049-39.256 30.616-6.493 32.763.95 33.863 9.439-5.145-50.644-2.547-25.222 27.969-8.041 40.954 51.193 2.897 3.746 20.527-19.578 25.172 5.394 24.273-59.634 26.42 45.699 6.793-3.246 9.239-4.395 12.586-6.193 1.648 3.146 11.438 22.475 6.193 11.587 11.986-6.493 19.878-10.138 1.948 7.441 4.944 17.081 3.197 12.237 10.288-4.695 18.779-9.489 12.786-5.844 1.898 8.091 5.943 22.075 1.748 7.792 15.283 5.394 5.844 1.948 14.134-2.048 29.916-5.444 1.099 36.909-2.347 34.561 48.695-5.094 3.197-.3 13.035 21.326 1.349 2.198 34.811 12.236 3.346 1.249-7.142 29.617-1.199 4.944-33.512 31.615-4.795 4.645-1.898 27.719 2.498 1.648 31.814 19.528-14.234 26.32-31.964 22.625 6.293 23.923-28.419 7.392-18.229 5.194 7.791 8.641 17.331 19.278 2.497 2.747 3.796 21.476.899 5.394-2.398 25.771-33.812 7.542-16.232 14.833.35 21.726-.05 9.839-20.877 2.497-8.291 1.149 4.945 42.902-16.332 21.476-20.777 16.432-35.66-18.929-2.247-1.149-19.079 9.789-2.048 1.049-26.37.1-1.548 2.897-13.985 28.667-20.527 14.634-1.998 1.349-18.529-15.083-12.336-10.489-19.828 11.787-20.927 5.744-10.038 3.346-24.872-7.991-7.692-9.39-11.637-14.733-16.232 11.187-23.773 17.331.349-3.996 6.144-50.643-18.08-7.592-13.385-5.044-16.981-6.093-3.496-4.096-16.981 8.491-45.45 22.475 7.292-40.904 1.099-7.242-33.263 3.795-16.731 1.599 8.341-24.373 6.992-21.626-16.182-21.326 2.197-25.771.4-7.342-33.762-12.586-6.743-6.543-16.232-16.182 1.549-1.848 25.022-27.968 4.295-4.895-6.843-23.973-1.348-4.545 19.378-21.626 1.099-1.198-9.59-25.822 1.699-11.287 1.798-14.534-6.043-11.737L89.6 96.312l-3.447-7.092 1.599-14.833 1.598-13.535 9.639-11.837 9.439-10.738 1.948-1.199 18.58-12.236 12.935-7.292 2.997-8.09 8.44-24.024z" stroke="#00EDFF" stroke-opacity=".24" stroke-width="3.996" stroke-miterlimit="10"/><path d="M178.751 1.518l26.77-4.645-8.141-23.324-.799-35.011 27.269-5.894 29.267.85 30.267 8.34-4.345-45.099-2.198-22.425 24.972-7.292 36.609 45.3 2.597 3.346 18.38-17.431 22.475 4.795 21.875-52.991 24.323 41.304 6.193-2.747 8.291-3.696 11.487-5.544 1.548 2.797 10.588 20.327 5.794 10.239 10.888-5.894 17.93-8.59 1.798 6.792 4.744 14.984 2.947 11.137 9.24-3.995 17.081-8.64 11.487-4.845 1.698 7.341 5.694 19.429 1.598 7.142 13.585 5.144 5.294 1.798 12.785-1.598 27.12-5.144.999 33.263-2.148 31.165 43.901-4.595 2.847-.25 11.787 19.279 1.199 1.947 31.365 11.038 2.996 1.149-6.393 26.67-1.148 4.445-30.266 28.518-4.296 4.245-1.698 24.972 2.198 1.499 28.718 17.63-12.836 23.723-28.818 20.378 5.694 21.576-25.622 6.742-16.131 4.895 6.942 7.841 15.482 17.48 2.148 2.498 3.396 19.328.749 4.844-2.497 23.025-30.416 6.992-14.434 13.485.35 19.578-.2 8.79-18.779 2.348-7.392 1.098 4.395 38.707-14.833 19.378-18.779 14.884-32.364-16.981-2.047-.999-17.231 8.84-1.898.899-23.873-.05-1.399 2.597-12.736 25.871-18.529 13.385-1.798 1.199-16.831-13.385-11.188-9.489-17.93 10.238-18.878 4.795-9.04 3.146-22.425-6.692-6.943-8.141-10.688-13.235-14.683 9.639-21.626 15.682.25-3.546 5.444-45.948-16.032-7.142-12.187-4.545-15.383-5.344-3.196-3.546-15.483 7.641-41.354 20.277 6.543-37.008.849-6.443-30.066 3.396-14.834 1.149 7.542-22.026 5.993-19.478-14.234-19.328 2.098-23.374.249-6.543-30.565-11.287-6.193-5.844-14.684-14.683 1.348-1.648 22.625-25.322 3.796-4.495-6.043-21.676-1.149-4.095 17.231-19.728.999-1.049-8.791-23.324 1.549-10.388 1.448-13.385-5.294-10.838-5.144-11.288-2.897-6.492 1.698-13.585 1.798-12.336 8.441-10.988 8.69-9.84 1.798-1.148 16.581-11.537 11.937-6.443 2.947-7.192 8.191-21.725z" stroke="#00EDFF" stroke-opacity=".36" stroke-width="4.695" stroke-miterlimit="10"/><path d="M204.122 17.6l23.524-4.145-6.992-20.527-.55-30.816 24.023-5.194 25.772.65 26.62 7.291-3.546-39.506-1.848-19.728 21.975-6.443 32.264 39.406 2.298 2.847 16.182-15.183 19.877 4.196 19.429-46.399 22.275 36.959 5.544-2.297 7.391-3.047 10.389-4.795 1.398 2.448 9.739 18.13 5.344 8.89 9.889-5.245 15.932-7.042 1.698 6.093 4.495 12.936 2.697 9.989 8.191-3.247 15.433-7.79 10.089-3.897 1.548 6.643 5.494 16.781 1.398 6.443 11.887 4.845 4.745 1.698 11.387-1.199 24.373-4.745.899 29.617-1.898 27.72 39.106-4.046 2.497-.25 10.489 17.18 1.048 1.699 27.969 9.839 2.597 1.049L671.5 79.23l-1.049 3.896-26.97 25.421-3.796 3.796-1.548 22.325 1.948 1.299 25.571 15.732-11.437 21.177-25.671 18.129 5.044 19.229-22.824 6.093-13.985 4.545 6.093 6.992 13.585 15.683 1.898 2.247 2.947 17.281.549 4.245-2.547 20.277-27.07 6.443-12.536 12.137.25 17.48-.3 7.691-16.731 2.148-6.493 1.099 3.846 34.561-13.285 17.281-16.831 13.235-29.018-15.033-1.798-.849-15.483 7.891-1.648.799-21.376-.15-1.248 2.248-11.538 23.124-16.481 12.036-1.598 1.099-15.233-11.637-10.039-8.49-16.032 8.64-16.781 3.846-8.041 2.897-19.928-5.344-6.293-6.943-9.689-11.637-13.136 8.041-19.528 14.035.15-3.047 4.845-41.354-14.035-6.642-10.987-4.046-13.835-4.545-2.897-3.096-13.934 6.892-37.308 18.03 5.843-33.113.599-5.644-26.87 2.997-12.885.749 6.642-19.728 5.045-17.331-12.287-17.38 1.948-20.877.1-5.743-27.369-10.039-5.544-5.194-13.185-13.136 1.148-1.448 20.228-22.725 3.346-3.995-5.244-19.429-.999-3.645 15.083-17.781.899-.949-7.991-20.826 1.448-9.49 1.049-12.186-4.595-9.989-4.145-10.288-2.397-5.894 1.848-12.286 1.947-11.088 7.342-10.188 7.941-8.94 1.599-1.05 14.583-10.887 10.938-5.594 2.897-6.243 7.891-19.478z" stroke="#00EDFF" stroke-opacity=".48" stroke-width="5.344" stroke-miterlimit="10"/><path d="M229.543 33.682l20.278-3.696-5.844-17.68-.299-26.57 20.677-4.595 22.325.55 22.974 6.193-2.747-33.913-1.448-17.03 18.928-5.644 27.919 33.512 1.948 2.448 14.084-13.036 17.181 3.596 17.031-39.756 20.228 32.614 4.844-1.898 6.543-2.347 9.239-4.096 1.349 2.098 8.89 15.982 4.895 7.492 8.79-4.545 13.984-5.494 1.548 5.394 4.296 10.838 2.497 8.89 7.142-2.497 13.685-6.943 8.74-2.946 1.398 5.893 5.294 14.184 1.199 5.744L537.3 1.019l4.145 1.548 10.089-.75 21.576-4.444.799 25.97-1.698 24.324 34.361-3.546 2.148-.2 9.189 15.083.899 1.498 24.573 8.64 2.198.95-4.995 20.876-.949 3.397-23.723 22.325-3.247 3.346-1.398 19.628 1.648 1.199 22.475 13.784-10.039 18.579-22.475 15.933 4.395 16.831-20.027 5.444-11.937 4.245 5.294 6.193 11.737 13.884 1.598 1.998 2.498 15.183.399 3.646-2.697 17.481-23.624 5.943-10.738 10.788.25 15.333-.449 6.692-14.684 1.948-5.544 1.049 3.297 30.366-11.737 15.183-14.884 11.687-25.721-13.085-1.548-.75-13.685 6.993-1.448.649-18.879-.25-1.149 1.898-10.288 20.377-14.434 10.738-1.449.949-13.535-9.939-8.89-7.491-14.134 7.142-14.733 2.847-7.042 2.697-17.481-4.096-5.544-5.644-8.74-10.138-11.537 6.493-17.431 12.336.05-2.547 4.146-36.659-12.037-6.243-9.739-3.497-12.236-3.745-2.647-2.597-12.386 6.043-33.213 15.832 5.094-29.217.399-4.795-23.773 2.547-10.938.3 5.844-17.381 4.045-15.233-10.388-15.382 1.848-18.38-.05-4.994-24.173-8.741-4.945-4.495-11.587-11.587.949-1.298 17.73-20.078 2.897-3.546-4.395-17.181-.849-3.196 12.986-15.832.699-.799-7.142-18.38 1.348-8.59.699-11.038-3.895-9.09-3.247-9.239-1.798-5.344 1.998-10.988 2.098-9.89 6.143-9.289 7.192-8.09 1.448-1 12.586-10.188 9.939-4.745 2.847-5.294 7.641-17.23z" stroke="#00EDFF" stroke-opacity=".6" stroke-width="5.993" stroke-miterlimit="10"/><path d="M254.915 49.765l17.081-3.197-4.745-14.883-.05-22.325 17.431-3.996 18.829.45 19.328 5.094-1.948-28.318-1.099-14.284 15.933-4.895 23.573 27.62 1.648 2.097 11.937-10.888 14.484 2.997 14.634-33.163 18.129 28.218 4.246-1.398 5.593-1.698 8.191-3.347 1.199 1.748 8.041 13.785 4.495 6.143 7.741-3.895 11.987-3.996 1.398 4.745 4.096 8.79 2.247 7.741 6.093-1.748 11.987-6.093 7.442-1.998 1.198 5.144 5.095 11.588.949 5.044 8.54 4.345 3.596 1.448 8.74-.35 18.779-4.095.699 22.325-1.448 20.877 29.567-3.047 1.798-.1 7.891 12.986.749 1.199 21.177 7.491 1.798.8-4.295 18.029-.85 2.897-20.477 19.179-2.697 2.896-1.198 16.932 1.348 1.048 19.329 11.937-8.641 15.932-19.328 13.735 3.796 14.484-17.231 4.744-9.839 3.946 4.445 5.394 9.839 12.086 1.348 1.748 2.048 13.086.2 3.046-2.747 14.734-20.227 5.394-8.94 9.439.199 13.186-.549 5.643-12.636 1.748-4.595 1.049 2.697 26.171-10.188 13.135-12.886 10.039-22.375-11.138-1.398-.599-11.837 6.093-1.249.55-16.382-.4-1.048 1.598-9.04 17.531-12.436 9.489-1.199.749-11.887-8.141-7.741-6.492-12.236 5.544-12.686 1.897-6.093 2.498-14.984-2.797-4.844-4.395-7.692-8.641-10.038 4.945-15.283 10.688-.1-2.048 3.496-32.014-9.989-5.794-8.54-3.046-10.689-2.897-2.347-2.098-10.838 5.245-29.167 13.584 4.395-25.271.15-4.046-20.577 2.148-9.04-.1 5.044-15.083 3.047-13.086-8.441-13.435 1.698-15.932-.15-4.145-21.026-7.492-4.295-3.796-10.089-10.038.749-1.149 15.333-17.431 2.447-3.146-3.596-14.884-.749-2.796 10.888-13.835.599-.699-6.343-15.882 1.199-7.692.35-9.889-3.147-8.191-2.297-8.19-1.249-4.745 2.098-9.689 2.297-8.69 4.995-8.491 6.442-7.242 1.249-.85 10.638-9.538 8.89-3.846 2.797-4.395 7.342-14.983z" stroke="#00EDFF" stroke-opacity=".72" stroke-width="6.643" stroke-miterlimit="10"/><path d="M280.336 65.845l13.835-2.747-3.646-12.036.25-18.08 14.084-3.346 15.333.25 15.732 4.095-1.148-22.775-.75-11.587 12.936-4.045L366.19 17.25l1.299 1.698 9.789-8.74 11.837 2.397 12.186-26.52 16.082 23.873 3.646-.95 4.695-1.048 7.042-2.597 1.099 1.398 7.192 11.587 4.095 4.795 6.643-3.246 10.039-2.448 1.248 4.046 3.896 6.692 1.998 6.643 5.094-.999 10.238-5.294 6.094-.999 1.048 4.445 4.895 8.94.749 4.345 6.842 4.046 3.047 1.348 7.342.1 16.032-3.746.549 18.63-1.198 17.48 24.772-2.497 1.448-.1 6.643 10.888.649.999 17.73 6.243 1.399.749-3.596 15.083-.749 2.397-17.181 16.032-2.198 2.498-1.048 14.234 1.048.899 16.232 10.038-7.242 13.336-16.182 11.537 3.197 12.086-14.484 4.096-7.741 3.646 3.646 4.594 7.941 10.289 1.098 1.448 1.549 10.988.05 2.497-2.847 11.987-16.831 4.844-7.092 8.041.199 11.138-.699 4.595-10.588 1.548-3.696.999 2.148 21.975-8.641 11.038-10.937 8.491-19.029-9.24-1.149-.4-10.039 5.095-1.048.449-13.885-.499-.949 1.248-7.791 14.784-10.389 8.141-1.048.649-10.239-6.443-6.593-5.494-10.338 4.046-10.588.849-5.094 2.347-12.487-1.498-4.145-3.197-6.742-7.092-8.491 3.397-13.185 9.039-.2-1.598 2.847-27.369-7.941-5.344-7.342-2.497-9.09-2.098-2.098-1.648-9.339 4.445-25.022 11.387 3.596-21.376-.05-3.196-17.381 1.698-7.142-.5 4.246-12.785 2.047-10.938-6.542-11.487 1.598-13.435-.3-3.347-17.78-6.243-3.746-3.096-8.49-8.541.499-.949 12.886-14.833 1.997-2.647-2.796-12.636-.55-2.347 8.74-11.937.45-.549-5.494-13.385 1.099-6.793-.05-8.74-2.397-7.242-1.349-7.192-.699-4.195 2.197-8.391 2.448-7.491 3.845-7.592 5.694-6.393 1.099-.799 8.64-8.84 7.891-2.997 2.747-3.446 7.092-12.736z" stroke="#00EDFF" stroke-opacity=".84" stroke-width="7.342" stroke-miterlimit="10"/><path d="M305.709 81.928l10.638-2.298-2.498-9.24.45-13.784 10.838-2.747 11.837.15 12.086 2.996-.349-17.18-.35-8.89 9.889-3.247 14.883 15.832.999 1.2 7.642-6.494 9.139 1.798 9.839-19.927 13.985 19.478 2.996-.45 3.796-.4 5.943-1.897.999 1.099 6.293 9.39 3.646 3.445 5.644-2.597 8.041-.899 1.099 3.347 3.696 4.594 1.748 5.544 4.045-.25 8.591-4.444 4.694-.05.899 3.695 4.645 6.343.599 3.646 5.095 3.796 2.547 1.199 5.993.55 13.285-3.447.4 15.033-.949 14.084 19.978-2.047 1.098-.05 5.344 8.79.5.749 14.284 5.094 1.099.6-2.947 12.236-.649 1.848-13.935 12.935-1.648 2.098-.899 11.487.799.799 13.086 8.091-5.844 10.788-12.985 9.24 2.497 9.789-11.637 3.396-5.694 3.346 2.847 3.796 6.093 8.491.799 1.198 1.099 8.891-.1 1.897-2.946 9.24-13.435 4.295-5.295 6.693.15 8.99-.799 3.546-8.54 1.348-2.747 1.049 1.598 17.73-7.142 8.94-8.94 6.893-15.732-7.242-.899-.3-8.291 4.195-.799.3-11.388-.599-.849.899-6.542 11.986-8.341 6.893-.849.499-8.59-4.695-5.444-4.545-8.441 2.497-8.54-.099-4.096 2.097-10.039-.2-3.396-1.897-5.793-5.594-6.893 1.898-11.087 7.342-.3-1.099 2.148-22.725-5.944-4.894-6.093-1.998-7.541-1.349-1.748-1.098-7.792 3.646-21.026 9.139 2.946-17.48-.349-2.397-14.184 1.248-5.244-.899 3.396-10.438 1.099-8.79-4.595-9.54 1.498-10.937-.499-2.598-14.584-4.944-3.147-2.397-6.942-7.042.35-.75 10.438-12.186 1.498-2.248L269 184.413l-.45-1.898 6.643-9.989.349-.399-4.694-10.938.948-5.893-.349-7.542-1.698-6.393-.4-6.193-.15-3.546 2.298-7.142 2.647-6.243 2.647-6.792 4.944-5.494.949-.749 6.643-8.141 6.892-2.148 2.647-2.547 6.843-10.438z" stroke="#00EDFF" stroke-opacity=".96" stroke-width="7.991" stroke-miterlimit="10"/><path d="M331.13 98.01l7.391-1.798-1.398-6.443.749-9.54 7.542-2.097h8.291l8.49 1.898.45-11.587V62.3l6.892-2.497 10.538 9.938.699.8 5.494-4.346 6.443 1.199 7.392-13.285 11.936 15.133 2.398-.05 2.846.3 4.845-1.199.899.75 5.444 7.241 3.246 2.098 4.595-1.948 5.993.6.999 2.646 3.496 2.597 1.499 4.395 3.046.45 6.843-3.546 3.396.949.699 2.947 4.445 3.696.4 2.946 3.396 3.546 1.998 1.049 4.645.949 10.488-3.047.299 11.338-.699 10.688 15.183-1.549h.749l4.046 6.693.35.499 10.887 3.896.7.549-2.248 9.29-.549 1.349-10.638 9.839-1.149 1.648-.749 8.79.549.649 9.889 6.243-4.395 8.141-9.839 7.042 1.898 7.392-8.84 2.747-3.596 3.047 1.998 2.996 4.195 6.693.549.899.649 6.842-.249 1.349-3.097 6.442-9.989 3.746-3.496 5.344.15 6.843-.949 2.497-6.443 1.198-1.848.999.999 13.585-5.543 6.793-6.993 5.344L447 261.128l-.699-.15-6.443 3.296-.599.15-8.89-.699-.749.549-5.294 9.24-6.343 5.593-.6.3-6.942-2.947-4.295-3.546-6.543.999-6.493-1.099-3.096 1.898-7.592 1.099-2.697-.699-4.794-4.046-5.344.35-8.94 5.694-.45-.65 1.549-18.079-3.946-4.445-4.895-1.449-5.943-.549-1.498-.6-6.293 2.797-16.881 6.943 2.147-13.585-.549-1.598-11.038.849-3.246-1.299 2.547-8.141.1-6.642-2.697-7.592 1.398-8.49-.649-1.748-11.387-3.696-2.497-1.698-5.444-5.494.149-.6 8.041-9.539 1.049-1.798-1.198-8.091-.25-1.448 4.495-8.041.2-.3-3.846-8.441.849-4.994-.749-6.393-.949-5.494.499-5.144.4-2.997 2.447-5.843 2.797-5.044 1.548-5.944 4.196-4.595.799-.649 4.595-7.492 5.893-1.298 2.597-1.598 6.593-8.191z" stroke="#00EDFF" stroke-width="8.64" stroke-miterlimit="10"/><path d="M356.502 114.093l4.145-1.349-.25-3.596.999-5.344 4.246-1.448 4.844-.15 4.895.849 1.198-5.993.35-3.446 3.896-1.698 6.193 4.045.349.45 3.346-2.198 3.796.55 4.995-6.643 9.889 10.738 1.748.45 1.947.998 3.746-.5.749.4 4.595 5.045 2.847.749 3.496-1.349 4.046 2.198.849 1.948 3.296.499 1.249 3.296 1.997 1.199 5.145-2.747 2.047 1.948.5 2.198 4.295 1.098.2 2.248 1.698 3.296 1.448.949 3.247 1.349 7.741-2.697.2 7.691-.5 7.242 10.389-1.049.449.1 2.747 4.595.2.25 7.492 2.697.299.399-1.548 6.443-.45.799-7.391 6.742-.6 1.199-.599 6.093.25.5 6.792 4.345-2.946 5.544-6.743 4.844 1.299 5.045-6.044 2.047-1.498 2.747 1.149 2.198 2.347 4.894.25.65.2 4.744-.45.749-3.146 3.696-6.593 3.197-1.698 3.995.1 4.745-1.049 1.448-4.395.999-.949.949.499 9.39-4.045 4.744-4.995 3.696-9.089-3.346h-.5l-4.645 2.297-.399.1-6.393-.849-.649.2-3.996 6.443-4.345 4.295-.449.2-5.245-1.199-3.196-2.547-4.645-.599-4.395-2.048-2.098 1.698-5.094 2.397-1.998.55-3.795-2.547-3.846-1.199-6.793 4.045-.599-.149.899-13.435-1.898-3.996-3.696-.999-4.395.3-1.198-.15-4.745 2.048-12.836 4.695 1.449-9.64-.75-.799-7.891.4-1.348-1.698 1.748-5.844-.899-4.495-.749-5.643 1.248-5.994-.749-.999-8.191-2.397-1.948-.999-3.845-3.945-.05-.45 5.594-6.892.549-1.399-.35-5.743-.1-1.049 2.348-6.093.1-.15-3.047-5.993.699-4.096-1.098-5.244-.2-4.595 1.448-4.095.949-2.448 2.547-4.544 2.997-3.846.35-5.045 3.446-3.745.649-.6 2.597-6.792 4.945-.45 2.497-.649 6.293-5.943z" stroke="#00EDFF" stroke-width="9.34" stroke-miterlimit="10"/><path d="M420.78 132.921l2.747 4.994 3.097-1.548 1.997 4.095 3.447-1.898.998 4.395 4.096-1.548v4.545l2.797 2.647 4.944-2.397.1 4.045-.25 3.846 5.594-.5 1.548 2.598 4.146 1.498-.949 3.846-4.495 3.945-.55 4.545 3.696 2.397-1.548 2.947-3.596 2.647.699 2.647-3.296 1.399.949 3.845.449 3.097-.249 2.996-3.846 1.149-3.246 2.647.249 5.244-3.546 1.199-.1 6.143-2.497 2.647-3.046 2.148-5.744-1.449-3.097 1.549-4.594-1.149-5.095 6.693-3.895.549-4.745-3.646-2.347-3.097-5.045 7.043-2.797-1.049-2.247-2.747-5.394 2.697.3-12.286-2.448-.5-6.942 2.647-8.74 2.547.699-5.793h-5.694l1.449-5.644-1.848-2.347 2.297-7.192-7.242-1.698-2.547-2.647 3.147-4.296.599-4.445.25-4.694-2.248-3.546.6-3.197-1.499-4.095.55-3.646 2.397-3.097 4.145-5.094 3.197-2.647-.799-4.245 3.146-3.347.599-6.143 6.393.699 5.994-3.695 4.045-3.596 4.595-.899 3.446-3.496 4.945-.05 8.94 7.291 1.048 1.649 3.297.299 3.696 2.847 4.894-1.298z" stroke="#00EDFF" stroke-width="9.989" stroke-miterlimit="10"/></svg>