<svg width="388" height="300" fill="none" xmlns="http://www.w3.org/2000/svg"><path d="M117.072 420.866v-541.295h541.295v541.295H117.072z" stroke="#00F0FF" stroke-opacity=".12" stroke-width="6.68" stroke-miterlimit="10"/><path d="M5 150.242L196.348-41.152 387.743-232.5 579.091-41.152l191.348 191.394-382.696 382.697L5 150.242z" stroke="#00F0FF" stroke-opacity=".12" stroke-width="6.68" stroke-miterlimit="10"/><path d="M150.471-87.03l237.272-5.288 237.225 5.288 5.288 237.272-5.288 237.226-237.225 5.288-237.272-5.288-5.288-237.226 5.288-237.272z" stroke="#00F0FF" stroke-opacity=".24" stroke-width="5.891" stroke-miterlimit="10"/><path d="M216.248-21.252l171.494-164.026L559.237-21.252l164.026 171.494-164.026 171.495-171.495 163.979-171.494-163.979L52.222 150.242 216.248-21.252z" stroke="#00F0FF" stroke-opacity=".24" stroke-width="5.891" stroke-miterlimit="10"/><path d="M183.87-53.63l203.873-10.577L591.569-53.63l10.577 203.873-10.577 203.826-203.826 10.576-203.873-10.576-10.576-203.826L183.87-53.63z" stroke="#00F0FF" stroke-opacity=".48" stroke-width="5.149" stroke-miterlimit="10"/><path d="M236.103-1.398l151.64-136.704L539.338-1.398l136.703 151.641-136.703 151.594-151.595 136.704-151.64-136.704L99.445 150.243 236.103-1.397z" stroke="#00F0FF" stroke-opacity=".48" stroke-width="5.149" stroke-miterlimit="10"/><path d="M217.223-20.278l170.52-15.818 170.474 15.818 15.818 170.521-15.818 170.474-170.474 15.818-170.52-15.818-15.818-170.474 15.818-170.52z" stroke="#00F0FF" stroke-opacity=".6" stroke-width="4.36" stroke-miterlimit="10"/><path d="M256.003 18.502L387.743-90.88 519.437 18.502l109.382 131.74-109.382 131.694-131.694 109.382-131.74-109.382-109.382-131.694 109.382-131.74z" stroke="#00F0FF" stroke-opacity=".6" stroke-width="4.36" stroke-miterlimit="10"/><path d="M250.621 13.12L387.742-7.986l137.075 21.107 21.106 137.121-21.106 137.075-137.075 21.106-137.121-21.106-21.106-137.075 21.106-137.121z" stroke="#00F0FF" stroke-opacity=".72" stroke-width="3.572" stroke-miterlimit="10"/><path d="M275.856 38.356l111.887-82.014 111.84 82.014 82.013 111.886-82.013 111.84-111.84 82.013-111.887-82.013-82.013-111.84 82.013-111.886z" stroke="#00F0FF" stroke-opacity=".72" stroke-width="3.572" stroke-miterlimit="10"/><path d="M284.02 46.52l103.723-26.395L491.419 46.52l26.394 103.722-26.394 103.676-103.676 26.395-103.723-26.395-26.394-103.676L284.02 46.52z" stroke="#00F0FF" stroke-opacity=".82" stroke-width="2.83" stroke-miterlimit="10"/><path d="M295.756 58.256l91.986-54.691 91.94 54.69 54.691 91.987-54.691 91.94-91.94 54.691-91.986-54.691-54.691-91.94 54.691-91.986z" stroke="#00F0FF" stroke-opacity=".82" stroke-width="2.83" stroke-miterlimit="10"/><path d="M317.419 79.92l70.324-31.683 70.277 31.682 31.682 70.324-31.682 70.277-70.277 31.682-70.324-31.682-31.682-70.277 31.682-70.324z" stroke="#00F0FF" stroke-opacity=".96" stroke-width="2.041" stroke-miterlimit="10"/><path d="M315.611 78.11l72.132-27.322 72.086 27.322 27.322 72.133-27.322 72.086-72.086 27.322-72.132-27.322-27.323-72.086 27.323-72.133z" stroke="#00F0FF" stroke-opacity=".96" stroke-width="2.041" stroke-miterlimit="10"/><path d="M313.848 150.243l36.924-36.971 36.971-36.925 36.925 36.925 36.924 36.971-73.849 73.848-36.971-36.924-36.924-36.924z" stroke="#00EDFF" stroke-width="1.299" stroke-miterlimit="10"/><path d="M335.51 98.01h104.419v104.418H335.51V98.01z" stroke="#00EDFF" stroke-width="1.299" stroke-miterlimit="10"/></svg>