<svg width="26" height="26" fill="none" xmlns="http://www.w3.org/2000/svg"><g clip-path="url(#clip0)" fill-rule="evenodd" clip-rule="evenodd" fill="#00F0FF"><path d="M25.592 12.671a.557.557 0 010 .658c-.11.15-1.534 2.072-3.803 3.955-2.275 1.888-5.358 3.702-8.79 3.702-3.43 0-6.514-1.814-8.789-3.702C1.94 15.401.516 13.478.407 13.33a.558.558 0 010-.658c.11-.15 1.535-2.072 3.803-3.955C6.485 6.83 9.57 5.014 13 5.014c3.43 0 6.514 1.815 8.79 3.702 2.268 1.883 3.694 3.807 3.802 3.956zm-23.875.138l-.157.19.157.191c.676.82 2.155 2.483 4.127 3.944 1.968 1.457 4.46 2.738 7.156 2.738 2.701 0 5.193-1.28 7.16-2.737 1.971-1.46 3.448-3.124 4.122-3.944l.157-.19-.157-.191c-.676-.82-2.155-2.483-4.127-3.944C18.187 7.41 15.695 6.13 13 6.13c-2.702 0-5.194 1.279-7.161 2.736-1.971 1.46-3.447 3.124-4.122 3.944z"/><path d="M8.157 13A4.849 4.849 0 0113 8.157 4.849 4.849 0 0117.843 13 4.849 4.849 0 0113 17.843 4.849 4.849 0 018.157 13zm1.114 0A3.732 3.732 0 0013 16.73 3.732 3.732 0 0016.728 13 3.732 3.732 0 0013 9.272 3.732 3.732 0 009.27 13z"/></g><defs><clipPath id="clip0"><path fill="#fff" d="M0 0h26v26H0z"/></clipPath></defs></svg>