<svg width="26" height="26" fill="none" xmlns="http://www.w3.org/2000/svg"><g clip-path="url(#clip0)" fill="#00F0FF"><path d="M23.291 23.833H2.708A2.682 2.682 0 010 21.125v-13a2.682 2.682 0 012.708-2.708H23.29A2.682 2.682 0 0126 8.125v13a2.682 2.682 0 01-2.709 2.708zM2.708 6.5c-.867 0-1.625.758-1.625 1.625v13c0 .866.758 1.625 1.625 1.625H23.29c.867 0 1.625-.759 1.625-1.625v-13c0-.867-.758-1.625-1.625-1.625H2.708z"/><path d="M16.791 6.5c-.325 0-.542-.217-.542-.542V3.791c0-.325-.216-.541-.541-.541H10.29c-.325 0-.542.216-.542.542v2.166c0 .325-.216.542-.541.542-.325 0-.542-.217-.542-.542V3.791c0-.866.758-1.624 1.625-1.624h5.417c.866 0 1.625.758 1.625 1.625v2.166c0 .325-.217.542-.542.542zM13 15.167h-.217L.325 10.833C.108 10.725-.11 10.4 0 10.075c.108-.217.433-.433.758-.325L13 14.083 25.24 9.75c.325-.108.542 0 .65.325.109.325 0 .542-.325.65l-12.458 4.333c0 .109 0 .109-.109.109z"/></g><defs><clipPath id="clip0"><path fill="#fff" d="M0 0h26v26H0z"/></clipPath></defs></svg>