<svg width="26" height="26" fill="none" xmlns="http://www.w3.org/2000/svg"><g clip-path="url(#clip0)" fill="#00F0FF"><path d="M18.504 16.098a.54.54 0 01-.108-1.071c3.153-.643 6.41-4.79 6.6-10.693h-3.87a.542.542 0 010-1.084h4.42c.298 0 .541.242.541.541 0 6.998-3.851 11.557-7.475 12.296a.623.623 0 01-.108.011zm-11.017-.022a.563.563 0 01-.119-.013C3.796 15.262 0 10.69 0 3.791c0-.299.243-.541.542-.541h4.333c.3 0 .585.242.585.541 0 .3-.2.542-.498.542h-3.87c.189 5.822 3.403 9.975 6.512 10.673a.54.54 0 01-.117 1.07zm7.138 6.674h-3.25a.542.542 0 01-.541-.542v-3.943a.542.542 0 011.083 0v3.401h2.167v-3.401a.542.542 0 011.083 0v3.943a.542.542 0 01-.542.542z"/><path d="M17.875 26h-9.75a.542.542 0 01-.541-.542v-1.083a2.712 2.712 0 012.708-2.709h5.417a2.712 2.712 0 012.708 2.709v1.083a.542.542 0 01-.542.542zm-9.208-1.084h8.667v-.541c0-.896-.73-1.625-1.625-1.625h-5.417c-.896 0-1.625.729-1.625 1.625v.541zM13 19.5a.552.552 0 01-.172-.028c-.345-.116-8.449-2.91-8.494-9.719V1.625C4.334.729 5.063 0 5.959 0h14.083c.896 0 1.625.729 1.625 1.625V9.75c0 6.812-8.148 9.607-8.495 9.722A.546.546 0 0113 19.5zM5.96 1.083a.542.542 0 00-.542.542V9.75c.037 5.518 6.444 8.198 7.583 8.632 1.144-.433 7.584-3.112 7.584-8.632V1.625a.542.542 0 00-.542-.542H5.96z"/></g><defs><clipPath id="clip0"><path fill="#fff" d="M0 0h26v26H0z"/></clipPath></defs></svg>