<svg width="26" height="26" fill="none" xmlns="http://www.w3.org/2000/svg"><g clip-path="url(#clip0)" fill="#00F0FF"><path fill-rule="evenodd" clip-rule="evenodd" d="M15.518 5.452a.422.422 0 00-.757.258v13.564c0 .727.535 1.408 1.529 1.918.987.506 2.383.818 3.99.818 1.608 0 3.004-.312 3.991-.818.994-.51 1.528-1.191 1.529-1.918 0-.453-.216-.893-.61-1.28L15.518 5.453zm7.246 11.362l.552.133-7.71-9.998v10.82l.308-.197c.988-.632 2.54-1.034 4.367-1.034.905 0 1.745.099 2.483.276zm2.191 2.46c0 .255-.157.496-.379.702-.227.21-.552.412-.954.586-.806.349-1.953.604-3.341.604-1.39 0-2.536-.255-3.342-.604-.402-.174-.727-.375-.954-.586-.222-.206-.38-.447-.38-.702 0-.255.158-.497.38-.702.227-.211.552-.412.954-.586.806-.35 1.953-.604 3.341-.604 1.39 0 2.536.254 3.342.604.402.174.727.375.954.586.222.205.38.447.38.702z"/><path d="M13.355 21.335v.002l-.002.036.002-.038z"/><path fill-rule="evenodd" clip-rule="evenodd" d="M.705 20.15l.012-.013L12.188 1.996a.423.423 0 01.78.221l.188 19.084v.015l-.001.013c0 .014-.001.02-.002.024v.012c-.03.783-.694 1.536-2.034 2.082-1.187.484-2.764.754-4.441.754-1.678 0-3.255-.27-4.442-.754C.866 22.889.2 22.114.2 21.311c0-.405.167-.797.506-1.16zm11.281-.536l.31.196-.159-16.153L2.37 19.105l.519-.161c1.087-.338 2.404-.523 3.79-.523 1.677 0 3.254.27 4.441.754.328.134.617.281.867.44zM1.32 20.724l-.012.01-.01.011c-.15.168-.254.361-.254.566 0 .28.19.54.454.76.273.226.662.443 1.146.631.971.378 2.355.655 4.034.655 1.678 0 3.061-.277 4.032-.654.485-.189.874-.405 1.146-.632.264-.22.455-.48.455-.76v-.001c0-.28-.191-.54-.455-.76-.272-.226-.662-.442-1.146-.63-.97-.378-2.354-.655-4.032-.655-1.31 0-2.438.168-3.33.42-.888.252-1.56.591-1.94.947l-.012.011-.01.013a.415.415 0 01-.066.067z"/></g><defs><clipPath id="clip0"><path fill="#fff" d="M0 0h26v26H0z"/></clipPath></defs></svg>