<svg width="91" height="90" fill="none" xmlns="http://www.w3.org/2000/svg"><path d="M21.659 21.395a65.837 65.837 0 00.264 6.585h-7.625a8.4 8.4 0 01-.334-2.042 7.044 7.044 0 01-6.269 2.588c-5 0-7.695-3.134-7.695-7.043 0-5.283 4.19-7.484 10.988-7.484h2.73v-1.215c0-1.426-.511-2.483-2.501-2.483-1.99 0-2.36.863-2.554 2.307H1.021c.3-3.716 2.5-7.36 10.407-7.343 7.272 0 10.23 2.835 10.23 8.206v7.924zm-7.942-3.276h-1.76c-2.853 0-3.787 1.004-3.787 2.642a2.219 2.219 0 002.413 2.36c2.8 0 3.205-1.938 3.205-4.315l-.07-.687zm34.161 2.765v7.043h-8.117c-.106-.528-.141-1.76-.177-2.341a6.64 6.64 0 01-6.145 2.905c-4.754 0-7.29-2.905-7.29-8.17V5.704h8.24v13.242c0 2.007.582 3.434 2.448 3.434 1.867 0 2.73-1.092 2.73-4.385V5.67h8.258l.053 15.214zM51.4 5.758h3.205V0h8.17v5.758h3.892v5.564h-3.91v9.544c0 1.374.44 1.902 2.166 1.902.387.024.775.024 1.162 0v5.107a18.35 18.35 0 01-4.824.51c-5.283 0-6.727-2.553-6.727-6.762V11.376h-3.152l.018-5.617zM22.644 51.557V58.6h-8.117c-.106-.528-.141-1.76-.177-2.342a6.603 6.603 0 01-6.127 2.906c-4.772 0-7.308-2.906-7.308-8.17V36.377h8.24V49.62c0 2.025.582 3.434 2.448 3.434 1.867 0 2.73-1.092 2.73-4.385V36.343h8.311v15.214zm4.754-9.033V36.43h7.924c.13.787.218 1.58.264 2.377a7.432 7.432 0 016.252-2.905 5.882 5.882 0 015.67 3.046 8.187 8.187 0 016.814-3.046c4.138 0 7.22 2.606 7.22 8.294v14.456h-8.083V44.92c0-1.638-.546-2.994-2.324-2.994-1.779 0-2.553 1.197-2.553 3.75v12.978h-8.118V44.99c0-1.673-.422-3.029-2.271-3.029-1.85 0-2.589 1.022-2.589 3.91v12.783h-8.206v-16.13zm38.74-.335v-5.758h8.064c.13.81.213 1.628.247 2.448a7.166 7.166 0 016.322-2.976c4.454 0 7.272 2.993 7.272 8.434v14.316h-8.259V45.306c0-2.148-.616-3.346-2.518-3.346-1.901 0-2.817.898-2.817 4.015v12.678h-8.258l-.053-16.464zM.458 89.399v-.722c0-5.776 2.677-9.509 7.924-13.26 4.033-2.887 5.09-3.768 5.09-5.863 0-2.096-.846-3.011-2.607-3.011-2.148 0-2.835 1.444-3.064 3.75H.194C.476 65.91 3.03 60.89 11.182 60.89c8.153 0 10.565 4.297 10.565 8.805 0 3.803-1.55 5.881-6.708 9.297a13.858 13.858 0 00-4.755 4.261H22.61l-.968 6.163L.458 89.4zM48.83 75.312c0 7.96-2.87 14.668-11.728 14.668-8.857 0-11.657-6.639-11.657-14.492 0-7.853 3.046-14.545 11.78-14.545 8.312-.053 11.605 6.234 11.605 14.316v.053zm-14.95 0c0 5.846.458 8.804 3.31 8.804 2.853 0 3.17-2.976 3.17-8.804 0-5.829-.493-8.681-3.135-8.681-2.64 0-3.345 2.307-3.345 8.68zm18.56 14.087v-.722c0-5.776 2.658-9.509 7.906-13.26 4.032-2.887 5.089-3.768 5.089-5.863 0-2.096-.846-3.011-2.606-3.011-2.149 0-2.818 1.444-3.064 3.75h-7.607c.299-4.384 2.852-9.403 10.987-9.403 8.136 0 10.566 4.297 10.566 8.805 0 3.803-1.55 5.881-6.71 9.297a13.735 13.735 0 00-4.736 4.261h12.326l-.968 6.163-21.184-.017zm29.23 0V69.8a21.326 21.326 0 01-4.173.44v-5.388a11.445 11.445 0 006.709-3.416h5.846V89.4H81.67z" fill="#fff"/></svg>