<svg width="174" height="47" fill="none" xmlns="http://www.w3.org/2000/svg"><g clip-path="url(#clip0)" fill="#00F0FF"><path d="M64.4 37.635v5.78c0 .394.023.894.046 1.214h-.773l-.056-.767h-.033c-.235.48-.784.862-1.511.862-1.12 0-1.96-.947-1.96-2.437 0-1.629.952-2.544 2.038-2.544.66 0 1.13.287 1.343.67h.023v-2.778h.884zm-.883 4.109c0-.106-.012-.245-.034-.351-.112-.532-.548-.98-1.153-.98-.862 0-1.332.81-1.332 1.842 0 .98.437 1.788 1.31 1.788.504 0 .985-.309 1.164-.968.033-.107.045-.224.045-.362v-.969zm6.403.446c0 1.8-1.176 2.524-2.262 2.524-1.231 0-2.194-.905-2.194-2.47 0-1.65 1.019-2.523 2.261-2.523 1.288.01 2.194.958 2.194 2.47zm-3.55.043c0 .969.493 1.842 1.333 1.842.828 0 1.32-.884 1.32-1.863 0-.788-.346-1.83-1.32-1.83-.974 0-1.332 1-1.332 1.851zm4.624-.99c0-.51-.023-1-.045-1.415h.772l.045.894h.034c.212-.586.727-.98 1.287-.98a.7.7 0 01.224.022v.809c-.079-.022-.157-.022-.258-.022-.604 0-1.04.458-1.153 1.076a2.406 2.406 0 00-.033.415v2.586h-.873v-3.385zm7.175.947c0 1.8-1.176 2.524-2.261 2.524-1.232 0-2.194-.905-2.194-2.47 0-1.65 1.018-2.523 2.26-2.523 1.288.01 2.195.958 2.195 2.47zm-3.56.043c0 .969.493 1.842 1.332 1.842.828 0 1.321-.884 1.321-1.863 0-.788-.347-1.83-1.32-1.83-.963 0-1.333 1-1.333 1.851zm8.551 1.714c0 1.16-.223 1.767-.649 2.161-.436.394-1.074.554-1.69.554-.548 0-1.141-.128-1.51-.352l.223-.649c.291.17.761.33 1.31.33.85 0 1.444-.437 1.444-1.607v-.522h-.023c-.235.426-.739.745-1.41.745-1.142 0-1.948-1-1.948-2.352 0-1.66 1.03-2.523 2.06-2.523.772 0 1.175.394 1.388.756h.022l.045-.66h.772c-.022.34-.045.745-.045 1.373v2.746h.012zm-.872-2.299c0-.138-.012-.266-.045-.373-.146-.457-.515-.862-1.13-.862-.784 0-1.31.713-1.31 1.81 0 1.032.481 1.745 1.31 1.745.47 0 .917-.266 1.107-.83.056-.149.068-.308.068-.457v-1.033zm5.562 1.842c0 .393.012.798.079 1.128h-.795l-.078-.575h-.034c-.257.362-.738.67-1.388.67-.906 0-1.432-.649-1.432-1.373 0-1.17 1.052-1.777 2.764-1.767v-.117c0-.468-.134-1.096-1.04-1.085-.426 0-.851.117-1.165.319l-.201-.564c.358-.213.918-.383 1.51-.383 1.378 0 1.77.894 1.77 1.884v1.862h.01zm-.861-1.331c-.829-.01-1.903.128-1.903 1.086 0 .585.37.83.783.83.571 0 .963-.351 1.086-.777A.796.796 0 0087 43.02v-.862h-.011zm4.331-.501v.628h-2.484v-.628h2.485zm.493 2.47l2.07-2.863c.202-.256.381-.5.583-.745v-.022h-2.463v-.67h3.504v.532l-2.049 2.82c-.19.256-.38.512-.57.746v.021h2.652v.67h-3.727v-.489zm4.623-6.493h.873v2.874h.022c.135-.213.347-.415.582-.553.246-.128.538-.213.862-.213.66 0 1.578.415 1.578 1.937v2.949h-.873v-2.853c0-.724-.257-1.342-1.018-1.342-.526 0-.94.363-1.097.842a1.054 1.054 0 00-.056.393v2.949h-.873v-6.983zm6.279.873c0 .298-.212.521-.548.521a.504.504 0 01-.526-.521c0-.309.223-.532.537-.532a.51.51 0 01.537.532zm-.962 6.11v-4.8h.873v4.8h-.873zm1.757-.49l2.071-2.863c.201-.256.38-.5.582-.745v-.022H103.7v-.67h3.504v.532l-2.049 2.82c-.19.256-.38.512-.571.746v.021h2.653v.67h-3.727v-.489zm4.612-3.023c0-.51-.023-.883-.045-1.277h.772l.056.734h.022c.236-.426.773-.82 1.512-.82.682 0 1.6.426 1.6 1.927v2.96h-.873v-2.853c0-.714-.246-1.342-1.018-1.342-.527 0-.952.362-1.097.863a1.407 1.407 0 00-.056.404v2.927h-.873v-3.523zm6.29-2.597c0 .298-.213.521-.548.521a.504.504 0 01-.526-.521c0-.309.224-.532.537-.532.313 0 .537.223.537.532zm-.974 6.11v-4.8h.873v4.8h-.873zm2.105-.501c0-.361.246-.617.593-.617.358 0 .593.245.593.617 0 .352-.224.607-.604.607a.589.589 0 01-.582-.607zm6.413-1.927c0 1.8-1.175 2.524-2.261 2.524-1.231 0-2.193-.905-2.193-2.47 0-1.65 1.018-2.523 2.261-2.523 1.287.01 2.193.958 2.193 2.47zm-3.559.043c0 .969.493 1.842 1.332 1.842.828 0 1.321-.884 1.321-1.863 0-.788-.347-1.83-1.321-1.83-.963 0-1.332 1-1.332 1.851zm4.634-.99c0-.51-.023-1-.045-1.415h.772l.045.894h.034c.212-.586.727-.98 1.287-.98a.7.7 0 01.224.022v.809c-.078-.022-.157-.022-.258-.022-.604 0-1.041.458-1.152 1.076a2.346 2.346 0 00-.034.415v2.586h-.873v-3.385zm6.984 2.704c0 1.16-.223 1.767-.649 2.161-.436.394-1.074.554-1.69.554-.548 0-1.142-.128-1.511-.352l.224-.649c.291.17.761.33 1.309.33.851 0 1.444-.437 1.444-1.607v-.522h-.022c-.235.426-.739.745-1.41.745-1.142 0-1.948-1-1.948-2.352 0-1.66 1.03-2.523 2.06-2.523.772 0 1.175.394 1.387.756h.023l.045-.66h.772c-.022.34-.045.745-.045 1.373v2.746h.011zm-.884-2.299a1.26 1.26 0 00-.045-.373c-.145-.457-.515-.862-1.13-.862-.784 0-1.31.713-1.31 1.81 0 1.032.482 1.745 1.31 1.745.47 0 .918-.266 1.108-.83.056-.149.067-.308.067-.457v-1.033zm-59.738-11.41v4.172H67.29v-2.278h-5.72v2.278h-2.104v-4.172h1.04a13.776 13.776 0 001.131-3.524c.38-2.022.47-5.684.47-8.26v-1.075h6.022v12.848h1.265v.01zm-5.216-10.965v1.16c0 3.588-.246 5.632-.492 6.93a11.14 11.14 0 01-.93 2.97h3.146v-11.06h-1.724zm6.425 1.98c0-1.118.09-2.193 1.153-3.14.66-.586 1.578-.948 2.72-.948 1.153 0 2.06.362 2.72.948 1.063.947 1.153 2.022 1.153 3.14v6.993c0 1.118-.09 2.193-1.153 3.14-.66.586-1.578.948-2.72.948-1.153 0-2.06-.362-2.72-.948-1.063-.947-1.153-2.022-1.153-3.14v-6.993zm5.54-.309c0-.447-.044-.883-.47-1.288-.246-.234-.638-.426-1.197-.426-.549 0-.952.192-1.198.426-.425.405-.47.841-.47 1.288v7.632c0 .447.045.884.47 1.288.246.235.638.426 1.198.426.548 0 .951-.191 1.198-.426.425-.404.47-.84.47-1.288v-7.632zm4.657-3.566h3.302c.951 0 2.127.043 3.1.969 1.019.99 1.131 2.278 1.131 3.374v.426c0 .82-.09 2.044-.951 2.991-.907.99-2.105 1.16-3.056 1.16h-1.31v5.834H80.8V17.378zm2.216 7.015h1.198c.425 0 1.019-.064 1.489-.543.47-.49.425-.99.425-1.522v-.969c0-.5.022-1.224-.593-1.703-.515-.404-1.13-.383-1.724-.383h-.772v5.12h-.023zm7.085-3.14c0-1.118.09-2.193 1.154-3.14.66-.586 1.578-.948 2.72-.948 1.141 0 2.06.362 2.72.948 1.063.947 1.152 2.022 1.152 3.14v6.993c0 1.118-.09 2.193-1.153 3.14-.66.586-1.578.948-2.72.948-1.141 0-2.059-.362-2.72-.948-1.063-.947-1.152-2.022-1.152-3.14v-6.993zm5.541-.309c0-.447-.044-.883-.47-1.288-.246-.234-.638-.426-1.197-.426-.549 0-.952.192-1.198.426-.425.405-.47.841-.47 1.288v7.632c0 .447.044.884.47 1.288.246.235.638.426 1.198.426.548 0 .951-.191 1.197-.426.426-.404.47-.84.47-1.288v-7.632zm4.656-3.566h6.739v2.002h-4.522v12.752h-2.217V17.378zm11.63 14.754l-.727-3.162h-2.832l-.728 3.162h-2.216l3.392-14.754h1.947l3.392 14.754h-2.228zm-2.194-10.645l-1.152 5.61h2.35l-1.198-5.61zm18.895 2.214c.313 0 .593-.128.817-.447.291-.383.38-.905.492-1.937l.157-1.33c.09-.8.224-1.683.884-2.236.638-.522 1.489-.543 2.06-.543h.403v1.895h-.358c-.18 0-.426.106-.571.234-.247.213-.336.607-.448 1.554l-.157 1.416c-.067.564-.112 1.096-.313 1.575-.134.298-.269.468-.493.607l2.306 7.632h-2.418l-1.88-6.62h-1.31v6.62h-2.216v-6.62h-1.309l-1.881 6.62h-2.418l2.306-7.632c-.224-.15-.358-.32-.492-.607-.202-.49-.247-1.011-.314-1.575l-.156-1.416c-.112-.947-.202-1.352-.448-1.554-.157-.128-.403-.234-.571-.234h-.358v-1.895h.403c.571 0 1.421.021 2.059.543.661.543.795 1.437.885 2.235l.156 1.33c.112 1.033.202 1.555.493 1.938.224.32.515.447.817.447h.817v-6.323h2.216v6.323h.84zm8.865-6.323v9.059l3.66-7.377v-1.682h2.216v14.754h-2.216v-9.059l-3.66 7.377v1.682h-2.217V17.378h2.217zm7.868 2.864c0-.586.135-1.597 1.176-2.364.515-.383 1.309-.713 2.462-.713.884 0 1.858.192 2.552.67.403.278 1.22.99 1.22 2.407v1.245c0 .777-.044 1.597-.66 2.3a3.533 3.533 0 01-.884.67c.638.32.951.67 1.108.926.403.628.448 1.267.448 1.895v1.724c0 .82-.112 1.703-.974 2.47-.817.713-1.836.862-2.832.862-.817 0-1.836-.107-2.642-.799a2.829 2.829 0 01-.951-2.128v-1.374h2.216v.841c0 .32.134.777.358 1.012.269.276.795.383 1.153.383.549 0 .884-.15 1.064-.32.402-.361.402-.798.402-1.266v-1.31c0-.404-.044-1.266-.593-1.681-.156-.128-.515-.32-1.175-.32h-.66v-1.895h.593c.571 0 1.108-.191 1.421-.51.403-.426.426-1.033.426-1.31v-.947c0-.32 0-.82-.448-1.182-.246-.191-.616-.319-1.086-.319-.425 0-.772.15-1.018.383-.381.34-.426.756-.426 1.075v.884h-2.216v-1.31h-.034zm12.056-2.864v6.345h2.988v-6.345h2.216v14.754h-2.216v-6.515h-2.988v6.515H155.2V17.378h2.217zm10.074 0v9.059l3.66-7.377v-1.682h2.216v14.754h-2.216v-9.059l-3.66 7.377v1.682h-2.217V17.378h2.217zM64.916 3.69v1.053H62.52V6.84h.57c.46 0 1.097-.021 1.635.447.503.447.503 1 .503 1.288v.916c0 .383-.022.809-.335 1.256-.224.308-.683.734-1.758.734h-1.78V3.69h3.56zm-2.396 6.8h.526c.168 0 .548-.021.794-.34.157-.203.213-.543.213-.81v-.425c0-.383-.056-.65-.313-.863-.19-.149-.359-.202-.627-.202h-.593v2.64zm7.746 1.002h-1.175V4.69h-.929l-.034 1.096c-.044 1.363-.055 1.99-.1 2.608-.056.82-.135 1.235-.18 1.448-.078.383-.2.745-.559 1.128-.437.447-.895.522-1.377.522h-.268v-1.065h.134a.94.94 0 00.459-.106.95.95 0 00.414-.511c.134-.394.213-1.522.235-1.916.034-.618.067-1.107.078-2.108l.034-2.097h3.28v7.803h-.012zm4.264 0l-.39-1.671h-1.5l-.393 1.67h-1.175l1.791-7.802h1.03l1.79 7.803h-1.152zM73.379 5.86l-.605 2.97h1.243l-.638-2.97zm3.111-2.17h3.56v1.053h-2.396v6.738h-1.175V3.69h.01zm3.872 2.043c0-.586.045-1.16.605-1.66.347-.31.828-.501 1.444-.501.604 0 1.086.192 1.444.5.56.5.604 1.075.604 1.66v3.705c0 .586-.044 1.16-.604 1.66-.347.31-.829.501-1.444.501-.605 0-1.086-.192-1.444-.5-.56-.5-.605-1.075-.605-1.66V5.732zm2.922-.16c0-.234-.022-.468-.246-.681-.135-.128-.336-.224-.638-.224-.291 0-.504.096-.638.224-.224.213-.247.447-.247.681v4.035c0 .234.023.468.247.68.134.128.335.224.638.224.29 0 .503-.096.638-.223.224-.213.246-.447.246-.681V5.573zm5.619-1.883v1.053h-1.455v6.738h-1.175V4.743h-1.456V3.689h4.086zm2.317 0c.347 0 1.03.031 1.545.382.738.5.75 1.342.75 1.8 0 .51-.045.872-.347 1.213a1.777 1.777 0 01-.448.362c.313.138.459.32.56.49.234.393.234.606.234.979V9.5c0 .32 0 1.129-.705 1.629-.257.191-.694.372-1.399.372h-1.78V3.69h1.59zm-.403 3.225h.56c.403 0 .638-.16.75-.288.145-.16.223-.426.223-.67v-.48a.756.756 0 00-.223-.532c-.146-.138-.381-.255-.762-.255h-.548v2.225zm0 3.576h.526c.18 0 .548-.021.795-.34.201-.256.212-.66.212-.788V8.98c0-.384-.055-.65-.313-.863-.19-.149-.358-.202-.627-.202h-.593v2.576zm3.873-4.758c0-.586.045-1.16.604-1.66.347-.31.829-.501 1.444-.501.605 0 1.086.192 1.444.5.56.5.605 1.075.605 1.66v3.705c0 .586-.045 1.16-.605 1.66-.347.31-.828.501-1.444.501-.604 0-1.086-.192-1.444-.5-.56-.5-.604-1.075-.604-1.66V5.732zm2.932-.16c0-.234-.022-.468-.246-.681-.134-.128-.336-.224-.638-.224-.29 0-.504.096-.638.224-.224.213-.246.447-.246.681v4.035c0 .234.022.468.246.68.135.128.336.224.638.224.291 0 .504-.096.638-.223.224-.213.246-.447.246-.681V5.573zm2.463-1.883h1.746c.504 0 1.131.02 1.646.51.537.522.593 1.203.593 1.788v.224c0 .436-.045 1.086-.504 1.586-.481.522-1.108.617-1.623.617h-.694v3.087h-1.175V3.69h.011zm1.164 3.704h.638c.224 0 .537-.032.784-.288.246-.255.224-.521.224-.798v-.511c0-.266.011-.65-.314-.905-.269-.213-.593-.202-.918-.202h-.414v2.704zm5.048-3.704v4.79l1.937-3.897V3.69h1.175v7.803h-1.175v-4.79l-1.937 3.896v.894h-1.175V3.689h1.175zm7.914 0v1.053h-1.455v6.738h-1.164V4.743h-1.456V3.689h4.075zm.739 0h3.481v1.053h-2.306v2.3h2.037v1h-2.037v2.384h2.339v1.054h-3.514V3.69zm8.506 7.802h-1.175V4.69h-.94l-.034 1.096c-.044 1.363-.056 1.99-.1 2.608-.056.82-.135 1.235-.179 1.448-.079.383-.202.745-.56 1.128-.437.447-.896.522-1.377.522h-.268v-1.065h.134a.94.94 0 00.459-.106.946.946 0 00.414-.511c.134-.394.213-1.522.235-1.916.034-.618.067-1.107.078-2.108l.034-2.097h3.279v7.803zm2.575-7.802v3.15h.571c.459 0 1.097-.021 1.634.447.504.447.504 1 .504 1.288v.916c0 .383-.023.809-.336 1.256-.224.308-.683.734-1.758.734h-1.779V3.69h1.164zm0 6.801h.526c.302 0 1.007-.064 1.007-1.16v-.426c0-.383-.056-.65-.313-.862-.19-.15-.358-.202-.627-.202h-.593v2.65zm5.048-6.801v3.352h1.578V3.69h1.175v7.803h-1.175v-3.45h-1.578v3.45h-1.175V3.689h1.175zm5.328 0v3.15h.571c.459 0 1.097-.021 1.634.447.504.447.504 1 .504 1.288v.916c0 .383-.023.809-.336 1.256-.224.308-.683.734-1.758.734h-1.779V3.69h1.164zm0 6.801h.526c.302 0 1.007-.064 1.007-1.16v-.426c0-.383-.056-.65-.313-.862-.19-.15-.358-.202-.627-.202h-.593v2.65zm4.835-6.802v7.803h-1.175V3.689h1.175zm2.575.001v4.79l1.936-3.897V3.69h1.176v7.803h-1.176v-4.79l-1.936 3.896v.894h-1.176V3.689h1.176zm2.406-1.747c0 .447-.179.735-.347.895-.235.212-.626.308-1.074.308-.459 0-.84-.096-1.075-.308-.179-.16-.347-.448-.347-.895v-.127h.94v.095c0 .086.012.213.146.31.101.084.224.095.347.095.123 0 .246-.01.347-.096.134-.096.145-.223.145-.309v-.095h.941v.127h-.023zm8.294 2.64h.28c.504 0 1.131.022 1.646.511.537.522.593 1.203.593 1.788v1.352c0 .437-.045 1.097-.504 1.586-.526.575-1.276.628-1.623.628h-.403v1.054h-1.175v-1.075h-.403c-.336 0-1.086-.042-1.623-.628-.459-.49-.504-1.15-.504-1.586V6.872c0-.575.056-1.256.594-1.788.514-.49 1.141-.511 1.645-.511h.28V3.572h1.175v1.011h.022zm-1.287 1.011c-.313 0-.649-.01-.918.203-.324.255-.313.638-.313.905V8.33c0 .277-.022.532.224.799.257.266.548.276.783.276h.336v-3.81h-.112zm1.287 3.811h.336c.235 0 .526-.01.784-.276.246-.267.224-.522.224-.799V6.702c0-.267.011-.65-.314-.905-.268-.213-.593-.202-.918-.202h-.112v3.81zm3.571-3.672c0-.586.045-1.16.605-1.66.347-.31.828-.501 1.443-.501.605 0 1.086.192 1.444.5.56.5.605 1.075.605 1.66v3.705c0 .586-.045 1.16-.605 1.66-.347.31-.828.501-1.444.501-.604 0-1.085-.192-1.443-.5-.56-.5-.605-1.075-.605-1.66V5.732zm2.933-.16c0-.234-.023-.468-.246-.681-.135-.128-.336-.224-.639-.224-.291 0-.503.096-.638.224-.223.213-.246.447-.246.681v4.035c0 .234.023.468.246.68.135.128.336.224.638.224.292 0 .504-.096.639-.223.223-.213.246-.447.246-.681V5.573zm3.638-1.883v3.352h1.578V3.69h1.175v7.803h-1.175v-3.45h-1.578v3.45h-1.176V3.689h1.176zm8.641 6.801v2.204h-1.108v-1.203h-3.023v1.203h-1.108V10.49h.549a7.12 7.12 0 00.593-1.863c.201-1.075.246-3.012.246-4.364v-.575h3.19v6.802h.661zm-2.754-5.801v.617c0 1.895-.134 2.98-.257 3.662-.09.532-.224 1-.493 1.575h1.668V4.69h-.918zM32.769 31.738c-.537 0-1.019.234-1.321.607a1.693 1.693 0 00-1.32-.607c-1.098 0-1.736.894-1.624 1.799.134 1.107 1.12 1.511 1.802 2.108.594.521 1.142 1.256 1.142 1.256s.549-.735 1.142-1.256c.671-.597 1.667-1.001 1.802-2.108.112-.905-.526-1.799-1.623-1.799zm-1.511-2.598c-.314 0-.616.033-.918.086a6.54 6.54 0 01.918-.085zm-1.288.16v.032c.124-.032.235-.085.358-.106h-.033l-.324.074zm-3.47 3.3c-.01.043-.01.075-.022.118.034-.096.056-.203.101-.299h-.011a.508.508 0 00-.067.181zm4.926-3.46zm1.332.182c-.056-.011-.101-.022-.157-.032.112.032.224.063.346.106v-.01a3.755 3.755 0 01-.19-.064zm-6.403 3.928c-.01.074-.01.138-.022.213 0-.075.011-.139.022-.214zm9.055-12.678c-.167-.522-.458-.67-1.275-.735-.336-.021-.694.128-1.053.277l.236.032c.693.096 1.399.245 2.093.426zm.157.798c-.123-.032-.235-.075-.358-.117a14.92 14.92 0 00-1.634-.352l-.112.81a13.39 13.39 0 012.44.628 1.56 1.56 0 01-.302-.767c-.011-.075-.023-.138-.034-.202zm-10.824 1.888c.013 0 .025-.012.038-.012l-.013-.024c-.012.012-.012.024-.025.035zm4.343 22.882l-.123.575c2.25.372 3.806.106 5.216-.16.157-.032 1.646-.5 1.791-.564.705-.298.974-.468 1.735-.926.145-.085.884-.745 1.03-.83-.795.436-2.508 1.224-3.392 1.49-1.97.607-4.119.777-6.257.415zm3.649-24.525l.213-1.426-.235.095c-.336.128-.627.426-.963.48-.75.106-1.32.393-1.835.862a13.087 13.087 0 012.82-.011zm3.168.713c.157.213.325.373.437.628l.179-.394c-.202-.074-.403-.16-.616-.234z"/><path d="M32.948 20.103l-.011.075c.045-.021.101-.043.146-.064l-.135-.01zm1.612 10.134l.504-.66a5.925 5.925 0 00-2.071-1.033 6.06 6.06 0 00-3.459.054 5.924 5.924 0 00-2.317 1.33l.582.596c2.586-2.075 5.127-1.511 6.76-.287zm1.063-.192l-.515.671c.829.862 1.344 1.99 1.344 3.257 0 2.566-2.105 4.641-4.757 4.812l.01.755a6.616 6.616 0 001.445-.255c1.802-.554 3.29-1.916 3.861-3.779a5.318 5.318 0 00-.056-3.29 6.05 6.05 0 00-.47-1.021l.65-.351c.212.362.391.745.525 1.15a6.008 6.008 0 01.146 3.363l1.545.426-.101.34c-.078.245-.168.49-.258.724a7.588 7.588 0 01-1.096 1.842l.649.521a8.398 8.398 0 001.522-2.863 8.14 8.14 0 00.112-4.418l-.09-.34 1.534-.373c-.034-.138-.078-.266-.123-.404-.045-.117-.079-.224-.123-.33-.65.16-1.377.17-2.116.298l-.325.138c.09.203.168.405.236.607a7.33 7.33 0 01.38 2.96l-.739-.054a6.803 6.803 0 00-.347-2.693 7.17 7.17 0 00-1.869-2.874c-.022-.021-.045-.053-.067-.075l-.011.011-.896 1.245zm-9.346 3.928c0-.17.034-.34.056-.51.011-.065.011-.14.022-.214a4.71 4.71 0 01.123-.543c.012-.042.012-.074.023-.117.022-.064.044-.127.056-.18h.01c.18-.49.426-.948.75-1.352l-.604-.607a5.355 5.355 0 00-1.03 1.916 5.317 5.317 0 00.057 3.289c.582 1.714 2.014 3.13 3.973 3.672.426.117.85.192 1.265.213l-.011-.766c-2.63-.202-4.69-2.267-4.69-4.8z"/><path d="M41.533 41.659l-.235.287-1.231-.98a11.426 11.426 0 01-4.287 2.992l-.291-.65a10.79 10.79 0 002.272-1.234l-.57-.607a9.946 9.946 0 01-2.821 1.373 10.29 10.29 0 01-5.765.075 9.97 9.97 0 01-3.738-1.948l-.549.617a10.586 10.586 0 003.034 1.767l-.28.66a11.522 11.522 0 01-3.526-2.14l-.258-.234 1.041-1.16a9.376 9.376 0 01-2.34-3.672 8.257 8.257 0 01-.346-1.373l-1.59.202-.044-.351a11.096 11.096 0 01-.09-1.618l.739.02c-.011.384 0 .767.045 1.15l.85-.106a8.906 8.906 0 01.359-3.406c.638-2.097 1.992-3.832 3.738-5.014l-.459-.681a10.33 10.33 0 00-3.19 3.396l-.65-.341a10.906 10.906 0 011.646-2.16l-.47-.64c-.29.075-.448.394-.593.607-.314.021-.605-.021-.817.032l.459.34a11.513 11.513 0 00-2.015 3.822 6.325 6.325 0 00-.168.617l.828.182a10.034 10.034 0 01.37-1.192l.705.233c-.078.192-.134.384-.201.575-.09.288-.157.575-.224.873l-.079.362-1.556-.33a11.028 11.028 0 00.314 5.173l1.544-.372.112.309a9.992 9.992 0 001.635 2.97l-.594.425a10.836 10.836 0 01-1.634-2.863l-.828.202c1.287 3.417 4.209 6.216 8.148 7.313a12.74 12.74 0 005.72.255l-.212-.787a12.016 12.016 0 01-4.444-.054c-.078-.01-.157-.032-.235-.053l.168-.681c.067.01.145.032.212.042a11.12 11.12 0 004.478-.01l.347-.075.391 1.459a12.546 12.546 0 005.373-2.789l.504.521a12.82 12.82 0 01-2.228 1.586c1.13-.606 1.13-.436 2.284-1.16.492-.309 1.164-1.054 1.198-1.086.492-.617.492-.777.727-1.256l-.145-.106c-.168.234-.347.468-.538.692z"/><path d="M25.83 23.488l-.348.181c-.38.203-.75.426-1.12.66a2.136 2.136 0 01-.234.511c-.213.33-.504.628-.795.937l.18.245a11.432 11.432 0 014.32-2.427 11.947 11.947 0 016.705-.096 12.06 12.06 0 011.858.703c.01-.373.033-.682.067-.66a1.751 1.751 0 00-.112-.565l-.112.245a12.9 12.9 0 00-1.455-.5 12.905 12.905 0 00-7.197.096c-.101.032-.19.064-.291.096l-.19-.511a1.854 1.854 0 00-.482-.054c-.761.011-1.153.032-1.41.213l.615.926z"/><path d="M43.268 36.794c0-.032.011-.064.011-.096.012-.053.023-.096.034-.149l.056-.245a11.05 11.05 0 00-.291-5.769 1.272 1.272 0 00-.504-.128c-.123 0-.28 0-.436.011.022.064.056.128.067.181.19.575.336 1.15.436 1.756l-.727.107c-.034-.181-.067-.373-.1-.554l-.83.203a8.829 8.829 0 01-.2 4.438 9.18 9.18 0 01-1.904 3.396l-.235.266-1.23-.98a8.327 8.327 0 01-3.55 2.172c-.145.043-.29.085-.436.117l-.19-.68c.134-.033.269-.075.403-.107 2.07-.639 3.817-2.119 4.668-4.141a3.75 3.75 0 00.123-.32l-.817-.223c-.706 1.916-2.306 3.321-4.22 3.917a6.915 6.915 0 01-3.896.053 7.078 7.078 0 01-1.902-.851l-1.019 1.181-.28-.212a7.983 7.983 0 01-2.462-2.992l.683-.287a7.08 7.08 0 001.958 2.502l.538-.629a6.326 6.326 0 01-1.981-2.842 5.972 5.972 0 01-.056-3.704c.637-2.086 2.317-3.63 4.342-4.258a7.01 7.01 0 013.896-.053 6.71 6.71 0 012.294 1.128l.482-.67a7.562 7.562 0 00-2.004-1.065c-.011-.01-.034-.01-.045-.01-.157-.054-.324-.117-.492-.16a7.774 7.774 0 00-4.388.064 7.64 7.64 0 00-3.134 1.873l-.537-.49a8.418 8.418 0 015.697-2.426l-.034-.81a9.692 9.692 0 00-3.078.618l-.28-.66c.213-.074.426-.149.638-.213a10.597 10.597 0 013.079-.458h.358l.067 1.533c.604.032 1.22.128 1.824.298.28.075.538.16.795.266a.35.35 0 00.224-.149c.123-.17.313-.298.526-.415a8.624 8.624 0 00-1.31-.479 7.677 7.677 0 00-.671-.16l.157-.691c.235.053.48.106.716.17.672.18 1.31.447 1.914.745.112-.064.213-.128.302-.202.034.01.056-.224.067-.532a11.149 11.149 0 00-8.294-.703c-.794.245-1.556.575-2.26.99l.85 1.277-.302.192a8.77 8.77 0 00-2.675 2.587l1.298.862-.157.277a6.38 6.38 0 00-.66 1.511 6.654 6.654 0 00-.18 3.236l-.727.128a7.552 7.552 0 01.772-4.929l-.705-.468c-.28.5-.515 1.043-.683 1.618a8.232 8.232 0 00.079 5.067c.895 2.64 3.112 4.822 6.123 5.652.76.213 1.533.32 2.294.34v-.808a8.614 8.614 0 01-2.06-.309 9.722 9.722 0 01-1.152-.404l.313-.64c.336.15.683.278 1.052.373a7.98 7.98 0 002.216.288l.381-.01-.011 1.51a9.763 9.763 0 002.294-.404 9.25 9.25 0 002.866-1.458l.269-.202 1.063 1.117a10.107 10.107 0 003.28-4.854 10 10 0 00.425-2.522l.739.02c-.023.895-.18 1.8-.448 2.705a10.791 10.791 0 01-1.791 3.449l.66.521a11.636 11.636 0 001.545-2.608l.672.256a7.13 7.13 0 01.201-.639c.112-.277.224-.543.347-.82l-.727-.138-.023-.245zM19.74 39.562l-.291.138c.168.607 1.343 2.48 1.365 2.523.37.51 2.933 3.3 7.422 4.151l.112-.383a7.005 7.005 0 01-.638-.16c-3.594-.99-6.392-3.331-7.97-6.27z"/><path d="M33.576 27.012c.012 0 .012 0 0 0l.012-.011c-.012 0-.012 0-.012.011-.069.045-.057.045 0 0zm9.804 11.645c.011-.021.023-.043.034-.075h-.011c0 .022-.012.043-.023.075.011-.01 0 0 0 0zM20.759 26.724c.067-.053.134-.096.2-.15.034-.031.09-.042.146-.052l-.123-.085c-.09.085-.145.191-.223.287zm34.117-7.099c-.056-.054-.045-.17-.056-.256-.236-1.416-1.5-1.83-2.71-1.128-.57.33-1.152.756-1.779.83-.761.096-1.13.415-1.466 1.022-.314.575-.705 1.192-1.243 1.543-.638.426-.884.724-.47 1.341.112.17.19.31.134.437a.484.484 0 01-.235.202c-.111.053-.212.203-.257.352-.022.053-.034.117-.045.16-.056.404.034.83-.067 1.213 0 .01 0 .032-.011.042-.112.383-.123.788-.112 1.182 0 .543.022 1.096-.168 1.618-.045.128-.1.245-.168.362-.067.127.011.33.034.649.145-.096.28-.192.414-.287.246-.181.492-.341.716-.5.213-.15.414-.288.627-.416l.011-.01c.235-.15.47-.31.705-.469.213-.138.415-.277.627-.404.403-.256.806-.48 1.243-.628.94-.32 1.421-.99 1.925-1.64a22.661 22.661 0 001.836-2.725c.425-.787 1.432-1.48.515-2.49zm-9.795 12.251a.147.147 0 01-.033-.042c-.011-.032-.011-.064-.011-.096.201-.575.1-.915-.224-1.032-.19-.064-.459-.054-.795.02-.033.011-.056.011-.078.022.504 1.81.593 3.747.168 5.684l.123.022c.157-.362.302-.724.459-1.086.179-.437.425-.862.481-1.31.011-.085.034-.17.067-.255.213-.65.85-1.32-.157-1.927zM31.639 6.585c.223.362.57.702.615 1.085.1.863.504 1.704.202 2.587-.056.15.1.351.078.522-.034.457.336 1.043-.437 1.309-.09.032-.09.298-.123.404.303.064.705.086.717.17.078.395.201.895.01 1.182-.335.5-.089.884.035 1.31.044.138.179.244.212.383.056.234.1.468.146.702.179.788.425 1.533 1.31 1.98.223.117.47.203.716.309.044-.138.09-.266.134-.405.045-.149.09-.287.112-.436.011-.085-.034-.181-.078-.277-.023-.053-.045-.096-.068-.149.09 0 .18.01.269.021.034-.212.067-.425.112-.638.045-.234.09-.468.112-.692.033-.33.022-.65-.09-.969.235-.277.582-.521.538-.681-.056-.266-.347-.5-.571-.724-.224-.234-.482-.436-.75-.67.268-.16.459-.277.503-.298-.022-1.278-.044-2.438-.067-3.609a25.228 25.228 0 00-.537-.096c-.011-.053-.011-.106-.022-.16.224-.063.447-.138.582-.18.022-.277.033-.511.033-.554-.246-.458-.459-.724-.515-1.022-.022-.128.28-.309.392-.479.1-.16.213-.33.235-.51.235-1.523-.313-2.917-.951-4.248-.515-1.054-1.68-1.426-2.653-.99-.246.107-.414.405-.56.639-.09.138-.044.34-.09.5-.2.713-.592 1.437-.559 2.15.023.724.448 1.437.716 2.15.079.15.213.256.292.384zm-10.299 7.43c.034.095.08.16.068.223-.18 1.256.034 2.416.57 3.545.09.191.191.383.303.575.011.02.022.032.034.053.168.266.38.457.604.617.235.16.504.288.75.437.09.053.19.106.28.16.09.063.38-.033.492-.128.224-.203.448-.426.66-.64.191-.19.37-.382.56-.574-.078-.106-.156-.202-.224-.298-.1-.128-.19-.255-.302-.394.314-.064.549-.117.784-.16a2.28 2.28 0 00.078-.468 2.24 2.24 0 00-.045-.724 2.802 2.802 0 00-.38-.915c-.123-.192-.235-.405-.269-.617-.09-.586-.537-.788-1.04-.948-.225-.074-.505-.074-.65-.213-.112-.096-.123-.383-.067-.553.045-.15.235-.256.37-.383-.18-.128-.37-.267-.583-.416 0-.085.011-.223 0-.35-.1-1.406.023-2.896-1.578-3.588.067-.447.235-.873.157-1.246-.112-.49-.415-.936-.66-1.405-.337-.638-.47-1.309-.28-2-.213-.16-.415-.31-.616-.459-.672-.479-.996-.436-1.668.064-.157.117-.47.107-.705.075-.963-.117-1.847.34-1.87 1.086-.01.542.034 1.139.247 1.628.403.905.94 1.746 1.433 2.608.056.096.235.107.347.181.1.064.223.128.257.224.235.564.414 1.139.66 1.692.415.937.885 1.852 1.288 2.8.201.457.48.66.996.51zM9.073 17.091c.146.554 1.007.937 1.534 1.405.492.426 1.096.788 1.432 1.31.75 1.17 1.702 2.139 2.765 3.033.213.181.425.34.65.511l.57.447c.18.139.37.277.549.426.044.032.078.064.123.106.179.15.369.31.548.48.168.148.336.308.515.468.011-.021.022-.032.034-.053.167-.224.313-.405.436-.575.1-.139.201-.256.291-.384-.65-.436-.65-.585-.224-1.437a.388.388 0 01.045-.095c.078-.17.145-.362.18-.543.033-.16.033-.309-.035-.405-.1-.138-.212-.287-.313-.425-.145-.192-.29-.384-.448-.575-.526-.639-1.152-1.171-2.082-1.31a4.683 4.683 0 00-.85-1c-.616-.564-1.21-1.16-1.892-1.64-.347-.244-.481-.415-.347-.787.056-.128.045-.287.079-.458-.918-.096-2.015.245-2.295-1 .403-.341.627-.075.884.17.213.202.481.372.728.553.022-.532.045-.947.078-1.405-.19-.244-.448-.564-.828-1.053.067-1.427.1-1.182-1.22-1.778-.123-.021-.235-.043-.291-.096-.538-.5-1.13-.362-1.802-.223.09.319.156.596.257.872.056.16.168.309.257.469-.179.042-.369.117-.548.127-1.187.075-1.153.139-.761 1.129.504 1.31 1.612 2.32 1.981 3.736zm9.693 13.636c-.123.01-.246.01-.391.02-.023.384-.258.608-.66.682-.035 0-.068.01-.102.01-.067.011-.112.022-.19.022-.134 0-.28.213-.425.33-.18.16-.358.32-.571.5-.146-.16-.269-.319-.392-.468-.145-.17-.28-.32-.448-.458-.044-.042-.134-.053-.235-.053a.87.87 0 00-.347.064c-.19.096-.313.298-.47.458a3.039 3.039 0 00-.145-.032c-.023-.011-.056-.011-.079-.022.045-.266.101-.543.157-.894-.123-.096-.29-.298-.515-.404l-.067-.032c-.269-.128-.526-.245-.795-.373-.223-.106-.447-.213-.682-.309-.392-.18-.795-.35-1.198-.521-.84-.362-1.702-.66-2.552-1.011-.291-.117-.593-.437-.84-.394-.649.106-1.141.16-1.59-.468-.346-.49-.973-.788-1.376-1.246-.313-.415-.716-.575-1.254-.575-.134 0-.268-.096-.402-.138.111-.096.212-.192.257-.224-.392-.255-.784-.51-1.175-.755-.056-.032-.157-.043-.202-.011-.38.266-.828.479-1.086.83-.29.394-.324.873.135 1.267.918.798 1.802 1.629 2.742 2.406.246.212.593.319.918.436.392.138.996.117 1.142.373.593.958 1.634 1.107 2.552 1.447.683.256 1.444.309 2.138.532.48.15.929.384 1.388.586.179.075.358.149.548.213.056.021.112.032.157.053.436.15.794.34.962.82.068.18.403.266.616.404.022-.042.056-.074.078-.106-.056-.128-.123-.256-.224-.458.348.043.672.085.997.128.19.032.38.053.582.074.145.799-.291 1.874.828 2.406.034.021.067.032.112.053.011.01.011.043.022.064.09.138.168.287.258.426.38.65.76 1.299 1.164 1.927.011.02.067.01.123.01.146-.021.37-.096.515-.149.067-.021.1-.096.123-.202.045 0 .056-.107.09-.107l-.034-.095a12.034 12.034 0 01-.157-7.036zm7.701 1.99a4.61 4.61 0 00-.123.543 9.46 9.46 0 01.123-.543z"/></g><defs><clipPath id="clip0"><path fill="#fff" transform="translate(.779 .592)" d="M0 0h172.588v46.304H0z"/></clipPath></defs></svg>