<svg width="228" height="26" fill="none" xmlns="http://www.w3.org/2000/svg"><path d="M65.674 1.272c2.714-.275 5.571-.198 8.146.704 1.477.57 2.826 1.582 3.428 2.977.415 1.482-.714 3.22-2.306 3.643-2.45.192-4.582-1.306-7.003-1.377-1.742-.08-3.693.279-4.885 1.543-1.118 1.089-1.327 2.67-1.4 4.104.042 1.546.25 3.274 1.484 4.44 1.185 1.206 3.083 1.513 4.773 1.446 2.425-.057 4.557-1.562 7.007-1.386 1.358.34 2.313 1.617 2.428 2.881.052 1.19-.94 2.074-1.836 2.8-1.592 1.278-3.801 1.537-5.829 1.697-2.536.23-5.153.048-7.553-.771-3.83-1.341-6.85-4.545-7.564-8.274-.547-3.092-.293-6.463 1.575-9.164 2.003-3.067 5.748-4.85 9.535-5.263zm120.533-.032c3.662-.41 7.623.27 10.536 2.44 5.794 4.116 6.243 13.05 1.013 17.713-3.801 3.595-10.037 4.28-15.002 2.538-3.721-1.376-6.654-4.487-7.396-8.133-.565-3.003-.349-6.267 1.348-8.95 1.944-3.133 5.606-5.246 9.501-5.608zm.348 6.101c-4.428.983-5.626 6.642-2.881 9.641 1.686 1.937 4.86 2.218 7.233 1.306 4.222-1.821 4.418-8.165.502-10.37-1.45-.807-3.234-.836-4.854-.577zM1.45 2.694c.753-.791 1.941-1.06 3.046-1.031 4.302.01 8.605.013 12.908 0 .613.003 1.258.013 1.811.288 2.213 1.11 1.676 5.054-1.066 5.134-3.34.083-6.686 0-10.027.039 0 .704.004 1.411.004 2.118 2.892.116 5.853-.29 8.689.372 4.236 1.248 6.505 5.95 5.23 9.769-.68 2.093-2.32 4.004-4.61 4.75-1.348.397-2.79.378-4.191.38-2.794-.022-5.585.017-8.38-.015-1.142-.07-2.455-.1-3.312-.906-.892-.784-.837-2.004-.871-3.044.01-5.121-.01-10.243.01-15.361.08-.851.02-1.86.76-2.493zM8.127 13.95c-.004 1.664-.004 3.332-.004 4.997 1.92-.049 3.857.128 5.766-.087 2.568-.432 2.457-4.619-.191-4.859-1.85-.138-3.714-.016-5.571-.051zM25.556 1.887c1.637-.531 3.867-.525 5.059.8 1.083 1.722.45 3.816.62 5.701 2.947.17 6.16-.522 8.86.884 3.038 1.606 4.219 5.04 4.153 8.098.017 3.354-2.819 6.753-6.585 7.013-3.265.051-6.533-.003-9.797.025-1.133.007-2.394-.13-3.244-.886-.697-.704-.819-1.71-.829-2.618.004-5.352 0-10.701 0-16.05-.01-1.165.442-2.548 1.763-2.967zm5.675 11.104c0 1.946.007 3.892-.003 5.838 1.41-.006 2.825.08 4.233-.019 2.439-.515 2.895-3.908 1.1-5.278-1.595-.919-3.56-.432-5.33-.541zM47.164 1.897c2.028-.823 5.404-.311 5.644 2.122.066 5.832.004 11.664.031 17.496.063 1.21-.822 2.397-2.114 2.698-1.558.378-3.55.307-4.651-.922-.565-.567-.572-1.376-.572-2.096.021-5.653-.003-11.306.014-16.955-.073-1.015.676-1.934 1.648-2.344zm31.732 1.158c.345-1.002 1.523-1.53 2.613-1.488 4.881-.016 9.759.006 14.64-.01 1.031-.045 2.195.25 2.721 1.14.888 1.411.435 3.783-1.498 4.209-1.55.234-3.136.048-4.7.105-.014 4.735.017 9.465-.014 14.2.007 1.078-.348 2.307-1.519 2.788-1.557.627-3.599.636-4.968-.378-.84-.688-.913-1.786-.94-2.747-.008-4.622.003-9.244-.004-13.863-1.61-.073-3.254.17-4.833-.156-1.71-.477-1.979-2.452-1.498-3.8zm22.643-.598c1.062-.941 2.651-.833 4.017-.897 3.01.052 6.024-.096 9.027.084 2.345.08 4.31 1.571 5.463 3.36 1.589 2.427 1.271 5.49.251 8.054-.92 2.372-3.307 4.267-6.076 4.49-2.028.065-4.059.014-6.084.017-.163 1.763.3 3.626-.407 5.32-.857 1.616-3.153 1.587-4.805 1.318-1.491-.265-2.309-1.654-2.233-2.973-.045-5.234.004-10.467-.021-15.7.018-1.057-.007-2.267.868-3.073zm6.578 3.806c-.004 1.955-.007 3.908.003 5.86 1.732-.121 3.613.34 5.223-.425 1.891-1.322 1.501-4.811-.962-5.359-1.414-.173-2.846-.032-4.264-.077zm46.797-4.366c1.285-.477 2.762-.449 4.051.016a2.6 2.6 0 011.627 2.298c.046 1.997-.006 3.998.018 5.995 1.853-.003 3.707 0 5.56 0 .049-2.004-.097-4.01.091-6.008.059-.944.599-1.94 1.613-2.286 1.411-.518 3.101-.499 4.446.177.916.496 1.299 1.5 1.292 2.435-.003 5.663.007 11.328-.003 16.99.007 1.002-.519 2.075-1.558 2.5-1.369.538-2.996.535-4.351-.035-.868-.384-1.362-1.248-1.422-2.106-.223-2.065-.052-4.145-.104-6.216-1.857-.006-3.711-.006-5.564-.003-.014 1.959.007 3.918-.004 5.88.028 1.079-.651 2.199-1.794 2.57-1.383.445-2.989.429-4.292-.218-.85-.512-1.321-1.45-1.24-2.378.007-5.768-.007-11.536.01-17.3-.035-.977.631-1.95 1.624-2.312zm49.706-.065c1.728-.572 3.933-.272 5.146 1.08 1.794 1.827 3.435 3.776 5.201 5.63 1.732-1.87 3.387-3.803 5.16-5.64 1.387-1.502 3.972-1.72 5.777-.765 1.104.633 1.23 1.952 1.247 3.037 0 5.243.007 10.486-.003 15.73-.004 1.078-.182 2.358-1.3 2.957-1.522.768-3.529.746-5.003-.103-.934-.54-1.097-1.645-1.132-2.567-.011-2.967.007-5.93-.004-8.895-1.575 1.713-3.202 3.39-4.735 5.137-1.588-1.706-3.163-3.428-4.78-5.111-.003 3.057.011 6.117-.003 9.177.014 1.017-.523 2.103-1.582 2.525-1.289.506-2.804.509-4.111.045-1.104-.387-1.718-1.505-1.63-2.554.01-5.762-.004-11.524.007-17.285-.053-1.047.661-2.052 1.745-2.398zm-76.255 12.897c3.206-.868 6.798 1.462 7.021 4.513.414 3.191-3.056 6.11-6.474 5.505-2.912-.358-5.187-3.07-4.703-5.752.275-2.02 2.014-3.777 4.156-4.266zm-.714-13.184c3.122-1.313 7.108.713 7.655 3.799.69 2.862-1.875 5.858-5.028 6.04-2.696.275-5.424-1.527-5.978-3.97-.659-2.365.885-5.002 3.351-5.87zm14.26.003c3.066-1.284 6.989.615 7.623 3.64.86 3.018-1.976 6.219-5.327 6.215-2.843.132-5.522-2.032-5.763-4.631-.275-2.2 1.251-4.408 3.467-5.224zm1.077 13.107c3.498-.746 7.149 2.25 6.661 5.538-.258 2.95-3.651 5.22-6.78 4.5-2.794-.496-4.888-3.163-4.39-5.758.328-2.107 2.234-3.899 4.509-4.28z" fill="#00F0FF"/></svg>