<svg width="186" height="59" fill="none" xmlns="http://www.w3.org/2000/svg"><g clip-path="url(#clip0)"><path d="M97.349 10.167h2.09l-4.702 7.176v.215l4.702 8.916h-2.09l-4.263-8.153h-1.31v8.153h-1.915V10.167h1.915v6.39h1.31c.07 0 3.841-5.674 4.263-6.39zm9.798 9.895c-.071.072-.071.072-.211.072h-.071c-.07 0-.07 0-.07-.072l-.07-.072c0-.071-.07-.071-.07-.142l-2.514-9.68h-2.264l2.96 11.166c0 .143.201.302.412.445.21.144.421.215.632.215h.703l-1.195 4.508 2.061-.028 4.353-16.307h-2.09l-2.566 9.895zm49.806-.017c-.07.072-.07.072-.211.072h-.07c-.07 0-.07 0-.07-.072l-.071-.072c0-.07-.07-.07-.07-.142l-2.514-9.664h-2.264l2.961 11.147c0 .144.2.302.411.445.211.143.422.215.633.215h.703l-1.196 4.5 2.061-.028 4.354-16.279h-2.09l-2.567 9.878zm-42.705 5.01v1.596h.281c.703 0 1.265-.006 1.828-.149.562-.143.984-.358 1.406-.572.484-.342 1.006-1.051 1.354-2.115l.523-11.875h3.309v14.562h1.915V10.167s-4.57-.071-6.187 0c-.211 0-.742.174-.953.532-.281.644-.348 2.127-.312 2.136l-.384 10.803c0 .143-.179.43-.249.574-.071.143-.211.215-.422.358-.211.072-.422.215-.703.215-.281.071-.703.27-1.125.27h-.281zm23.155-8.284c0-.573-.236-1.002-.657-1.36a2.293 2.293 0 00-1.547-.572c-.281 0-2.421.5-3.195.715v-5.387h-2.089v13.83c0 .358.081.716.222 1.074.14.357.351.644.633.859.281.214.562.43.914.572.351.143.773.149 1.195.149h1.406c.422 0 .844-.006 1.195-.149.352-.143.703-.358.914-.572.282-.215.492-.573.633-.859.14-.358.368-.724.368-1.074l.008-7.226zm-2.063 7.226c0 .287-.071.501-.282.645-.14.143-.422.237-.702.237h-1.407c-.281 0-.562-.094-.703-.237a.898.898 0 01-.242-.645v-6.582c.774-.215 2.843-.644 2.984-.644.07 0 .141.071.211.215.07.142.07.357.07.643l.071 6.368zm13.731-12.057v-1.773h-8.177v1.773h3.127v14.534h2.089V11.94h2.961zm16.37 14.534h2.047v-7.01h2.472a3.95 3.95 0 001.27-.213 2.65 2.65 0 001.059-.644c.282-.286.495-.572.706-.93.141-.358.283-.715.283-1.144v-3.576c0-.43-.071-.787-.283-1.145-.141-.357-.424-.643-.706-.858a3.718 3.718 0 00-1.059-.572 3.937 3.937 0 00-1.27-.215h-4.519v16.307zm4.56-14.498c.351 0 .632.072.843.287.211.143.352.43.352.716v3.577c0 .358-.141.572-.352.787-.211.215-.492.286-.843.286h-2.461v-5.724h2.461v.071zm15.467 14.498l-2.947-15.77c0-.143-.14-.357-.35-.5a1.124 1.124 0 00-.632-.214h-1.965c-.21 0-.42.071-.631.214-.21.143-.281.285-.351.5l-2.876 15.77h2.034l.772-3.925h4.139l.772 3.925h2.035zm-3.093-5.768h-3.586l1.476-8.586c0-.072 0-.072.071-.144 0-.071.07-.071.14-.071h.07c.071 0 .141.071.211.143 0 .072.071.072.071.143l1.547 8.515zm-79.802 27.746h2.047v-7.009h2.471c.424 0 .848-.071 1.271-.214a2.66 2.66 0 001.06-.644c.282-.286.494-.572.705-.93.142-.358.283-.715.283-1.144v-3.576c0-.429-.071-.787-.283-1.144-.141-.358-.423-.644-.705-.859a3.739 3.739 0 00-1.06-.572 3.955 3.955 0 00-1.271-.214h-4.518v16.306zm4.503-14.58c.352 0 .633.072.844.286.211.143.352.43.352.716v3.578c0 .358-.141.572-.352.786-.211.215-.492.287-.844.287h-2.46V33.8h2.46v.072zm13.609.125v-1.851h-6.444v16.306h6.444v-1.851h-4.412v-6.195h3.851v-1.852h-3.851v-4.557h4.412zm10.143-2.029v6.45h-3.742v-6.45h-2.048V48.38h2.048v-8.098h3.742v8.17h2.047V31.968h-2.047zm16.153 16.412V31.968h-2.052v.646l-4.602 10.75V31.968h-2.053V48.38h2.053v-.644l4.602-10.751v11.467h2.052v-.072zm12.539-16.412h-4.458a3.85 3.85 0 00-1.254.215c-.418.143-.697.358-1.045.572-.279.215-.488.572-.697.858-.139.358-.278.716-.278 1.145l-.07 3.576c0 .357.07.715.209 1.072.139.358.348.644.627.859.278.286.557.5.905.643.349.143.697.286 1.115.286l-3.065 7.08h2.02l3.065-7.008h.766l.07 7.009h1.95l.14-16.307zm-1.893 1.904l-.071 5.653h-2.46c-.352 0-.633-.072-.844-.287-.211-.214-.352-.5-.352-.786l.071-3.578c0-.286.14-.573.351-.716.211-.143.492-.286.844-.286h2.461zm-58.916 8.191c0-.644-.351-1.144-.913-1.501a4.658 4.658 0 01-.773-.5c.07-.072.07-.143.14-.143 1.054-.429 1.405-1.286 1.405-2.287 0-.786.07-1.572 0-2.358-.07-.5-.21-1.072-.421-1.5-.703-1.359-2.037-1.645-3.442-1.788a4.812 4.812 0 00-2.247.358c-.914.357-1.686.929-2.108 1.858-.28.643-.28 1.358-.28 2.001h1.966v-.643c0-.715.28-1.358 1.054-1.5.632-.144 1.334-.144 1.967-.144.912.072 1.474.643 1.474 1.5v2.216c0 .43-.14.787-.491 1.072-.492.429-1.124.5-1.686.5h-1.264c-.07 0-.281.143-.281.215v1.5h.562c.772.072 1.545.072 2.248.143.632.072 1.053.572 1.123 1.144.07.929 0 2.212 0 3.14 0 .5-.28.787-.702 1.002-.913.5-1.897.428-2.81.285-1.124-.214-1.475-.643-1.404-1.93v-.714H89.86v1.429c0 .858.422 1.644 1.124 2.144.703.572 1.546.786 2.459.858 1.264.071 2.458.071 3.582-.5.983-.5 1.615-1.216 1.686-2.287.07-1 0-2.427 0-3.57zm-35.927-27.51c-.422-.358-.774-.43-1.055-.43-.281 0-.492.072-.563.143a2.33 2.33 0 00-.562.43c-1.054 1.002-3.023 3.076-5.273 5.51-3.937 4.15-8.789 9.302-12.163 12.593-1.898 1.789-3.726 2.719-5.414 2.719-1.335 0-3.936-1.36-5.061-2.29-1.266-1.073-4.711-4.365-4.781-4.365h-.07l.07-.071s2.109-1.503 5.554-4.15c1.687-1.288 2.953-1.79 4.288-1.79 1.477 0 2.813.43 4.008 1.289.07.071.14.071.21.143.071 0 .141.071.212.143l2.18-2.218h-.07c-.282-.286-.282-.286-.352-.286-.071 0-.141-.072-.563-.358-1.617-1.145-3.796-1.86-5.695-1.86-1.687 0-3.375.643-5.414 2.074-1.968 1.36-7.452 6.154-7.522 6.226-.282.286-.422.644-.492 1.073 0 .286 0 .572.351 1.002.07.071 6.68 6.225 7.453 6.654.14.072.351.215.492.358 1.195.787 2.672 1.718 4.992 1.718 2.742 0 5.694-1.79 7.312-3.364 1.827-1.86 8.085-8.443 11.67-12.235l6.328-6.583c.14-.072.984-1.145-.07-2.076zm6.89 8.156c.21-.357.28-.572.21-1.001-.14-.715-.773-1.288-1.476-1.288-.211 0-.633.143-1.125.5-1.898 2.004-3.585 3.793-4.992 5.367-9.42 9.947-9.983 10.519-12.936 13.166-4.64 4.079-7.452 6.01-11.32 6.01-3.796 0-6.89-2.432-9.983-4.722-.21-.143-.492-.358-.703-.5-5.624-4.294-11.6-11.163-11.6-11.234l-.07-.144.07-.071s1.476-1.932 3.726-4.15c2.812-2.863 5.835-5.582 8.225-7.514 3.375-2.647 6.961-4.078 10.406-4.15h.07c4.008 0 7.875 1.574 10.687 4.437l2.11-2.218c-3.235-3.506-7.524-5.295-12.937-5.295-4.008 0-7.804 1.502-12.304 4.937-2.812 2.147-5.203 4.293-7.452 6.51-1.969 2.005-3.586 3.794-4.852 5.367-.14.215-.28.358-.421.573-.422.501-.774.93-.985 1.36-.14.358-.07 1.216.282 1.502.28.215.914.859 1.828 1.79 3.304 3.219 10.124 9.945 12.444 11.59 5.483 4.008 7.593 4.938 11.46 5.08h.351c5.133 0 9-3.362 12.093-6.01l.562-.429c4.852-4.293 14.905-15.455 15.046-15.598l.281-.287v.072c.703-.716 2.742-2.862 3.305-3.65zm6.468 5.796c0-.858-.703-1.574-1.477-1.574-.351 0-.843.072-1.195.501-.844.859-2.25 2.433-4.078 4.437-4.78 5.295-12.022 13.309-15.748 16.386-5.133 4.221-10.687 6.582-15.679 6.582h-.35c-5.977-.143-11.18-2.432-15.328-6.797C15.96 41.385 3.656 28.863 3.586 28.72l-.07-.071.07-.072c.14-.143 14.764-15.384 18.631-18.819 4.57-4.078 10.265-6.44 15.678-6.44h.07c7.593.072 11.952 1.932 17.155 7.514l2.18-2.218C52.308 2.818 46.332.242 37.965.242c-7.452 0-11.249 2.504-14.623 4.722-2.46 1.574-7.382 6.226-7.453 6.297-3.515 3.506-11.882 12.45-14.624 15.384-.562.573-.773.787-.773.859-.351.358-.492.715-.492 1.145 0 .358.14.643.422 1.001 0 0 .281.287.984 1.074 9.984 10.59 15.538 16.457 16.663 17.53l.14.144C22.99 52.977 28.474 58.2 37.684 58.2c9.703 0 17.155-6.296 20.81-10.017 5.836-6.082 17.296-18.747 17.366-18.89.141-.143.282-.501.282-.788z" fill="#00F0FF"/></g><defs><clipPath id="clip0"><path fill="#fff" transform="translate(0 .242)" d="M0 0h185.468v57.959H0z"/></clipPath></defs></svg>