<svg width="123" height="64" fill="none" xmlns="http://www.w3.org/2000/svg"><path d="M53.1 4.838c3.112-1.81 6.245-3.82 9.83-4.52-7.177 6.422-14.714 12.439-21.78 18.984-2.463 2.25-4.886 4.538-7.354 6.783.239 6.741-.7 13.694-3.847 19.74-2.095 4.034-5.38 7.508-9.495 9.511C22.636 48.804 24.479 41.943 23.96 35 15.802 43.78 8.973 53.68 2.339 63.626.716 61.89.08 59.464.102 57.14c-.09-3.25 1.12-6.362 2.62-9.19 2.446-4.502 5.758-8.465 9.249-12.193 3.4-3.542 6.965-6.93 10.714-10.105-.393-3.553-1.122-7.119-2.614-10.388-.91-1.918-2.229-3.945-4.392-4.563-2.211-.544-4.456.555-6.034 2.046-2.164 2.088-3.617 4.8-4.679 7.586l-.923-.431c.91-3.6 2.342-7.092 4.395-10.195 1.841-2.75 4.335-5.213 7.49-6.385 2.827-1.047 6.175-1.175 8.832.403 2.879 1.713 4.704 4.698 5.963 7.717.952 2.307 1.6 4.73 2.04 7.186a253.005 253.005 0 0120.336-13.79zm30.814 17.09c.598-3.189 3.351-5.985 6.68-6.16 2.191-.079 4.389-.008 6.586-.032-.265 1.572-.545 3.142-.823 4.709-1.573.013-3.147-.021-4.718.005-.975-.029-1.903.508-2.436 1.308-.606.86-.684 1.936-.87 2.938 2.31.002 4.62-.005 6.93.002a572.098 572.098 0 00-.82 4.699c-2.295.018-4.592.002-6.887.008-.742 4.402-1.455 8.81-2.22 13.21-1.63-.003-3.258.005-4.886-.005 1.146-6.896 2.266-13.797 3.464-20.682zm17.787-6.006c1.204-.447 2.843-.215 3.485 1.017.823 1.539-.173 3.472-1.665 4.168-1.29.711-3.268.51-3.957-.929-.813-1.695.467-3.704 2.137-4.256zm4.699 19.036c1.154-6.412 2.324-12.818 3.493-19.227 1.634.008 3.265.002 4.896.008-.54 2.984-1.086 5.97-1.631 8.954 2.444.005 4.891 0 7.337.003-.249 1.57-.506 3.139-.76 4.708h-7.432c-.349 1.837-.679 3.673-1.041 5.507-.131.772-.244 1.69.32 2.328.367.466.965.675 1.547.665 1.728.018 3.456-.008 5.187 0-.273 1.572-.551 3.144-.826 4.719-2.245-.09-4.516.18-6.739-.21-1.623-.303-3.247-1.195-3.994-2.723-.721-1.465-.653-3.17-.357-4.732zM55.884 24.696c1.83 0 3.658-.003 5.489.002.697 1.703 1.405 3.404 2.11 5.107 1.351-1.677 2.623-3.414 3.947-5.112 1.956.005 3.913 0 5.869.005a3341.544 3341.544 0 00-7.018 8.722c1.414 3.06 2.82 6.124 4.215 9.192-1.917.006-3.834.006-5.751-.002-.727-1.81-1.432-3.628-2.164-5.439-1.447 1.808-2.86 3.64-4.303 5.45-2.027-.011-4.054-.003-6.081-.006 2.525-3.068 5.048-6.14 7.56-9.218-1.311-2.891-2.585-5.8-3.873-8.701zm43.114 0c1.633 0 3.267 0 4.901.002-1.091 5.973-2.187 11.945-3.281 17.917-1.631 0-3.262.005-4.893-.005 1.08-5.972 2.19-11.942 3.273-17.914z" fill="#00F0FF"/><path d="M74.151 30.547c1.34-.59 3.1-.067 3.708 1.306.787 1.73-.535 3.845-2.342 4.175-1.416.392-3.157-.4-3.503-1.886-.362-1.533.724-3.071 2.137-3.595zm46.42 9.46c.965-.285 1.938.683 1.626 1.645-.168.94-1.429 1.28-2.134.71-.845-.61-.559-2.183.508-2.355zm.488 2.25l.202-.019c.889-.45.564-2.069-.54-1.852-1.086.257-.792 1.97.338 1.87z" fill="#00F0FF"/><path d="M120.472 40.64c.233.013.705.034.941.047.081.644-.294 1.146-.905 1.324a78.378 78.378 0 01-.036-1.371zm.333.35c.128.15.128.15 0 0zm-43.321 7.228c.986-.392 2.053-.07 2.997.288l-.54.892c-.863-.429-2.63-.727-2.64.688.684.788 2.053.523 2.624 1.47.49.898-.086 1.983-.957 2.376-1.18.528-2.593.298-3.613-.471.21-.262.417-.52.63-.777.626.306 1.292.688 2.02.536.536-.042 1.189-.62.89-1.182-.724-.576-1.841-.48-2.444-1.23-.611-.939.005-2.268 1.033-2.59zm5.336.123c1.039-.554 2.282-.261 3.294.21a24.4 24.4 0 00-.6.855c-.845-.474-2.523-.688-2.61.649.596.782 1.823.56 2.486 1.279.464.599.451 1.535-.115 2.066-1.099 1.193-3.095.987-4.306.069.215-.265.433-.524.65-.785.703.382 1.534.787 2.337.429.467-.118.543-.652.755-1.007-.766-.463-1.683-.592-2.439-1.057-.85-.782-.396-2.221.548-2.708zm31.576-.12c.991-.392 2.077-.1 3.013.304l-.548.889c-.693-.246-1.521-.64-2.216-.196-.401.193-.561.774-.207 1.088.734.453 1.738.432 2.336 1.112.456.683.27 1.68-.383 2.176-1.161.979-2.952.728-4.111-.128.217-.259.437-.518.66-.774.876.578 2.502.976 2.987-.27-.314-1.109-1.927-.716-2.541-1.606-.642-.939.011-2.234 1.01-2.595zm-64.598 5.972c.403-2.004.784-4.013 1.18-6.02 1.345 0 2.693 0 4.04-.002-.033.228-.107.686-.144.913-1.001.005-2.006.008-3.007.003-.105.544-.213 1.088-.32 1.632.868.005 1.736.005 2.604.005l-.142.895c-.878.021-1.76.026-2.638.024-.17.85-.34 1.7-.506 2.553-.357-.003-.713-.003-1.067-.003zm6.732-6.009c.356-.005.71-.01 1.069-.013-.375 2.007-.784 4.01-1.167 6.017-.354.003-.71.003-1.065.005.38-2.004.792-4.002 1.162-6.009zm2.52-.01c1.455-.003 2.907 0 4.36-.003-.034.228-.107.686-.144.913l-1.668.008c-.34 1.703-.655 3.411-.994 5.112-.359-.016-.716-.032-1.072-.042.338-1.69.666-3.377.983-5.07l-1.628-.008c.042-.227.123-.683.162-.91zm5.56-.003l1.003.008c.632 1.37 1.25 2.744 1.883 4.112.272-1.37.53-2.744.791-4.114.352-.003.706-.003 1.06-.003-.388 2.004-.771 4.01-1.146 6.02-.328 0-.656-.003-.983 0-.638-1.382-1.272-2.76-1.907-4.142-.262 1.384-.527 2.765-.795 4.149a69.491 69.491 0 00-1.04-.016c.356-2.009.76-4.007 1.135-6.014zm5.296 6.017c.38-2.01.77-4.016 1.177-6.02 1.34.008 2.68.006 4.02.003a59.49 59.49 0 00-.181.918h-2.96c-.103.524-.203 1.044-.3 1.57.868 0 1.736 0 2.604-.005-.068.327-.136.656-.202.986h-2.606c-.1.523-.197 1.046-.296 1.57h3.18c-.057.326-.112.65-.165.98-1.424 0-2.848.003-4.272-.002zm21.23-5.648c1.038-.722 2.447-.5 3.482.123-.217.272-.432.545-.647.817-.714-.34-1.763-.733-2.334.047-.433.968-.69 2.082-.609 3.141.496.934 1.679.45 2.431.155.113.212.341.63.457.842-1.094.654-2.722.89-3.664-.141-.624-.662-.29-1.617-.165-2.396.215-.898.254-1.975 1.049-2.588zm5.042-.369l1.063.008c-.323 1.677-.67 3.351-.979 5.03h3.058a53.66 53.66 0 00-.186.987c-1.374-.008-2.748-.003-4.12-.005.365-2.01.782-4.013 1.165-6.02zm4.561 4.251c.141-1.43.522-2.828.765-4.245.271 0 .811-.003 1.081-.006-.228 1.42-.671 2.81-.776 4.246.128 1.237 2.071.997 2.315-.06.422-1.363.569-2.791.873-4.183.36 0 .724 0 1.086.002-.304 1.41-.511 2.839-.844 4.244-.263 1.153-1.451 1.948-2.62 1.778-.962.034-2.004-.742-1.88-1.776zm5.701 1.766c.398-2.004.776-4.01 1.18-6.011 1.101.057 2.257-.168 3.325.146 1.169.604.815 2.229-.179 2.823.111.102.326.303.436.403.136.92-.071 2.02-1.031 2.409-1.183.455-2.494.154-3.731.23zm2.076-5.122c-.104.51-.207 1.023-.309 1.536.509-.003 1.02.01 1.529-.037.558-.013 1.046-.678.687-1.185-.546-.408-1.275-.254-1.907-.314zm-.82 4.16c.676-.05 1.416.094 2.048-.215.516-.272.333-.887.288-1.342a36.221 36.221 0 00-1.993-.12c-.118.56-.233 1.117-.343 1.676z" fill="#00F0FF"/></svg>