<svg width="230" height="45" fill="none" xmlns="http://www.w3.org/2000/svg"><path d="M84.38 21.586h-3.025v-5.768h-6.35v5.768h-3.026V7.57h3.026v5.673h6.35V7.57h3.026v14.016zm11.052-10.178h2.825v10.179h-2.825l-.1-1.43h-.1s-1 1.74-3.526 1.74c-2.825 0-5.125-2.217-5.125-5.388 0-3.17 2.325-5.387 5.125-5.387 2.525 0 3.526 1.74 3.526 1.74h.1l.1-1.454zm-2.926 2.217c-1.6 0-2.925 1.144-2.925 2.884s1.3 2.884 2.925 2.884c1.5 0 2.826-1.144 2.826-2.884s-1.325-2.884-2.826-2.884zm8.376 7.961V11.408h2.925v7.675h4.326v-7.675h2.925v7.675h1.6v5.102h-2.925v-2.599h-8.851zm17.377 0h-3.576V11.408h2.901v6.865l4.175-6.865h3.576v10.178h-2.926v-6.865l-4.15 6.865zm15.052.286c-3.625 0-5.95-2.312-5.95-5.387 0-3.075 2.325-5.387 5.95-5.387 3.626 0 5.951 2.312 5.951 5.387 0 3.075-2.325 5.387-5.951 5.387zm0-2.503c1.601 0 2.926-1.144 2.926-2.884s-1.3-2.884-2.926-2.884c-1.625 0-2.925 1.144-2.925 2.884s1.325 2.884 2.925 2.884zm10.877-1.716v3.933h-2.925V11.408h2.925v3.742h4.626v-3.742h2.925v10.178h-2.925v-3.933h-4.626zm18.476-6.245h2.825v10.179h-2.825l-.1-1.43h-.1s-1 1.74-3.525 1.74c-2.826 0-5.126-2.217-5.126-5.388 0-3.17 2.325-5.387 5.126-5.387 2.525 0 3.525 1.74 3.525 1.74h.1l.1-1.454zm-2.925 2.217c-1.6 0-2.926 1.144-2.926 2.884s1.301 2.884 2.926 2.884c1.5 0 2.825-1.144 2.825-2.884s-1.3-2.884-2.825-2.884zm12.303 3.027c-.325 3.361-1.601 4.6-4.426 4.887l-.5-2.503c1.15-.096 1.875-.763 2.025-2.408l.55-5.244h8.651v10.203h-2.925v-7.772h-3.025l-.35 2.837zm9.102-5.244h2.925v3.075h2.025c2.825 0 4.326 1.43 4.326 3.552 0 2.121-1.501 3.551-4.326 3.551h-4.925V11.408h-.025zm4.75 7.866c1 0 1.6-.477 1.6-1.24 0-.762-.6-1.24-1.6-1.24h-1.825v2.504h1.825v-.024zm9.45-1.621v3.933h-2.925V11.408h2.925v3.742h4.625v-3.742h2.926v10.178h-2.926v-3.933h-4.625zm18.751-6.245h2.825v10.179h-2.825l-.1-1.43h-.1s-1 1.74-3.526 1.74c-2.825 0-5.125-2.217-5.125-5.388 0-3.17 2.325-5.387 5.125-5.387 2.526 0 3.526 1.74 3.526 1.74h.1l.1-1.454zm-2.926 2.217c-1.6 0-2.925 1.144-2.925 2.884s1.3 2.884 2.925 2.884c1.501 0 2.826-1.144 2.826-2.884s-1.325-2.884-2.826-2.884zm8.227 1.239c0-2.026 1.501-3.457 4.126-3.457h5.576v10.18h-2.926V18.32h-1.55l-2.85 3.266h-3.476l3.326-3.551v-.096s-2.226-.667-2.226-3.075zm4.626-1.24c-1 0-1.6.477-1.6 1.24s.6 1.24 1.6 1.24h2.125v-2.48h-2.125zM75.105 35.437c-.325 3.36-1.6 4.6-4.426 4.887l-.5-2.503c1.15-.096 1.875-.763 2.025-2.408l.5-5.578h8.652v10.179H78.43v-7.772h-3.025l-.3 3.195zm14.5 4.886c-3.625 0-5.95-2.312-5.95-5.387 0-3.075 2.325-5.388 5.95-5.388 3.626 0 5.951 2.313 5.951 5.388 0 3.099-2.325 5.387-5.95 5.387zm0-2.479c1.6 0 2.926-1.144 2.926-2.884s-1.3-2.885-2.926-2.885c-1.6 0-2.925 1.144-2.925 2.885.025 1.716 1.325 2.884 2.925 2.884zm6.953-5.483v-2.503h9.976v2.503h-3.525v7.676h-2.926V32.36h-3.525zm21.927 2.408v.763h-8.151c.2 1.335 1.3 2.384 3.325 2.384 2.626 0 3.726-1.145 3.726-1.145h.3v2.408s-1.6 1.144-4.326 1.144c-3.425 0-5.75-2.217-5.75-5.387 0-3.075 2.425-5.388 5.65-5.388 3.226.024 5.226 1.955 5.226 5.22zm-8.051-1.049h5.351c0-.953-.901-1.74-2.326-1.74-1.725 0-2.725.858-3.025 1.74zm13.252 10.99h-2.926V29.857h2.826l.1 1.43h.1s1-1.74 3.525-1.74c2.826 0 5.126 2.217 5.126 5.388 0 3.17-2.325 5.387-5.126 5.387-2.525 0-3.525-1.74-3.525-1.74h-.1v6.126zm2.825-6.866c1.6 0 2.926-1.144 2.926-2.884s-1.301-2.885-2.926-2.885c-1.5 0-2.825 1.144-2.825 2.885 0 1.716 1.325 2.884 2.825 2.884zm18.502-3.075v.763h-8.176c.2 1.335 1.301 2.384 3.326 2.384 2.625 0 3.725-1.145 3.725-1.145h.3v2.408s-1.6 1.144-4.325 1.144c-3.426 0-5.751-2.217-5.751-5.387 0-3.075 2.425-5.388 5.651-5.388 3.225.024 5.25 1.955 5.25 5.22zm-8.076-1.049h5.351c0-.953-.9-1.74-2.325-1.74-1.7 0-2.701.858-3.026 1.74zm10.052-.405c0-2.027 1.5-3.457 4.125-3.457h5.551v10.179h-2.926V36.77h-1.55l-2.85 3.266h-3.476l3.326-3.552v-.095c.025 0-2.2-.668-2.2-3.075zm4.65-1.24c-1 0-1.6.477-1.6 1.24 0 .762.6 1.24 1.6 1.24h2.125v-2.48h-2.125zM35.724 41.6c-4.659 2.568-10.105 3.515-15.413 2.68-5.307-.836-10.147-3.403-13.697-7.264l37.9-25.283c2.902 5.09 3.607 11.062 1.965 16.642-1.642 5.58-5.502 10.325-10.755 13.224zm12.169-28.33a21.774 21.774 0 012.152 4.781 9.008 9.008 0 002.2-5.95c-.017-2.168-.83-4.261-2.298-5.915s-3.497-2.763-5.733-3.135a10.08 10.08 0 00-6.503 1.1c-.05.027-.099.058-.149.089C33.555 1.516 28.748.077 23.832.127c-4.917.051-9.69 1.59-13.635 4.395C6.253 7.327 3.341 11.255 1.88 15.74a21.276 21.276 0 00.184 13.747l41.868-18.72a22.352 22.352 0 00-3.076-3.805l.827-.37a22.456 22.456 0 016.21 6.679z" fill="#00F0FF"/></svg>