<svg width="77" height="73" fill="none" xmlns="http://www.w3.org/2000/svg"><g clip-path="url(#clip0)" fill="#00F0FF"><path d="M33.564 1.288c8.817-1 17.942 1.473 25.05 6.783a27.461 27.461 0 001.67-1.658c-1.561-1.193-3.226-2.237-4.94-3.19-.002-.441-.002-.882 0-1.323 5.582-.002 11.164-.002 16.746 0 .002 5.584-.003 11.169.002 16.753-.452.005-.902.007-1.35.005-.913-1.75-2.015-3.395-3.184-4.981-.56.563-1.13 1.125-1.693 1.689 5.94 7.82 8.298 18.223 6.392 27.852-1.587 8.602-6.563 16.504-13.576 21.717-8.453 6.45-19.911 8.652-30.173 5.926-8.144-2.07-15.433-7.213-20.2-14.122-3.254-4.67-5.362-10.143-6.032-15.797-1.234-9.38 1.535-19.206 7.49-26.553 5.781-7.29 14.538-12.143 23.798-13.101zm-6.062 10.47c-7.845 3.1-13.993 10.143-15.964 18.354 17.272.007 34.541.004 51.814.002-2.074-8.663-8.815-16.017-17.26-18.834-5.982-2.07-12.72-1.895-18.59.478zm-.554 21.509c-.97.234-1.916.742-2.505 1.566-.684 1.023-.67 2.455-.007 3.482.724.986 1.906 1.55 3.105 1.675 1.57.202 3.305.058 4.606-.928 1.512-1.085 1.612-3.598.192-4.8-1.477-1.243-3.573-1.357-5.391-.995zm29.451 0a4.766 4.766 0 00-2.105 1.076c-1.183 1.107-1.216 3.146-.137 4.336.853.884 2.087 1.293 3.293 1.365 1.423.093 2.98-.075 4.134-.993 1.556-1.088 1.61-3.738.077-4.87-1.459-1.176-3.495-1.262-5.262-.914zm-44.588.972c.508.002 1.016.002 1.522.007 1 1.884 2.075 3.726 3.063 5.614 1.187.014 2.375-.004 3.56.014a239.59 239.59 0 003.042-5.63c.52 0 1.04-.007 1.559-.033l-.007-.97c-1.53.003-3.061-.004-4.592.005l-.002.993c.44.002.881.002 1.32.01-.687 1.394-1.503 2.718-2.195 4.113-.779-1.358-1.472-2.764-2.267-4.111.535-.01 1.07-.01 1.607-.012 0-.334 0-.668.002-1-2.203.007-4.409.002-6.612.002v.998zm21.943-.99l-.007.967c.517.023 1.037.028 1.556.03.002 1.529-.002 3.06.005 4.591-.52 0-1.04-.002-1.556 0v1.016c3.06.005 6.12 0 9.18.003 0-1.014-.002-2.028.003-3.042l-.967-.002c-.116.647-.33 1.385-.967 1.7-.802.485-1.776.288-2.662.323-.005-1.531 0-3.063-.003-4.594h1.535c0-.334 0-.668.003-1-2.04.005-4.082-.007-6.12.007zm7.514-.008c-.003.332-.003.666 0 .998.503.002 1.008.002 1.516.007 1.002 1.881 2.053 3.737 3.068 5.614 1.188.014 2.373 0 3.56.01 1.013-1.872 2.052-3.73 3.03-5.622a38.423 38.423 0 001.552-.037c-.002-.322-.007-.645-.007-.967-1.526 0-3.052-.005-4.575.002-.002.332-.005.661-.002.993.44.002.88.002 1.324.01-.724 1.384-1.503 2.744-2.222 4.134-.71-1.397-1.493-2.757-2.24-4.132.54-.01 1.083-.01 1.623-.012l.003-1.002c-2.21.011-4.42.002-6.63.004zM11.53 42.967c.364 1.378.772 2.745 1.368 4.041 3.221 7.745 10.336 13.698 18.508 15.55 5.104 1.15 10.563.848 15.456-1.035 8.096-2.982 14.473-10.165 16.49-18.556-17.273-.005-34.548-.007-51.822 0z"/><path d="M27.887 34.39c.645-.485 1.667-.234 2.015.494.524 1.04.494 2.336-.028 3.373-.354.699-1.342 1.019-1.992.527-.733-.471-.858-1.43-.893-2.225.038-.784.21-1.689.898-2.17zm29.597-.112c.698-.357 1.63.005 1.925.727.42.955.401 2.1.005 3.06-.283.735-1.201 1.192-1.939.83-.84-.429-1.025-1.487-1.03-2.34.012-.838.249-1.843 1.04-2.277z"/></g><defs><clipPath id="clip0"><path fill="#fff" transform="translate(.876 .75)" d="M0 0h75.792v71.334H0z"/></clipPath></defs></svg>