<svg width="250" height="48" fill="none" xmlns="http://www.w3.org/2000/svg"><path d="M5.404 7.894C6.718 5.372 9.5 3.643 12.38 3.74c2.239.086 4.5-.176 6.719.169.791.531 1.54 1.295 1.598 2.297.202 1.535-1.13 3.087-2.7 3.073-2.054.017-4.11-.003-6.167.007-.845.367-1.65 1.082-1.64 2.07-.017 6.207 0 12.414-.007 18.623-.017 3.02 1.665 5.916 4.21 7.537.48.28.976.53 1.469.786.55.189 1.11.346 1.659.532 1.408.264 2.862.281 4.273.007 4.011-.854 7.32-4.483 7.394-8.619.012-8.825.002-17.652.005-26.477 4.746-.005 9.49.002 14.236-.005.846-.012 1.682.117 2.518.225 3.37.806 6.324 3.056 7.934 6.112.527 1.03.902 2.128 1.183 3.25.247 1.633.242 3.303.013 4.938-.175.551-.316 1.114-.466 1.673a14.074 14.074 0 013.447 4.615c.584 1.332.993 2.73 1.215 4.168.096 1.234.113 2.476-.017 3.71-.146.47-.18.962-.269 1.444-.434 1.565-1.063 3.08-1.938 4.454-.276.385-.552.77-.836 1.149a14.6 14.6 0 01-5.658 4.172c-1.492.534-3.05.97-4.648.958-3.282-.013-6.563.014-9.843-.015-1.084-.054-1.876-.923-2.342-1.822-.086-.673-.093-1.359.064-2.022.5-.926 1.403-1.653 2.49-1.7 3.137-.036 6.273-.002 9.41-.014 2.462-.044 4.827-1.337 6.299-3.282 1.96-2.536 2.273-6.138.902-9.015-.772-1.528-1.982-2.846-3.489-3.686-.54-.347-1.121-.79-1.25-1.457-.236-.813.094-1.655.54-2.333.811-1.288 1.107-2.843 1.004-4.347l-.123-.014c-.235-2.637-2.36-4.902-4.932-5.507-.554-.103-1.122-.12-1.686-.115-2.73.017-5.459-.01-8.188.014 0 7.214.002 14.428-.003 21.642-.278 5.639-4.314 10.756-9.603 12.703-4.305 1.64-9.325 1.214-13.295-1.114-3.774-2.192-6.457-6.073-7.155-10.36a10.86 10.86 0 01-.133-1.697c.003-5.955 0-11.908 0-17.863.005-.977-.057-1.964.153-2.924.2-.604.422-1.202.678-1.787zm178.552 1.893c1.218-.03 2.069-.982 2.942-1.697.369.367.818.656 1.146 1.07.057.367-.308.595-.491.862-.961 1.092-2.295 2.05-3.826 1.949-1.595-.012-2.855-1.166-3.785-2.334a13.036 13.036 0 01-.029-.44c.3-.287.594-.58.88-.882.118-.017.352-.056.471-.076.744.722 1.595 1.484 2.692 1.548zm13.511-.473c3.006.015 6.011-.02 9.017.017.029.901.027 1.802.01 2.706-2.207.073-4.416.015-6.623.032-.002.85-.005 1.7.01 2.549 1.672.051 3.363-.128 5.025.147.969.35 2.017.774 2.559 1.709 1.004 1.626.972 3.808-.076 5.409-.969 1.131-2.389 1.944-3.916 1.9-2.174-.032-4.354.08-6.521-.066-.192-.416-.333-.86-.311-1.322.008-3.886-.017-7.775.013-11.66-.077-.625.283-1.127.813-1.421zm2.402 11.712c1.203-.05 2.423.095 3.619-.081 1.462-.313 1.741-2.324.765-3.296-1.354-.71-2.925-.35-4.382-.438-.002 1.27 0 2.542-.002 3.815zM79.899 9.31c1.104-.045 2.209-.023 3.313-.02.814 1.954 1.467 3.969 2.207 5.95.222.727.478 1.44.725 2.157.883-2.698 1.664-5.428 2.643-8.093a57.7 57.7 0 013.383.003c-.39 1.288-.903 2.534-1.344 3.805-.735 2.045-1.521 4.07-2.207 6.129a96.014 96.014 0 00-.996 2.703c-.338.61-.69 1.259-1.309 1.633-1.082.735-2.468.63-3.715.58-.452-.131-.903-.259-1.332-.452.047-.27.094-.539.145-.808.102-.485.208-.97.333-1.45.977.076 2.027.28 2.925-.232.234-.515.448-1.036.626-1.575a42.128 42.128 0 01-1.243-.071c-1.13-2.25-1.923-4.655-2.929-6.961-.397-1.105-.971-2.148-1.225-3.299zm12.927 4.431c1.482-.788 3.193-.996 4.85-1.043 1.578-.027 3.304.438 4.3 1.739.91 1.133 1.07 2.622 1.127 4.018-.064 1.491-.38 3.088-1.465 4.197-.525.61-1.28.923-2 1.232-1.25.215-2.524.112-3.777-.008-.022 1.398.057 2.799-.054 4.192-.981.015-1.963.012-2.944.005-.108-4.775-.037-9.555-.037-14.332zm3.038 1.805c-.005 1.883 0 3.768-.003 5.651 1.05.137 2.343.468 3.196-.36.932-.915.835-2.363.72-3.555-.074-.8-.622-1.428-1.28-1.844-.878-.095-1.77-.098-2.633.108zm115.243-2.224c2.068-.61 4.349-1.011 6.452-.35 1.428.397 2.244 1.859 2.241 3.269-.002 2.157.025 4.32-.014 6.48-.358.974-1.67.868-2.491 1.201-1.425.128-2.86.16-4.285.02-1.055-.294-2.214-.752-2.677-1.827-.639-1.564-.267-3.687 1.296-4.574 1.536-.955 3.403-.62 5.114-.688-.015-.497-.101-.984-.365-1.413-1.477-.587-3.102-.19-4.586.157a13.435 13.435 0 00-.311-.23c-.145-.678-.347-1.35-.374-2.045zm2.357 6.058c-.188.578-.451 1.29.054 1.793.873.749 2.143.38 3.178.25.015-.848.015-1.698-.01-2.545-1.094-.005-2.258-.13-3.222.502zM106.16 13.327c2.051-.62 4.302-.996 6.398-.374 1.348.365 2.243 1.69 2.278 3.043.03 2.055-.002 4.112.015 6.166-.017.318.027.661-.136.95-.678.429-1.479.575-2.246.764-1.477.215-2.976.191-4.46.061-1.161-.274-2.234-.899-2.771-1.995-.257-1.401-.222-3.078.968-4.07 1.574-1.332 3.748-.953 5.652-1.029-.114-.577-.156-1.344-.839-1.542-1.482-.47-2.998.206-4.499.171-.119-.717-.323-1.42-.36-2.145zm2.312 6.09c-.083.335-.162.67-.244 1.006l.259.772c.469.262.984.406 1.509.5.55-.101 1.107-.165 1.659-.263.023-.5.065-.996.129-1.491-.047-.355-.097-.71-.143-1.065-1.083-.017-2.232-.1-3.169.541zm36.254-6.097c1.965-1.085 4.399-.713 6.346.225-.138.407-.271.81-.397 1.22a10.67 10.67 0 01-.478 1.087c-.574-.071-1.129-.245-1.684-.397a27.62 27.62 0 00-1.575-.024c-1.633.744-1.699 2.737-1.485 4.265.257.517.481 1.149 1.073 1.374 1.299.597 2.7-.015 3.984-.338.316.779.659 1.555.819 2.387-.686.316-1.393.573-2.116.78-1.755.217-3.686.337-5.212-.718a5.137 5.137 0 01-1.686-3.024c-.205-1.112-.18-2.263-.018-3.38.343-1.39 1.102-2.779 2.429-3.457zm-25.472-.113c.427-.18.883-.286 1.354-.254 1.973.024 3.947-.025 5.92.022.367-.025.592.306.86.497.067 3.43.03 6.863.02 10.294a64.7 64.7 0 01-3.02.007 443.912 443.912 0 01-.005-8.078c-.057-.066-.17-.203-.227-.27-.789.018-1.58.01-2.369.01-.042 1.6-.205 3.189-.402 4.773-.247 2.067-1.857 3.991-4.039 4.092-.377-.676-.631-1.413-.86-2.15.663-.39 1.447-.742 1.767-1.494.506-1.334.508-2.782.609-4.185.225-1.08.013-2.216.392-3.264zm11.019 9.443c.017-3.226-.042-6.45.032-9.675a64.222 64.222 0 012.993-.003c.02 1.122.003 2.246.015 3.37 1.371.012 2.749-.06 4.115.09 1.151.274 2.155.992 2.695 2.052.209 1.122.377 2.405-.271 3.42-.691 1.186-2.072 1.93-3.445 1.881-1.787-.02-3.58.04-5.367-.026-.572.01-.814-.63-.767-1.11zm3.042-4.007c-.012.936-.012 1.873 0 2.809 1.216-.088 2.602.299 3.649-.51.168-.545.402-1.197-.014-1.699-.893-1.048-2.444-.438-3.635-.6zm20.14-5.671a88.717 88.717 0 013.017-.007c.025 1.303.008 2.605.013 3.908.885.032 1.95.051 2.453-.825.348-1.026.68-2.057 1.028-3.083.964-.007 1.931-.02 2.897.012-.118.713-.345 1.398-.523 2.096-.303 1.09-.562 2.366-1.708 2.895a2.102 2.102 0 011.536 1.38c.429 1.227.742 2.49 1.164 3.72.027.235.056.468.088.703-.996.024-1.994.012-2.988.012-.135-.382-.256-.769-.382-1.15-.298-.902-.476-1.857-.92-2.702-.559-.881-1.75-.707-2.645-.737-.005 1.528.01 3.059-.01 4.587a155.1 155.1 0 01-3.02-.005c-.01-3.6-.008-7.202 0-10.804zm12.127 9.885c-.005-3.293-.024-6.589.013-9.885a87.305 87.305 0 012.993-.005c.022 2.229-.005 4.455.015 6.683 1.23-1.979 2.48-3.945 3.708-5.923.177-.312.459-.54.732-.767.962.108 2.227-.37 2.865.588.047 3.4.017 6.804.015 10.206a36.9 36.9 0 01-3.124.005c-.047-2.155.045-4.313-.052-6.465-.988 1.71-2.086 3.355-3.148 5.02-.316.507-.661.994-1.06 1.44-.762.029-1.529.068-2.286.005-.449-.003-.708-.502-.671-.902zm13.157-9.867c1.016-.05 2.037-.035 3.057-.023.047 2.24-.064 4.484.064 6.722.932-1.795 2.099-3.455 3.149-5.181a9.476 9.476 0 011.097-1.516c.959.007 2-.235 2.877.272.203 3.496.055 7.01.077 10.514-1.004.012-2.007.01-3.011 0-.029-2.182.015-4.366-.024-6.55-.212.318-.419.639-.629.955-.994 1.677-2.098 3.286-3.129 4.939-.648 1.109-2.155.575-3.208.575-.076-.14-.234-.418-.313-.558-.022-3.384-.005-6.768-.007-10.15zm43.917-.003a36.433 36.433 0 013.015-.005c.002 1.293.002 2.588.002 3.881 1.273-.007 2.55 0 3.825-.003.002-1.287-.015-2.578.012-3.866a31.018 31.018 0 013.092-.005c.022 3.5-.005 7 .014 10.5l-.281.421a10.43 10.43 0 00-1.454-.127 15.07 15.07 0 01-1.376-.047c-.017-1.493-.005-2.987-.007-4.48h-3.825c-.002 1.503.003 3.006-.002 4.512a56.224 56.224 0 01-3.015-.002c-.028-3.592-.03-7.187 0-10.78zm12.779-.012a59.352 59.352 0 013.025 0c.01 1.297 0 2.595.008 3.893.685.017 1.378-.008 2.031-.243.802-1.055 1.016-2.4 1.416-3.63a28.28 28.28 0 012.988-.006c-.141.62-.318 1.232-.474 1.846-.298 1.014-.522 2.106-1.311 2.875a30.98 30.98 0 01-.486.203c.653.26 1.312.652 1.534 1.362.515 1.467.89 2.977 1.336 4.466a26.75 26.75 0 01-3.134.008l-.15-.66c-.323-1-.654-2-.94-3.009-.574-.999-1.824-.89-2.813-.883-.002 1.525.005 3.053-.007 4.578a103.48 103.48 0 01-3.021 0 793.61 793.61 0 01-.002-10.8zM80.05 32.82c1.212-.57 2.566-.57 3.877-.494.666.277 1.4.612 1.69 1.328.714 1.518.552 3.584-.763 4.745-.387.161-.781.308-1.175.458-.437-.005-.873-.005-1.31-.005-.177-.064-.355-.125-.53-.186-.022.84-.015 1.677-.02 2.517-.591.002-1.18.002-1.772 0-.003-2.786-.008-5.575.002-8.362zm1.78 1.08c-.01 1.11-.01 2.222 0 3.33.517.013 1.055.116 1.562-.03.553-.236.607-.875.77-1.372-.003-.225-.008-.453-.008-.678a23.512 23.512 0 00-.421-1.1c-.614-.22-1.263-.245-1.904-.15zm5.867-.293c.503-.659 1.191-1.295 2.072-1.313 1.129-.142 2.556.079 3.084 1.227.316.757.528 1.79-.047 2.473-1.23.17-2.483.02-3.72.081.184.404.249.987.747 1.144.784.399 1.634-.04 2.41-.23.134.423.506.837.386 1.305l-.543.33c-.848.189-1.711.326-2.581.233-.627-.223-1.302-.45-1.684-1.036-.508-.808-.56-1.812-.563-2.74.146-.492.282-.987.44-1.474zm1.793.44c-.106.292-.215.583-.323.875a104 104 0 002.303-.003c-.185-.401-.178-1.048-.737-1.119-.44-.198-.854.086-1.243.248zm8.938-1.63c.55-.115 1.117-.04 1.674-.044-.205 1.067-.407 2.216-1.176 3.043.12.035.362.098.483.133.543.982.725 2.096 1.088 3.146-.612.02-1.22.02-1.83.02-.313-.823-.385-1.766-.932-2.48-.421-.172-.888-.16-1.334-.2 0 .892.003 1.784-.002 2.677-.594.003-1.186.003-1.778 0-.005-2.113-.022-4.229.01-6.344.582-.005 1.164-.008 1.748-.003.027.774.025 1.55.022 2.327l.816-.008.518-.294c.257-.648.427-1.33.693-1.973zm3.494 1.327c1.02-2.086 4.529-1.983 5.498.108.483 1.628.434 3.861-1.285 4.753a12.65 12.65 0 00-.784.24c-.513.034-1.026.034-1.538.02-.681-.224-1.403-.5-1.776-1.157-.665-1.197-.697-2.73-.115-3.964zm1.555.828a9.57 9.57 0 00.008 2.037l.407.548c.177.07.53.204.707.27l.74-.336c.081-.117.244-.352.325-.472.165-.87.178-1.788-.234-2.596-.722-.445-1.575-.198-1.953.549zm14.111-1.714c.9-.762 2.16-.63 3.245-.466.271.11.545.22.821.328-.148.468-.308.933-.479 1.394-.766-.164-1.57-.34-2.335-.066-.522.813-.712 1.9-.189 2.762.658.84 1.854.333 2.702.12.163.467.325.935.466 1.413a6.34 6.34 0 01-3.21.514c-.673-.265-1.423-.568-1.719-1.283-.68-1.504-.621-3.568.698-4.716zm11.726-.018c1.176-.57 2.507-.624 3.789-.5.972.158 1.711.912 2.034 1.813.309 1.268.264 2.735-.572 3.803-.379.509-1.005.688-1.573.903-.537-.007-1.072-.012-1.607-.012-.057-.078-.168-.238-.225-.316-.083.882-.046 1.768-.069 2.652-.601.005-1.203.005-1.799-.027.005-2.772-.037-5.544.022-8.316zm1.805 1.053c-.025 1.114-.015 2.231-.008 3.345.629-.022 1.445.247 1.909-.323.606-.842.461-2.018-.033-2.88-.606-.198-1.242-.222-1.868-.142zm5.044-1.523c.664-.012 1.347-.068 1.988.157.315 1.565.909 3.058 1.203 4.63.293-.82.527-1.657.804-2.482.032-.145.091-.434.123-.578.202-.586.38-1.18.641-1.744.609.01 1.215.008 1.827.025-.121.44-.259.876-.387 1.315-.442 1.278-.908 2.551-1.332 3.837-.453 1.094-.562 2.384-1.385 3.288-.821.73-2.025.539-3.001.304.062-.48.126-.97.34-1.413.484.024.967.022 1.455.01.18-.338.353-.681.513-1.029a6.557 6.557 0 00-.858-.355c-.368-1.236-.841-2.439-1.258-3.66-.241-.764-.574-1.506-.673-2.305zm7.656-.007c.592-.003 1.184 0 1.778.01.012.793.002 1.586.019 2.382a24.38 24.38 0 001.228-.267c.281-.703.511-1.425.792-2.128.466.003.934 0 1.405-.005l.264.253c-.38.955-.429 2.098-1.265 2.81.126.025.377.077.503.101.57.977.806 2.094 1.095 3.174-.597.022-1.191.024-1.785.024-.296-.825-.506-1.677-.848-2.485-.462-.096-.928-.16-1.396-.201-.007.891 0 1.78-.007 2.669-.607.015-1.208.017-1.813.012.013-2.116-.041-4.234.03-6.35zm11.181.005a83.009 83.009 0 011.743 0c.037 1.63.013 3.259.015 4.89.318.066.646.13.969.193-.012 1.048-.034 2.104-.192 3.144-.454 0-.905.003-1.354.008-.155-.62-.14-1.259-.18-1.89-1.644-.028-3.294.073-4.934-.064-.167-2.09-.076-4.195-.051-6.291.584-.002 1.181-.02 1.753.142-.03 1.592-.008 3.183-.015 4.775.737.002 1.477.002 2.216 0 .02-1.636-.029-3.271.03-4.907zm8.43-.028c.533.089 1.45-.21 1.568.544.097 1.935.01 3.879.04 5.816-.617.015-1.228.015-1.842.002-.005-1.239.02-2.48-.027-3.72-.284.464-.56.929-.851 1.387a94.723 94.723 0 01-1.486 2.304c-.6.03-1.218.122-1.793-.088-.086-2.023.002-4.05-.047-6.075.567-.181 1.164-.154 1.753-.15.082 1.323-.096 2.662.17 3.97.126-.311.252-.625.4-.928.742-.992 1.181-2.219 2.115-3.061zm3.378.026a103.38 103.38 0 011.743.002c.034 1.295-.003 2.59.029 3.886.336-.563.691-1.117 1.034-1.677.421-.666.84-1.337 1.262-2.006l.473-.205c.291-.005.585-.013.878-.027.205.159.582.225.538.563.054 1.934.012 3.871.017 5.808a72.16 72.16 0 01-.814-.01l-.074.336-.076-.338-.797.02c-.017-1.262.018-2.525-.032-3.789-.759 1.254-1.57 2.478-2.354 3.717-.582.081-1.169.074-1.753.035-.212-2.094-.079-4.212-.074-6.315zm14.515 1.838c.407-.66.757-1.39 1.385-1.88.476.034.959.07 1.428.188l.037.17c.256 1.983.037 4.003.113 5.998-.249.01-.495.018-.739.025l.051.184c-.372-.184-.784-.184-1.183-.226.007-1.226.01-2.456-.015-3.682-.722 1.27-1.546 2.478-2.347 3.697a7.723 7.723 0 01-1.795-.044c-.044-2.079-.062-4.165.005-6.244.459-.04.92-.032 1.386-.04l.448.248a116.26 116.26 0 00.013 3.592c.374-.678.789-1.334 1.213-1.986zm8.405-1.359c1.28-.6 2.779-.707 4.15-.408 1.802.577 2.113 2.82 1.679 4.405-.267 1.035-1.147 1.802-2.187 2.022-.617.003-1.233-.014-1.832-.161-.015.825-.01 1.65-.02 2.475-.599.008-1.196.008-1.792 0a661.33 661.33 0 01.002-8.333zm1.805 1.058a217.801 217.801 0 00-.003 3.333c.637-.005 1.408.223 1.909-.304.518-.695.296-1.618.276-2.417-.469-.766-1.401-.74-2.182-.612zm12.559-1.038c1.327-.64 3.021-.896 4.374-.208 1.029.607.839 2.118-.103 2.718.567.306.942.83 1.082 1.452-.126 1.17-1.166 1.85-2.258 2.03-.597-.008-1.189-.005-1.78-.015-.521-.15-1.041-.282-1.551-.456.118-.416.227-.83.333-1.248 1.097.076 2.265.587 3.301-.044l.02-.816c-.567-.154-1.152-.225-1.726-.333-.151-.303-.052-.66-.077-.987.639-.144 1.672-.036 1.655-.957-.883-.495-1.852-.113-2.757.064-.187-.395-.31-.813-.513-1.2zm7.215-.502c1.158 0 2.317-.005 3.476.01.56.178 1.26.355 1.47.982.364.724-.005 1.57-.632 2.015.999.098 1.273 1.405.888 2.177-.2.524-.732.786-1.164 1.09-1.499.06-3.05.232-4.522-.062-.172-1.966-.091-3.957-.037-5.928l.521-.284zm1.223 1.427v.982c.623.013 1.255.013 1.883-.034.022-.27.04-.539.059-.808-.631-.198-1.296-.142-1.942-.14zm-.028 2.2c.02.472.05.947.156 1.412.813-.027 1.901.2 2.248-.771l-.315-.559c-.691-.137-1.393-.102-2.089-.083zm5.661-3.615c.572-.012 1.144-.015 1.721-.012.04 1.307.005 2.615.027 3.925.454-.7.9-1.405 1.349-2.108.412-.642.722-1.386 1.358-1.849.476.04.987-.032 1.426.213.281.289.14.737.187 1.097-.005 1.582-.015 3.161.005 4.743l-.257.448c-.53-.144-1.079-.125-1.619-.144.002-1.244.009-2.49-.02-3.735-.727 1.271-1.561 2.481-2.345 3.718-.594.024-1.218.144-1.775-.1-.19-2.053-.067-4.134-.057-6.196zm18.036.162a5.256 5.256 0 011.312-.198l.557.254c.071 2.035.022 4.072.027 6.11-.575.031-1.186-.084-1.719.176-.106-1.317-.022-2.642-.069-3.964-.737 1.263-1.578 2.46-2.312 3.724a7.036 7.036 0 01-1.815.024c-.2-2.056-.057-4.133-.084-6.197a71.153 71.153 0 011.778-.01c.005 1.276-.027 2.554.027 3.83.35-.573.688-1.154 1.038-1.729.291-.453.579-.91.87-1.366l.39-.654zm-127.011-.052c.564-.147 1.151-.13 1.733-.125.047.777.037 1.553.034 2.33h2.214c-.007-.784-.046-1.575.134-2.344.574.007 1.158.002 1.718.156-.032 2.065 0 4.129-.017 6.193-.609.022-1.221.022-1.83 0-.012-.852-.007-1.707-.007-2.559a73.765 73.765 0 00-2.212.015c0 .85.003 1.702-.005 2.554-.584.01-1.168.01-1.75.002-.022-2.074.002-4.148-.012-6.222zm13.282-.039c1.893-.179 3.809-.046 5.712-.076.032.497.04.994.028 1.492-.664.039-1.329.034-1.99.034-.005 1.604.007 3.207-.008 4.811-.594.008-1.183.008-1.775 0-.012-1.604-.002-3.207-.005-4.811a90.38 90.38 0 01-1.95-.017c-.012-.478-.017-.955-.012-1.433zm75.098.181c1.171-.401 2.441-.44 3.661-.271.918.213 1.472 1.14 1.43 2.044-.029 1.323.116 2.664-.091 3.97-.5.22-1.04.313-1.558.465-1.403.117-3.287.193-4.014-1.278a7.498 7.498 0 01.005-1.445c.316-.443.599-.967 1.142-1.173.887-.377 1.883-.206 2.825-.267-.234-1.51-1.962-.872-2.981-.747-.412-.291-.288-.871-.419-1.297zm1.307 3.593c0 .318.007.639.02.96.606.32 1.316.347 1.952.08a65.504 65.504 0 01-.022-1.33c-.666-.01-1.361-.078-1.95.29zm26.414-3.847c1.896-.017 3.794-.012 5.693-.005.032.497.037.996.027 1.496-.656.037-1.314.032-1.968.032-.004 1.601.008 3.203-.007 4.804-.597.017-1.193.015-1.787.007-.015-1.601-.008-3.203-.005-4.806-.656-.005-1.312-.008-1.963-.025a34.23 34.23 0 01.01-1.503zm14.554 1.449c.284-.575.683-1.163 1.361-1.302.713-.084 1.43-.125 2.15-.167.703-.002 1.42-.027 2.096.223.025 2.044.007 4.09.01 6.134-.582.005-1.161.005-1.736.002-.007-.732-.01-1.462.003-2.191-.07-.06-.213-.172-.284-.228-.16-.002-.478-.01-.636-.012l-.022.095c-1.268-.07-1.176 1.489-1.566 2.317a24.91 24.91 0 01-1.792.005c.157-.554.34-1.102.475-1.666.195-.457.407-.932.895-1.155-.429-.189-.702-.566-.951-.938 0-.375 0-.747-.003-1.117zm1.852.206a5.63 5.63 0 00.025.842c.562.458 1.326.292 1.997.333 0-.475 0-.947.005-1.42-.686 0-1.396-.069-2.027.245z" fill="#00F0FF"/></svg>