<svg width="176" height="58" fill="none" xmlns="http://www.w3.org/2000/svg"><path d="M73.019 5.033c-.472-.308-1.047-.568-1.698-.788C76.008 1.915 81.452.58 87.264.58c6 0 11.609 1.422 16.397 3.893-.59.244-1.098.53-1.496.862-4.41-2.104-9.494-3.302-14.9-3.302-5.142 0-9.991 1.083-14.246 2.999zm43.469 30.38c.462.09.949.14 1.434.127-2.468 7.39-8.46 13.508-16.325 16.913.018-.428-.083-.91-.319-1.434 7.263-3.202 12.826-8.816 15.21-15.606z" fill="#00F0FF"/><path d="M101.13 50.718c7.183-3.16 12.671-8.699 15.033-15.376a6.822 6.822 0 01-1.517-.554c-1.065 2.536-4.868 1.427-6.237.635l-.002-.006c-2.247 3.795-6.16 6.879-11.016 8.697l3.692 6.517.047.087zm-4.052-6.489L100.8 50.8l.027.05c-1.12.478-2.28.9-3.475 1.26l-.015-.04-.414-1.038-2.185-5.75-.003-.006a.642.642 0 01-.042-.31 27.436 27.436 0 002.385-.737zm-5.32 1.338a28.88 28.88 0 002.442-.478l2.418 6.066.4 1.053a34.232 34.232 0 01-3.58.831l-1.07-4.6-.62-2.8a.748.748 0 01.01-.072zm-2.819.289a29.844 29.844 0 002.467-.238c.005.015.01.031.013.047a.941.941 0 00.032.272l.6 2.587 1.015 4.579a35.304 35.304 0 01-3.636.408l-.081-1.085-.43-6.337v-.007a.601.601 0 01.02-.226zm-2.934.02a30.541 30.541 0 002.523 0 .552.552 0 01.006.064l.489 6.511.073 1.078a36.078 36.078 0 01-3.661 0l.053-.784.51-6.798.001-.007c0-.022.003-.043.006-.064zm-2.881-.258c.81.112 1.633.192 2.468.238a.6.6 0 01.02.226l-.45 6.635-.06.794a35.288 35.288 0 01-3.637-.408l1.019-4.6.596-2.566a.93.93 0 00.031-.27.544.544 0 01.013-.049zm-2.794-.528a28.88 28.88 0 002.442.477.71.71 0 01.01.074l-.618 2.792-1.07 4.607a34.204 34.204 0 01-3.582-.831l.39-1.024 2.428-6.095zm-2.877-.86c.773.278 1.57.525 2.386.737a.643.643 0 01-.043.31l-2.197 5.78-.404 1.012v.002a3.26 3.26 0 00-.015.04 33.036 33.036 0 01-3.476-1.26l.028-.051 3.721-6.57zm-.313-.115c-4.689-1.755-8.497-4.69-10.777-8.304-1.693.665-4.52 1.107-5.414-1.023-.632.33-1.553.632-2.523.725 2.395 6.6 7.852 12.072 14.975 15.206l.047-.088.001-.001 3.69-6.515z" fill="#00F0FF"/><path d="M73.253 51.02c-7.22-3.182-12.761-8.748-15.17-15.484a5.062 5.062 0 01-1.527-.153c2.435 7.46 8.457 13.642 16.379 17.071-.018-.428.082-.91.318-1.434zm3.044 2.686a34.697 34.697 0 01-3.022-1.107c-.051-.4.024-.884.28-1.448 1.133.486 2.307.913 3.515 1.278a5.434 5.434 0 00-.025.085c-.216.547-.472.933-.748 1.192zm.358.111l.266.08a2.556 2.556 0 01-.029-.38c-.076.109-.155.21-.237.3zm3.747.916a35.784 35.784 0 01-3.128-.735c-.088-.368-.076-.824.08-1.37l.002-.007.036-.097c1.178.343 2.388.626 3.625.845l-.006.024c-.145.603-.357 1.039-.61 1.34zm.366.067l.315.055a2.837 2.837 0 01-.071-.47 2.948 2.948 0 01-.244.415zm3.914.48a36.835 36.835 0 01-3.242-.367c-.122-.381-.15-.87-.044-1.479 1.205.2 2.436.34 3.686.415l-.001.05c-.054.6-.197 1.051-.399 1.381zm.365.024l.256.014a2.74 2.74 0 01-.113-.346 2.96 2.96 0 01-.143.332zm3.799.032a37.705 37.705 0 01-3.175 0c-.174-.35-.276-.816-.264-1.417l.004-.04v-.012a36.312 36.312 0 003.708 0 6.1 6.1 0 00.007.078c.008.597-.097 1.052-.28 1.39zm.374-.018l.264-.014a2.826 2.826 0 01-.144-.337 2.568 2.568 0 01-.12.351zm3.871-.405a36.868 36.868 0 01-3.242.367c-.199-.325-.34-.768-.397-1.355 0-.025 0-.05-.002-.077a35.58 35.58 0 003.684-.414c.108.608.078 1.097-.043 1.479zm.357-.058l.315-.055a2.948 2.948 0 01-.244-.416 2.834 2.834 0 01-.072.47zm3.81-.858c-1.021.29-2.065.535-3.129.736-.252-.302-.464-.737-.61-1.34l-.005-.025a34.537 34.537 0 003.625-.845l.036.097v.001l.005.011c.154.545.165.999.078 1.365zm.352-.102l.266-.079a2.92 2.92 0 01-.237-.3c0 .132-.01.258-.028.38zm3.647-1.297a34.75 34.75 0 01-3.023 1.108c-.275-.259-.53-.643-.745-1.186a4.496 4.496 0 00-.027-.092 33.377 33.377 0 003.514-1.278c.257.564.332 1.048.281 1.448zm.643-47.017a2.59 2.59 0 00-.487.685c-1.363 2.838-.315 3.793.894 4.896l.019.016c.17.156.398.33.663.534 1.445 1.106 4.004 3.067 4.555 7.508-3.978-5.473-11.569-9.172-20.28-9.172-7.777 0-14.661 2.948-18.878 7.476.9-3.269 2.975-4.858 4.221-5.812.265-.204.493-.378.664-.534l.017-.015c1.21-1.103 2.258-2.057.896-4.897-.182-.378-.471-.712-.849-1.008 4.164-1.843 8.9-2.886 13.93-2.886 5.314 0 10.303 1.165 14.635 3.21z" fill="#00F0FF"/><path d="M85.406 53.916l.006-.066.075-1.107.51-6.799v-.007c.01-.258.206-.505.494-.7.286-.193.607-.296.774-.296.168 0 .488.103.774.296.289.195.485.442.494.7l.488 6.512.095 1.4v.001l.008.092c.012.79-.176 1.33-.479 1.682-.334.39-.833.58-1.44.595-.541.014-1.01-.17-1.331-.567-.296-.365-.484-.929-.468-1.736zm-.246-1.201l.451-6.636c.028-.256-.13-.532-.388-.769-.255-.235-.558-.386-.723-.412-.166-.025-.497.027-.807.174-.304.143-.528.35-.583.592a.934.934 0 01-.032.27l-.596 2.565-1.052 4.753c-.194.917-.093 1.58.17 2.024.263.442.7.697 1.237.767.603.079 1.124-.031 1.51-.365.376-.326.652-.89.733-1.782a5.05 5.05 0 01.01-.242v-.002l.07-.937zm4.29 1.207a5.588 5.588 0 00-.01-.268l-.093-1.23-.43-6.338v-.007c-.028-.256.13-.532.388-.769.255-.235.558-.386.723-.412.166-.025.498.027.808.174.302.143.526.348.582.59a.94.94 0 00.031.272l.602 2.588 1.047 4.73c.194.917.093 1.58-.17 2.024-.262.443-.7.697-1.236.767-.604.079-1.124-.031-1.51-.365-.372-.323-.647-.878-.731-1.755zm-12.256-1.855l.403-1.012 2.198-5.782c.1-.236.029-.548-.148-.855-.176-.305-.42-.544-.572-.621-.15-.077-.481-.132-.82-.089-.34.043-.62.176-.737.403l-.004.006-3.783 6.68c-.45.812-.546 1.477-.424 1.984.122.504.465.885.957 1.12.554.265 1.082.323 1.546.125.461-.196.895-.659 1.233-1.514a5.24 5.24 0 01.15-.444l.001-.001zm.149 2.153c-.157-.401-.18-.93.009-1.596l.002-.005.546-1.436 2.451-6.152.002-.007c.085-.242.345-.414.677-.506.33-.092.665-.085.824-.031.16.054.434.256.648.531.16.205.262.421.279.62l-.619 2.792-1.152 4.96c-.22.91-.59 1.438-1.023 1.701-.433.263-.964.282-1.547.1-.518-.162-.91-.49-1.097-.97zm20.145-1.703a5.24 5.24 0 00-.152-.449l-.414-1.04-2.185-5.748-.003-.007c-.1-.235-.029-.548.148-.855.176-.305.42-.544.571-.621.15-.077.482-.132.82-.089.341.043.621.176.738.403l3.787 6.687c.451.812.546 1.475.424 1.983-.122.504-.466.885-.958 1.12-.553.265-1.08.323-1.545.125-.46-.195-.893-.657-1.231-1.51zm-.871-1.365l-2.443-6.128c-.085-.242-.344-.414-.676-.506-.329-.091-.664-.085-.824-.031-.16.054-.434.256-.648.532-.16.204-.262.42-.279.618l.62 2.799 1.151 4.955c.22.91.59 1.437 1.024 1.7.434.263.965.282 1.547.1.518-.162.91-.49 1.097-.97.156-.401.18-.93-.007-1.591l-.004-.011-.001-.002-.557-1.465z" fill="#00F0FF"/><path fill-rule="evenodd" clip-rule="evenodd" d="M5.428 4.523c4.715 0 15.667.317 17.796.317 2.13 0 17.19 1.743 19.546 2.535 1.065.317 1.294 1.426 0 1.505-1.292.08-16.808.318-19.09.318S5.775 9.423 3.678 6.583c-1.522-2.06.38-1.98 1.75-2.06zm2.814 6.179c2.738.08 16.427.159 18.025.08 1.596-.08 13.994-.792 15.44-.872 1.444-.08 2.814.316 2.814.792 0 .476-.304.871-1.978 1.268-1.673.396-17.113 2.218-28.825 1.98-2.206.08-5.172-1.108-5.933-2.217-.76-1.11.076-1.03.457-1.03zm5.324 5.23c1.901 0 24.337-1.743 29.053-2.773 1.598-.158 2.662-.238 2.815.475.153.713.076 1.03-1.294 1.426-1.369.396-18.025 3.645-26.467 3.803-2.815-.08-6.085-2.851-4.107-2.93zm5.704 4.911c2.662-.316 20.383-3.248 25.175-4.595 1.902-.475 2.815-.238 3.042.317.229.555.229 1.505-1.14 1.98-1.37.476-17.037 4.28-19.927 4.437-2.89.159-6.312-.554-7.225-1.267-.914-.712.075-.872.075-.872zm7.15 4.121c1.9-.396 17.34-4.04 21.752-5.783 1.292-.397 1.748 0 1.977.475.228.476.305 1.189-.533 1.584-.836.397-12.701 5.547-18.329 5.864-2.054 0-3.714-.786-4.64-1.268-.608-.318-.38-.318-.228-.872zm25.174-3.328c-1.75.871-12.397 5.546-16.504 6.497-1.142.317-1.75 1.189-.38 1.664 1.368.476 4.563.238 6.464-.317 1.902-.554 9.62-3.168 12.587-6.179-.608-.318-2.015-1.348-2.167-1.665zm3.194 2.694c-1.141.792-8.594 4.833-12.017 5.943-1.14.396-.608 1.506.532 1.664 1.14.158 4.03.158 7.454-1.982 2.053-1.268 5.095-3.565 6.008-4.436-.456-.238-1.444-.872-1.977-1.188zm3.499 2.14c-1.946 1.388-6.436 4.476-7.149 4.99-.99.713-1.521 1.902.456 1.744 1.977-.159 5.628-1.664 8.518-6.021-.38-.12-1.369-.476-1.825-.714zm3.423 1.188c-1.218 1.268-3.043 3.327-4.335 4.437-.837.871-.229 2.456 1.217 1.743 1.445-.712 4.069-3.168 4.753-5.625-.533-.159-1.141-.317-1.636-.555zm3.041 1.98c-.988 1.267-1.977 2.298-2.586 3.09-.608.791.152 1.584.761 1.822.608.237 1.75.872 3.119-1.98l-1.294-2.932z" fill="#00F0FF"/><path fill-rule="evenodd" clip-rule="evenodd" d="M35.242 4.206c1.977 0 8.67.475 11.104.475 2.434 0 8.062-.159 10.116-.317 2.053-.158 7.453-.238 9.583 0 2.129.237 6.845.554 7.682 2.852.836 2.299-.989 3.566-2.13 4.437-1.14.872-4.64 3.011-4.791 8.557-.913-.396-2.206-.633-1.294-2.615.533-1.11 3.119-4.754 2.51-6.417-.608-1.664-2.585-3.011-7.073-3.17-4.487-.158-10.8 0-13.005-.397-2.206-.396-10.725-2.615-12.474-2.852-.76-.077-.76-.473-.228-.553z" fill="#00F0FF"/><path fill-rule="evenodd" clip-rule="evenodd" d="M53.191 8.643c1.597 0 7.453-.159 9.126.158 1.673.317 3.76.819 4.64 2.377.76 1.346-.532 3.485-1.14 4.357-.61.871-2.358 2.615-3.043 3.249-.609.475-1.75-.317-.76-1.506-1.293.792-2.89.634-2.13-1.188-1.141.95-3.043 1.03-1.901-1.427-.76.634-2.89.556-1.521-1.347-1.142.396-2.434-.316-1.598-1.505-1.444.238-2.282-.871-.76-1.743-1.445.397-1.826-1.346-.913-1.425zm-6.568-.53c-1.997 0-2.037 2.246.24 2.121 1.794-.098 3.953-.54 3.913-1.29-.04-.748-2.676-.79-4.153-.831zm.279 2.424c-1.119.209-1.159.749-1 1.165.16.416.76 1.123 2.716.832 1.957-.291 3.035-1.123 3.035-1.83 0-.708-3.553-.25-4.751-.167zm1.918 2.496c-.759.125-1.465.708-1.238 1.414.279.874 1.997 1.124 3.913.125 1.916-.999 1.797-1.248 1.597-1.789-.2-.54-2.197-.124-4.273.25zm3.593 1.29c-.919.332-1.917.831-2.676 1.33-.759.5-1.358 2.288 1.558 1.498 2.914-.79 3.074-1.83 2.674-2.537-.398-.708-1.316-.333-1.556-.291zm-.908 3.46c-.999.624-.52 3.036 1.677 1.955 2.195-1.082 3.713-2.246 3.394-3.037-.32-.79-2.834-.166-5.07 1.082zm5.787.583c-1.04.499-4.433 1.663-3.315 3.16.56.749 1.638.125 2.077-.166.44-.291 2.835-1.997 2.237-2.912-.263-.401-.76-.208-1-.082zm-.232 2.794c-2.197 1.456.28 2.704 1.676 1.456.759-.677 2.309-1.899 1.597-2.787-.598-.749-2.594.957-3.273 1.331zm3.48.59c-.678.79-2.268 1.983-1.037 2.87 1.038.748 1.676-.041 2.156-.582.48-.54 2.316-2.455 1.637-3.245-.68-.79-2.157.583-2.755.957zm4.646.305c-.719-.582-2.156.999-2.674 1.956-.52.956-.12 1.497.399 1.747.52.25 1.438-.291 1.636-.832.2-.541 1.357-2.122.64-2.87zM170.167 4.523c-4.716 0-15.669.317-17.798.317-2.13 0-17.189 1.743-19.547 2.535-1.065.317-1.292 1.426 0 1.505 1.294.08 16.808.318 19.091.318 2.281 0 17.906.225 20.003-2.615 1.521-2.06-.38-1.98-1.749-2.06zm-2.815 6.179c-2.739.08-16.428.159-18.026.08-1.597-.08-13.994-.792-15.439-.872-1.445-.08-2.815.316-2.815.792 0 .476.305.871 1.978 1.268s17.113 2.218 28.825 1.98c2.206.08 5.172-1.108 5.933-2.217.76-1.11-.076-1.03-.456-1.03zm-5.324 5.23c-1.901 0-24.338-1.743-29.053-2.773-1.597-.158-2.662-.238-2.815.475-.153.713-.075 1.03 1.294 1.426 1.369.396 18.025 3.645 26.467 3.803 2.814-.08 6.085-2.851 4.107-2.93zm-5.704 4.911c-2.662-.316-20.384-3.248-25.175-4.595-1.902-.475-2.815-.238-3.043.317-.228.555-.228 1.505 1.141 1.98 1.369.476 17.037 4.28 19.927 4.437 2.891.159 6.313-.554 7.225-1.267.913-.712-.075-.872-.075-.872zm-7.15 4.121c-1.901-.396-17.341-4.04-21.752-5.783-1.293-.397-1.749 0-1.977.475-.228.476-.304 1.189.532 1.584.836.397 12.702 5.547 18.33 5.864 2.052 0 3.713-.786 4.639-1.268.609-.318.381-.318.228-.872zM124 21.636c1.749.871 12.396 5.546 16.504 6.497 1.141.317 1.749 1.189.379 1.664-1.369.476-4.563.238-6.465-.317-1.901-.554-9.62-3.168-12.587-6.179.609-.318 2.017-1.348 2.169-1.665zm-3.195 2.694c1.142.792 8.595 4.833 12.017 5.943 1.142.396.609 1.506-.531 1.664-1.142.158-4.031.158-7.453-1.982-2.055-1.268-5.097-3.565-6.009-4.436.455-.238 1.444-.872 1.976-1.188zm-3.498 2.14c1.947 1.388 6.436 4.476 7.15 4.99.989.713 1.521 1.902-.456 1.744-1.977-.159-5.629-1.664-8.52-6.021.381-.12 1.369-.476 1.826-.714zm-3.422 1.188c1.217 1.268 3.042 3.327 4.335 4.437.835.871.228 2.456-1.217 1.743-1.446-.712-4.069-3.168-4.755-5.625.534-.159 1.142-.317 1.637-.555zm-3.043 1.98c.989 1.267 1.978 2.298 2.586 3.09.608.791-.152 1.584-.76 1.822-.609.237-1.75.872-3.119-1.98l1.293-2.932z" fill="#00F0FF"/><path fill-rule="evenodd" clip-rule="evenodd" d="M140.352 4.206c-1.977 0-8.67.475-11.104.475-2.434 0-8.063-.159-10.116-.317-2.054-.158-7.453-.238-9.583 0-2.13.237-6.845.554-7.681 2.852-.837 2.299.989 3.566 2.129 4.437 1.141.872 4.64 3.011 4.792 8.557.913-.396 2.205-.633 1.293-2.615-.532-1.11-3.119-4.754-2.51-6.417.609-1.664 2.586-3.011 7.074-3.17 4.488-.158 10.8 0 13.006-.397 2.205-.396 10.724-2.615 12.472-2.852.76-.077.76-.473.228-.553z" fill="#00F0FF"/><path fill-rule="evenodd" clip-rule="evenodd" d="M122.402 8.643c-1.598 0-7.453-.159-9.126.158-1.674.317-3.76.819-4.64 2.377-.761 1.346.532 3.485 1.141 4.357.608.871 2.357 2.615 3.043 3.249.608.475 1.748-.317.76-1.506 1.292.792 2.89.634 2.129-1.188 1.141.95 3.043 1.03 1.901-1.427.76.634 2.89.556 1.521-1.347 1.142.396 2.434-.316 1.598-1.505 1.445.238 2.281-.871.76-1.743 1.446.397 1.826-1.346.913-1.425zm6.568-.53c1.998 0 2.038 2.246-.239 2.121-1.795-.098-3.953-.54-3.913-1.29.04-.748 2.675-.79 4.152-.831zm-.278 2.424c1.117.209 1.157.749.998 1.165-.16.416-.759 1.123-2.715.832-1.957-.291-3.035-1.123-3.035-1.83 0-.708 3.553-.25 4.752-.167zm-1.917 2.496c.758.125 1.463.708 1.238 1.414-.28.874-1.997 1.124-3.913.125-1.917-.999-1.797-1.248-1.597-1.789.199-.54 2.195-.124 4.272.25zm-3.594 1.29c.918.332 1.917.831 2.675 1.33.759.5 1.358 2.288-1.557 1.498-2.914-.79-3.075-1.83-2.675-2.537.4-.708 1.318-.333 1.557-.291zm.907 3.46c.998.624.519 3.036-1.677 1.955-2.196-1.082-3.713-2.246-3.395-3.037.319-.79 2.837-.166 5.072 1.082zm-5.785.583c1.037.499 4.431 1.663 3.314 3.16-.559.749-1.638.125-2.077-.166-.439-.291-2.835-1.997-2.235-2.912.262-.401.758-.208.998-.082zm.232 2.794c2.195 1.456-.281 2.704-1.678 1.456-.758-.677-2.308-1.899-1.598-2.787.6-.749 2.596.957 3.276 1.331zm-3.482.59c.679.79 2.268 1.983 1.038 2.87-1.038.748-1.678-.041-2.157-.582-.479-.54-2.316-2.455-1.637-3.245.679-.79 2.156.583 2.756.957zm-4.646.305c.719-.582 2.157.999 2.676 1.956.519.956.119 1.497-.4 1.747-.52.25-1.437-.291-1.637-.832-.199-.541-1.357-2.122-.639-2.87zm-23.371-7.232c7.758 0 10.42 3.96 10.42 6.576.038 2.693-2.624 4.833-3.08 5.07-.475.247-.57.871.038 1.03 2.281.792 4.335 3.09 4.335 5.387 0 5.387-5.248 7.29-10.876 7.448-5.628.158-9.279-1.505-11.409-3.248.609-.792.989-1.506 1.065-2.377V20.21c0-.792-.608-1.505-1.14-1.98 2.28-2.22 6.084-3.407 10.647-3.407zm3.855 7.052c0 2.227-1.59 4.033-3.55 4.033-1.96 0-3.55-1.806-3.55-4.033 0-2.228 1.59-4.034 3.55-4.034 1.96 0 3.55 1.806 3.55 4.034zm.886 10.933c0 2.351-1.783 4.257-3.98 4.257-2.198 0-3.98-1.906-3.98-4.257 0-2.352 1.782-4.258 3.98-4.258s3.98 1.906 3.98 4.258z" fill="#00F0FF"/></svg>