<svg width="174" height="76" fill="none" xmlns="http://www.w3.org/2000/svg"><path d="M75.398 20.693c1.337-.003 2.67-.078 4.007-.069 2.398-.003 4.794-.067 7.192-.062 2.446-.01 4.892.004 7.338.008 1.843.056 3.688.04 5.533.063 3.026.073 6.054.104 9.08.206 9.17.247 18.334.683 27.483 1.32.828.116 1.666.129 2.499.208.857.049 1.711.149 2.57.169.253.009.509.016.764.047.705.134 1.427.135 2.14.21 2.093.165 4.184.354 6.275.544.415.04.831.09 1.25.085h.019a565.502 565.502 0 0115.741 1.7c1.264.15 2.524.335 3.791.458-.153.423-.405.802-.604 1.204a13640.77 13640.77 0 01-5.484 10.351c-.106.219-.28.426-.25.683.007 3.312-.056 6.623-.05 9.935l-.033 10.521c-.013.505.026 1.012-.037 1.515-51.71-.003-103.421 0-155.131-.001-.003-7.272.011-14.543.017-21.814.017-.218-.132-.396-.222-.583-2.089-3.925-4.17-7.854-6.26-11.778 3.048-.384 6.105-.708 9.16-1.034 1.108-.113 2.213-.246 3.323-.33.763-.047 1.52-.142 2.28-.213.553-.057 1.108-.093 1.656-.187l3.11-.284h.02c.957-.016 1.908-.164 2.863-.222.527-.053 1.06-.064 1.582-.167a731.92 731.92 0 0129.993-1.917c.699-.06 1.404-.027 2.103-.093 1.893-.057 3.785-.161 5.68-.194.907-.074 1.818-.033 2.725-.103.988-.034 1.98-.015 2.967-.079 1.638-.015 3.272-.089 4.91-.097zm7.012 5.987c.234.375.511.721.768 1.082.92 1.257 1.83 2.523 2.758 3.775l.093-.018c1.18-1.61 2.36-3.22 3.522-4.84a1133.2 1133.2 0 00-7.141.001zm21.716 6.377c-1.236.181-2.411.905-3.008 2.003a3.264 3.264 0 00-.406 1.642v14.932c-.017 1.002.476 1.974 1.242 2.62 1.158 1.008 2.874 1.278 4.324.8 1.078-.352 2.028-1.152 2.441-2.208.226-.55.247-1.152.232-1.738V36.631c-.006-1.03-.523-2.025-1.334-2.666-.959-.781-2.27-1.101-3.491-.908zm-72.539.003a4.27 4.27 0 00-2.25 1.224c-.574.61-.947 1.427-.933 2.268-.003 5.026-.002 10.053-.001 15.078-.024.881.372 1.742.994 2.364.794.815 1.943 1.256 3.082 1.258 1.16.013 2.338-.43 3.146-1.262.62-.62 1.011-1.48.992-2.358.001-5.027.002-10.053 0-15.08.012-1.185-.717-2.293-1.72-2.908-.968-.624-2.185-.79-3.31-.584zm18.984 1.187c-.63.63-1 1.495-1.008 2.38-.003 4.95 0 9.902-.001 14.853.007.57.116 1.147.394 1.651.691 1.29 2.172 2.086 3.636 2.073.48.03.942-.11 1.404-.217-.12-.935-.236-1.87-.365-2.803-.422.066-.886-.015-1.193-.327-.254-.226-.326-.577-.316-.9.013-.92-.017-1.84.029-2.758.01-3.802.013-7.605.027-11.407-.012-.31.22-.56.48-.704.324-.071.655-.125.989-.091.132-.953.244-1.91.309-2.868l-.081.144.005-.077c-.403-.063-.795-.203-1.207-.198-1.145-.012-2.297.44-3.102 1.249zm22.9-.412c-.725.525-1.268 1.312-1.428 2.19-.094.72-.069 1.448-.045 2.171-.063.797.02 1.596-.02 2.392.038 1.12-.022 2.238.02 3.357-.03.42-.03.842 0 1.264-.055 1.741.005 3.486-.022 5.227.005.473-.018.946.028 1.417.025.792.398 1.545.938 2.12.801.835 1.968 1.31 3.131 1.296 1.24.031 2.494-.491 3.304-1.423.534-.607.854-1.406.837-2.213 0-5.028.002-10.055-.001-15.082 0-1.452-1.089-2.729-2.423-3.24-1.404-.56-3.102-.376-4.32.524zm84.154 1.189c-.32.554-.443 1.2-.427 1.833.003 4.752.001 9.504.001 14.255-.02.618.026 1.255.294 1.824.585 1.295 1.958 2.14 3.369 2.263.6.103 1.193-.073 1.771-.21-.126-.933-.233-1.87-.368-2.802-.458.076-.965-.036-1.264-.405-.333-.368-.226-.893-.24-1.343-.012-2.366.041-4.731.037-7.097.007-2.186.006-4.37.017-6.556-.007-.438.424-.729.823-.797.218.007.438.015.659.018.048-.361.116-.722.088-1.088.063-.561.121-1.123.186-1.684-.58-.162-1.184-.297-1.79-.208-1.282.149-2.526.865-3.156 1.997zm-14.863-1.163c-.888.63-1.518 1.667-1.496 2.764-.003 4.702 0 9.405-.001 14.107.008.735-.074 1.507.255 2.193.815 1.886 3.238 2.804 5.159 2.095-.109-.926-.252-1.848-.347-2.775-.652.125-1.487-.271-1.504-.993-.003-2.928.014-5.857.014-8.784.402-.062.807.015 1.211-.035.078-.998.198-1.993.252-2.993-.485.002-.97.008-1.454.007.005-.866-.001-1.732.008-2.599-.008-.401.347-.697.714-.795.254.002.51 0 .766-.003.104-.575.134-1.16.209-1.738.02-.351.124-.701.064-1.053-.398-.075-.789-.207-1.197-.202a4.295 4.295 0 00-2.653.804zm-32.83-.537c-.016.155-.034.31-.033.467.002 2.09-.001 4.18.001 6.271a18719.954 18719.954 0 000 13.882c-.002.311-.011.624.026.934 1.124-.008 2.247-.01 3.37-.016.085-.728-.036-1.458.033-2.186-.042-1.616-.017-3.233-.024-4.85.01-.846-.043-1.695.078-2.537.008.605.183 1.188.282 1.78.37 1.89.721 3.783 1.102 5.67.111.997.363 1.975.536 2.964.204-.486.227-1.018.343-1.526.095-.635.281-1.258.315-1.901.45-2.328.879-4.662 1.307-6.994.039 3.18.021 6.362.031 9.543.161.021.323.037.487.035 1.023 0 2.046.007 3.069.008.006-7.18.007-14.361 0-21.542-.672-.002-1.344 0-2.015-.001-.287 0-.577-.024-.856.046-.574.11-1.097.535-1.239 1.105-.478 2.48-.892 4.974-1.393 7.45l-.035.241c-.447-2.395-.928-4.786-1.387-7.18-.075-.366-.106-.769-.367-1.063-.348-.436-.931-.579-1.469-.597-.72-.006-1.442.002-2.162-.003zm-72.343.048c.001 7.175.004 14.348.007 21.522 1.152 0 2.303-.004 3.454-.015.001-2.676-.001-5.352-.002-8.029.002-.518-.014-1.037.04-1.552.02.223.035.447.082.668.643 3.252 1.244 6.51 1.898 9.759.443-2.481.92-4.957 1.377-7.434.168-.998.402-1.986.536-2.989.055 1.536.021 3.074.039 4.61-.01 1.637.049 3.272.04 4.908l3.52.001V33.369h-2.1c-.326 0-.664-.031-.976.087-.529.169-.974.619-1.059 1.171a4707.99 4707.99 0 01-.997 5.417c-.305.512-.134 1.18-.492 1.666-.457-2.365-.92-4.73-1.377-7.095-.095-.794-.928-1.278-1.688-1.244a235.5 235.5 0 00-2.302 0zm17.896-.11c-.03.628.106 1.249.151 1.873.055.342.022.7.155 1.025.418-.003.836 0 1.255 0 .007 6.236-.012 12.472-.008 18.707 1.186.002 2.371.001 3.556-.001.012-6.237.004-12.474.013-18.711.419-.005.838.002 1.258-.006.047-.93.171-1.853.2-2.783-2.187.001-4.374-.004-6.561.002l-.019-.106zm25.76.111c-.002 7.174 0 14.348-.001 21.522.773-.002 1.547.004 2.322-.002.484.001.987-.208 1.264-.612.243-.336.305-.755.385-1.15l1.021-5.058c.145-.824.375-1.634.458-2.467.066.838.027 1.68.04 2.52-.01.87.017 1.739.027 2.608.006 1.374-.002 2.747.013 4.121 1.165-.003 2.332.009 3.498-.006.004-7.161-.01-14.323-.007-21.485-.546-.06-1.097-.02-1.645-.032-.572.012-1.192-.03-1.706.262-.413.232-.646.676-.721 1.125-.382 2.01-.76 4.018-1.135 6.028-.222-.34-.146-.75-.154-1.131-.002-2.056.013-4.111 0-6.166a2.179 2.179 0 00-.094-.074c-1.188-.006-2.377-.002-3.565-.003zm10.012.003c0 7.16-.004 14.32.002 21.48 1.188.004 2.376 0 3.564.002.008-1.824-.005-3.647-.005-5.47.008-1.867-.033-3.734.013-5.6.028.275.06.55.119.822.592 3.42 1.147 6.847 1.749 10.266 1.313-.003 2.625.003 3.938-.004-.995-5.152-1.968-10.308-2.964-15.46.31-.004.62-.005.93 0 .2-.606.338-1.23.514-1.842.365-1.4.777-2.788 1.113-4.193a481.746 481.746 0 00-3.877 0c-.415 1.664-.855 3.32-1.273 4.983l-.157-.006c-.04-1.636.01-3.271-.024-4.907a8.289 8.289 0 01-.096-.072 698.726 698.726 0 00-3.546.001zm41.911-.013v.018c-.123.266-.117.563-.154.848-.046.398-.129.795-.107 1.2-.24 1.972-.49 3.945-.714 5.92-.109.359-.123.737-.173 1.107-.039.344-.108.688-.094 1.038-.167 1.391-.354 2.78-.499 4.174-.162.535-.151 1.1-.243 1.649-.068.769-.234 1.53-.245 2.303-.144 1.065-.25 2.135-.4 3.2 1.233.008 2.468.002 3.703 0 .131-1.481.301-2.959.408-4.442.138-.416.088-.859.147-1.287.24-3.06.474-6.119.714-9.179.009-.338.081-.675.033-1.013.064-.388.07-.781.106-1.171.231 2.645.443 5.29.665 7.936-.014.697.097 1.39.141 2.084.164 2.194.39 4.383.6 6.573.03.178-.033.404.127.537v.003c1.252-.013 2.504-.005 3.756-.005.013-.13.016-.262.001-.392-.113-.819-.216-1.64-.322-2.459-.046-.376-.127-.752-.094-1.132-.021.116-.044.233-.055.351-.024-.373-.08-.744-.139-1.113.021-.419-.08-.829-.121-1.242-.229-1.791-.464-3.582-.696-5.373-.048-.33-.057-.67-.171-.988-.267-2.263-.585-4.52-.867-6.782-.085-.567-.091-1.187-.446-1.67-.409-.532-1.13-.674-1.769-.69-1.03-.002-2.061.008-3.092-.003zm-118.597-.009a9.218 9.218 0 00-.098.863c-.03.096-.057.193-.079.292-.52 4.313-1.045 8.626-1.568 12.939a6.59 6.59 0 00-.085 1.014c-.136 1.058-.28 2.117-.38 3.179l.005-.119c-.16.748-.198 1.515-.305 2.271-.035.359-.128.715-.088 1.077 1.223-.008 2.445-.003 3.668-.005.076-.56.127-1.123.159-1.687v.132c.076-.305.103-.617.123-.929.063-.65.128-1.3.183-1.951l-.062-.027c.692-.014 1.383-.003 2.075-.003.153 1.49.276 2.986.448 4.476 1.26-.007 2.521.007 3.782-.008l.014.07c.002-.136 0-.272-.01-.406-.843-6.524-1.688-13.05-2.529-19.574a2.405 2.405 0 00-.133-.433c-.188-.764-1.007-1.167-1.753-1.169-1.122-.007-2.245-.001-3.367-.002zm48.168 1.633c.003.125.004.25 0 .375.006 3.83-.002 7.66.002 11.491v3.432c.008 1.268-.022 2.537.022 3.803-.019.28-.04.564.012.843 1.163-.025 2.33.04 3.491-.033a827.533 827.533 0 010-4.344c1.212-.004 2.482-.263 3.46-1.007.773-.574 1.263-1.51 1.253-2.468-.002-3.408 0-6.817 0-10.225a3.094 3.094 0 00-.702-1.974c-.67-.813-1.694-1.273-2.729-1.422-.533-.091-1.075-.053-1.612-.06-1.055 0-2.11 0-3.164-.002-.062.529-.018 1.061-.033 1.591zm59.107-1.585c-.007 7.142.002 14.284-.003 21.426.134.017.271.033.41.033 1.045-.004 2.091-.002 3.136-.005.014-6.21-.001-12.42.008-18.63.358-.003.718-.002 1.078-.004.021.833.023 1.664.003 2.497.001.648.034 1.293-.002 1.94.014.672-.014 1.344.018 2.016-.054.598.035 1.196-.014 1.794-.029.619.057 1.237.002 1.856.023 1.394-.017 2.79-.005 4.186-.013.452.049.904.015 1.357-.044.54.035 1.08-.015 1.62.031.457-.026.915.033 1.37 1.195-.003 2.391 0 3.586-.001.01-7.152.007-14.304.001-21.457-2.751 0-5.501-.003-8.251.002zm25.796.044c-.003 7.152.002 14.303-.003 21.455 1.188.062 2.381.011 3.571.027.005-1.945-.006-3.89-.006-5.835.007-1.746-.029-3.492.011-5.237.031.255.053.512.105.765.601 3.437 1.15 6.883 1.765 10.318 1.297-.005 2.596.001 3.893-.003-.959-5.154-1.951-10.301-2.919-15.453.31-.003.619-.003.931-.002.199-.642.355-1.297.535-1.945.362-1.364.751-2.72 1.092-4.089a611.338 611.338 0 00-3.878 0c-.505 2.005-1.051 4-1.527 6.01-.04-2.003-.008-4.006-.019-6.009-1.184-.008-2.367-.003-3.551-.002zM21.576 33.43c.044.93.175 1.854.27 2.78.422.002.845-.001 1.268.005.004 6.22-.002 12.44.005 18.66 1.183 0 2.366.004 3.55-.002.003-6.222-.001-12.444.001-18.667h1.227c.105-.923.158-1.85.237-2.776a2429.5 2429.5 0 00-6.558 0z" fill="#00F0FF"/><path d="M32.278 35.862c.37-.14.862.123.845.538.006 5.103 0 10.205.003 15.307.006.173-.017.361-.155.485a.658.658 0 01-.965-.03c-.127-.119-.12-.3-.123-.458.003-5.1-.003-10.203.003-15.304-.02-.246.166-.458.392-.538zm43.209.465c.034-.278.318-.476.59-.479.343-.02.684.283.646.632v15.298c.04.35-.3.655-.644.635-.302.001-.595-.238-.604-.545-.055-.726.043-1.453-.019-2.179.002-.124.002-.25.002-.373l-.001-2.312c.058-1.044-.043-2.09.016-3.135-.06-1.194.054-2.389-.014-3.582-.004-.797.001-1.593-.002-2.39.002-.124.002-.248 0-.372.014-.4-.032-.802.03-1.198zm28.707.149c-.042-.445.518-.768.903-.554.255.099.364.372.359.627.007.822 0 1.645.002 2.468v2.091c.002 2.836-.002 5.671.002 8.507a33.903 33.903 0 000 1.717c-.008.337.061.785-.285.99-.368.26-.984 0-.979-.464-.006-5.127-.001-10.255-.002-15.382zm-37.927-.446c.276.023.577.035.803.216.26.187.354.52.342.825v9.631c.008.321-.063.692-.346.887-.23.17-.531.128-.799.123a4135.43 4135.43 0 010-11.682zm-49.094 2.195c.016.146.035.292.048.439.036.466.09.932.095 1.401.095 1.818.27 3.632.394 5.45.053.528.051 1.063.149 1.588.03.177.034.356.045.535-.542.005-1.086 0-1.629.003.063-.309.089-.623.11-.936.11-1.215.22-2.43.328-3.645.157-1.611.265-3.227.46-4.835z" fill="#00F0FF"/><path d="M136.031 22.158c.302-.047.606 0 .907.03.909.052 1.815.137 2.724.192.477.072.972.01 1.438.156-.859-.02-1.713-.12-2.57-.169-.833-.079-1.671-.092-2.499-.209z" fill="#81AC98"/><path d="M141.864 22.583c.428-.03.852.053 1.279.074 2.248.179 4.495.37 6.74.58.548.068 1.11.048 1.647.186-.42.004-.835-.047-1.251-.086-2.09-.19-4.181-.38-6.274-.544-.713-.075-1.435-.076-2.141-.21z" fill="#73A88E"/><path d="M25.962 23.234c.35-.037.704-.078 1.058-.058-.522.103-1.055.114-1.582.167-.955.059-1.906.206-2.864.222.125-.03.252-.06.38-.074 1.003-.079 2.004-.185 3.008-.257z" fill="#7AAD94"/><path d="M16.344 24.115c.839-.089 1.68-.161 2.519-.256.193-.019.387-.016.582-.01-.548.094-1.103.13-1.656.187-.76.07-1.518.166-2.28.213.262-.123.555-.101.835-.134z" fill="#97C0AC"/><path d="M54.875 33.273l.081-.144a41.48 41.48 0 01-.309 2.868c-.334-.034-.664.02-.989.09.286-.173.631-.157.954-.157.07-.888.218-1.768.263-2.657z" fill="#81AF99"/><path d="M146.612 33.258c.06.353-.044.703-.064 1.054-.075.579-.105 1.163-.209 1.738-.256.003-.512.005-.766.003.232-.076.478-.069.721-.065.117-.908.178-1.823.318-2.73z" fill="#689E84"/><path d="M55.485 33.262l.019.106c.117.928.225 1.859.288 2.792-.134-.326-.101-.683-.156-1.024-.045-.625-.181-1.246-.15-1.874z" fill="#679D82"/><path d="M84.81 33.376l.095.074c.012 2.055-.003 4.11 0 6.166.008.38-.068.792.153 1.131-.073.425-.167.845-.229 1.272-.034-.652-.018-1.305-.02-1.957l.002-6.686z" fill="#216041"/><path d="M94.804 33.375c.024.019.07.055.095.072.033 1.636-.017 3.272.024 4.907l.157.007c-.086.344-.183.685-.26 1.03-.035-2.004-.006-4.01-.016-6.016z" fill="#1F603F"/><path d="M133.014 34.229c.037-.285.031-.582.154-.848-.065.684-.131 1.371-.261 2.047-.022-.404.061-.8.107-1.2z" fill="#70A28A"/><path d="M14.394 34.509a3.5 3.5 0 01.08-.292c-.048.788-.178 1.569-.262 2.353l-1.238 10.21c-.072.562-.12 1.126-.233 1.682a6.6 6.6 0 01.085-1.014c.523-4.313 1.048-8.626 1.568-12.94zM115.343 55.34c.251-1.013.359-2.054.618-3.064-.034.643-.22 1.266-.315 1.901-.116.508-.139 1.04-.343 1.526-.173-.99-.425-1.967-.536-2.964.248.854.295 1.755.576 2.6z" fill="#85B59E"/><path d="M19.691 34.525c.056.14.105.285.134.433.84 6.525 1.685 13.05 2.528 19.574.011.135.013.27.01.406a2.443 2.443 0 01-.014-.07c-.105-.502-.141-1.014-.216-1.52-.816-6.275-1.608-12.551-2.442-18.823z" fill="#87B19D"/><path d="M162.253 35.926a7.75 7.75 0 01.133-1.007c.028.366-.041.727-.088 1.088a38.408 38.408 0 01-.66-.018c.203-.036.408-.049.615-.063z" fill="#6BA086"/><path d="M17.113 37.78c.087.286.126.584.108.884-.013-.147-.032-.293-.047-.439-.196 1.608-.303 3.224-.46 4.834-.109 1.216-.22 2.43-.328 3.646a7.227 7.227 0 01-.11.936c-.046-.315.019-.63.047-.944.255-2.973.546-5.944.79-8.918z" fill="#77AB92"/><path d="M135.045 45.008c.179-2.035.289-4.078.5-6.11.047.339-.025.676-.034 1.014-.24 3.06-.474 6.12-.714 9.18-.059.427-.009.87-.146 1.286.093-1.792.272-3.58.394-5.37z" fill="#80AE97"/><path d="M17.316 40.065v-.121c.085.357.104.724.119 1.09.13 1.593.239 3.19.368 4.784.003.43.116.855.056 1.285-.097-.524-.096-1.06-.149-1.589-.123-1.817-.299-3.63-.394-5.449z" fill="#84AE9A"/><path d="M42.957 41.71c.358-.486.187-1.154.492-1.666-.114.719-.257 1.433-.39 2.149-.036-.16-.071-.322-.102-.483z" fill="#336B50"/><path d="M132.02 42.456c.05-.37.064-.748.173-1.108-.045.719-.123 1.44-.267 2.146-.014-.35.056-.694.094-1.038z" fill="#88B49E"/><path d="M139.342 42.508c.114.318.123.658.171.988.232 1.791.467 3.582.696 5.373.041.414.142.823.121 1.242-.171-.88-.241-1.777-.371-2.664-.198-1.647-.456-3.288-.617-4.939z" fill="#81B299"/><path d="M136.315 45.664c.154.997.185 2.009.282 3.012.168 2.063.376 4.123.586 6.182-.16-.133-.096-.359-.127-.537-.21-2.19-.436-4.38-.6-6.573-.044-.695-.155-1.387-.141-2.084z" fill="#83AE9A"/><path d="M16.232 47.716a8.585 8.585 0 011.74-.006 6.89 6.89 0 01-1.74.006z" fill="#E4F9EF"/><path d="M131.184 49.317c.092-.549.081-1.114.243-1.649-.032.653-.144 1.3-.213 1.95-.095.667-.132 1.342-.275 2.002.011-.772.177-1.534.245-2.303z" fill="#85B39C"/><path d="M15.8 53.179c.046-.927.17-1.85.245-2.775l.061.026c-.054.65-.12 1.301-.182 1.952-.02.312-.047.623-.124.928v-.131z" fill="#7AAB93"/><path d="M140.524 50.873c-.033.38.048.756.094 1.132.106.82.209 1.64.322 2.46a1.9 1.9 0 010 .391c-.109-.523-.147-1.057-.225-1.585-.076-.683-.203-1.36-.246-2.046.011-.119.034-.235.055-.352z" fill="#7FAE96"/><path d="M12.366 51.522l-.004.119c-.014.54-.115 1.073-.17 1.61-.077.54-.105 1.086-.218 1.62-.04-.363.052-.72.087-1.078.107-.756.145-1.523.305-2.27z" fill="#90BAA5"/></svg>