<svg width="70" height="70" fill="none" xmlns="http://www.w3.org/2000/svg"><g clip-path="url(#clip0)" fill="#00F0FF"><path d="M9.675 63.95a.49.49 0 00-.093-.318.395.395 0 00-.295-.099H9.01v.852h.277a.395.395 0 00.295-.092.467.467 0 00.093-.318v-.026zm-.102-.995a.398.398 0 00.089-.296.387.387 0 00-.09-.292.369.369 0 00-.27-.086H9.01v.763h.293a.357.357 0 00.27-.09zm3.313-.598c.082.213.113.441.093.668H12.3c-.02-.227.01-.455.09-.668a.286.286 0 01.25-.127.284.284 0 01.245.127zm17.128-.079v2.078h-.764a4.473 4.473 0 00.236-1.525v-.553h.528zm3.479.747a1.5 1.5 0 00-.09-.668.317.317 0 00-.495 0 1.478 1.478 0 00-.093.668h.678zm3.265.607a.489.489 0 01.09.318v.025a.467.467 0 01-.09.318.4.4 0 01-.299.092h-.276v-.852h.276a.396.396 0 01.3.099zm.08-.972a.41.41 0 01-.09.295h.004a.367.367 0 01-.27.089h-.3v-.763h.297a.379.379 0 01.27.086.4.4 0 01.089.292zm3.307.365a1.5 1.5 0 00-.089-.668.318.318 0 00-.496 0 1.5 1.5 0 00-.09.668h.675zm6.764.289a2.758 2.758 0 00-.09-.954.294.294 0 00-.388-.098.295.295 0 00-.107.098 4.957 4.957 0 000 1.907.26.26 0 00.248.13.267.267 0 00.248-.13c.085-.31.115-.633.089-.953zm10.637-.957c.08.213.11.441.089.668h-.677c-.021-.227.01-.455.092-.668a.318.318 0 01.496 0z"/><path fill-rule="evenodd" clip-rule="evenodd" d="M69.022 55.632v13.911l-68.655.01V22.305h4.417v33.327H15.37V22.321h6.287v-8.264H.367V.012h68.655v14.035h-8.77v18.577l-5.934-18.577h-8.85v41.585h8.85v-19.07l5.457 19.07h9.247zm-44.942 0h18.345v-8.581h-7.768V37.98h6.614v-7.847h-6.614V22.31h7.075v-8.264H24.08v41.585zm.734 4.993a.707.707 0 01-.222.553.798.798 0 01-.531.175.789.789 0 01-.528-.175.73.73 0 01-.226-.553h.436a.278.278 0 00.198.273.28.28 0 00.12.01.283.283 0 00.318-.283h.435zm.213 4.307h-.636v-1.838l-.725 1.838h-.572v-3.23h.636v1.837l.728-1.837h.576l-.006 3.23zm-18.02-.95c.003.278-.095.548-.277.759a.907.907 0 01-.677.238.864.864 0 01-.757-.343c-.147-.203-.223-.636-.223-1.322 0-.687.076-1.11.223-1.322a.872.872 0 01.757-.337.935.935 0 01.67.232c.188.208.29.48.284.76H6.37a.499.499 0 00-.086-.3.26.26 0 00-.236-.117.277.277 0 00-.248.134 5.138 5.138 0 000 1.907.318.318 0 00.484.019.563.563 0 00.086-.318l.636.01zm3.307.037c.004.145-.015.29-.054.43a.765.765 0 01-.182.285 1.02 1.02 0 01-.725.223h-.97v-3.255h.97c.257-.027.515.046.72.204a.875.875 0 01.228.667.706.706 0 01-.2.55.574.574 0 01-.2.13.533.533 0 01.206.121.783.783 0 01.207.62v.025zm3.294-.515h.006l-.006.016v-.016zm-.06-1.02c.046.338.066.68.06 1.02h-1.294c-.023.259.01.519.095.763a.298.298 0 00.49 0 .445.445 0 00.08-.292h.636c.005.272-.091.536-.27.74a.888.888 0 01-.69.258.91.91 0 01-.688-.264.992.992 0 01-.238-.534 6.63 6.63 0 010-1.738.982.982 0 01.238-.531.9.9 0 01.665-.235.915.915 0 01.68.257.992.992 0 01.236.556zm4.833 2.448h-.715l-.82-1.685.75-1.545h.693l-.785 1.526.877 1.704zm-1.542 0h-.636v-3.23h.636v3.23zm-.636-1.685l-.817 1.685h-.719l.878-1.704-.786-1.526h.694l.75 1.545zm4.716 1.681h.642v-3.226h-.569l-.725 1.837v-1.837h-.642v3.226h.569l.725-1.837v1.837zm9.419.824h.61v-1.396h-.295v-2.653h-1.8v1.01a4.446 4.446 0 01-.277 1.643h-.267v1.396h.61v-.82h1.419v.82zm3.787-2.247H32.81c-.023.258.01.518.099.762a.266.266 0 00.248.13.275.275 0 00.241-.123.464.464 0 00.08-.293h.636a1.09 1.09 0 01-.274.74.88.88 0 01-.687.258.914.914 0 01-.69-.264.99.99 0 01-.238-.534 6.622 6.622 0 010-1.738.98.98 0 01.238-.53.905.905 0 01.684-.258.924.924 0 01.684.257c.133.157.215.352.235.556.045.344.065.69.06 1.036zm3.314.943c.04-.139.058-.284.054-.429v-.025a.784.784 0 00-.207-.62.554.554 0 00-.206-.12.61.61 0 00.2-.13.707.707 0 00.2-.55.875.875 0 00-.229-.668 1.005 1.005 0 00-.718-.203h-.954v3.254h.954c.26.02.52-.059.725-.222a.808.808 0 00.18-.287zm3.342-.943h-1.31c-.023.258.01.518.095.762a.3.3 0 00.49 0 .445.445 0 00.08-.292h.636c.004.272-.093.535-.27.74a.895.895 0 01-.69.258.91.91 0 01-.688-.264.969.969 0 01-.241-.534 6.63 6.63 0 010-1.738.952.952 0 01.241-.531.893.893 0 01.68-.258.918.918 0 01.684.258c.136.156.218.35.236.556.046.343.067.69.06 1.036l-.003.007zm2.735 1.427h.636l.006-3.23h-1.761v1.803a2.64 2.64 0 01-.035.467.55.55 0 01-.1.257.35.35 0 01-.126.102.418.418 0 01-.15.025h-.098v.576h.203a.824.824 0 00.7-.286c.177-.318.254-.681.22-1.043v-1.319h.505v2.648zm4.029-1.618c0 .67-.073 1.109-.223 1.322a1.002 1.002 0 01-1.51 0c-.15-.213-.223-.651-.223-1.322 0-.67.073-1.11.223-1.322a1.014 1.014 0 011.51 0c.15.213.223.651.223 1.322zm2.671 1.614h.64v-3.226h-1.88v3.226h.639v-2.644h.601v2.644zm4.671 0h-.642v-1.852l-.432 1.051h-.347l-.436-1.051v1.852h-.639v-3.226h.585l.665 1.6.665-1.6h.581v3.226zm2.067-1.423h1.31a7.308 7.308 0 00-.057-1.037 1.017 1.017 0 00-.235-.556.923.923 0 00-.684-.257.907.907 0 00-.683.257.982.982 0 00-.239.531 6.63 6.63 0 000 1.739.99.99 0 00.239.533.913.913 0 00.69.264.88.88 0 00.686-.257 1.09 1.09 0 00.274-.74h-.636a.467.467 0 01-.076.292.276.276 0 01-.242.124.267.267 0 01-.248-.13 1.79 1.79 0 01-.099-.764zm4.627 1.423h-.639v-1.357h-.601v1.357h-.64v-3.226h.64v1.294h.601v-1.294h.64v3.226zm2.516-2.644h.578v-.582H62.87v.582h.585v2.644h.643v-2.644z"/></g><defs><clipPath id="clip0"><path fill="#fff" transform="translate(.367)" d="M0 0h68.659v69.55H0z"/></clipPath></defs></svg>