<svg width="110" height="69" fill="none" xmlns="http://www.w3.org/2000/svg"><g clip-path="url(#clip0)"><path fill-rule="evenodd" clip-rule="evenodd" d="M92.558 67.821V53.277h-6.007v14.544h6.007zm-31.804-6.039v-8.284h-5.822v6.333c0 1.84-.074 2.357-.184 2.835-.406 1.326-1.806 1.914-3.243 1.914-1.99 0-2.911-.773-3.28-1.988-.11-.404-.147-.846-.184-1.288-.037-.478 0-.995 0-1.546v-6.26h-5.896v8.322c0 1.879.627 3.277 1.658 4.234 1.769 1.731 4.754 2.247 7.518 2.247 3.353 0 5.933-.479 7.775-2.283.96-.921 1.659-2.136 1.659-4.236zm-28.597-1.03a4.952 4.952 0 00-.884-.074H24.64c-.332 0-.7.037-.885.073.11-.11.332-.33.553-.625l2.985-4.935a8.38 8.38 0 00.663-1.288c.074.184.258.626.663 1.326l3.06 4.971c.147.22.368.44.478.551zm11.13 7.07L30.02 47.938h-7.444l1.953 2.32c.037.036.111.072.184.11-.074.037-.147.073-.184.11L12.958 67.821h6.707l1.806-2.982a.975.975 0 00.11-.368c.074 0 .258.073.442.073H34a.997.997 0 00.405-.073.5.5 0 00.074.295l1.88 3.055h6.928zm41.643-7.475c0-1.62-.664-3.498-2.727-6.113l-4.975-6.296h-6.929l3.943 4.419a13.744 13.744 0 001.511 1.399c-.957-.553-2.173-.773-3.132-.773-2.284 0-4.607.478-6.67 1.62-2.211 1.214-3.685 3.24-3.685 5.928 0 2.062.921 3.646 2.1 4.86 2.654 2.651 7.48 2.91 9.25 2.91 2.616 0 6.707-.59 9.03-2.689 1.363-1.252 2.284-2.982 2.284-5.264zm-5.749.184c0 1.51-.996 2.65-2.248 3.277-1.032.553-2.249.7-3.317.7s-2.322-.222-3.353-.737c-1.253-.626-2.212-1.84-2.212-3.167 0-1.582 1.216-2.835 2.654-3.461.885-.404 1.953-.552 2.8-.552.812 0 1.99.11 2.912.479 1.66.699 2.764 2.024 2.764 3.461zM90.65.536a19.092 19.092 0 00-11.886 4.126A19.089 19.089 0 0066.88.536a19.093 19.093 0 00-11.886 4.126A19.085 19.085 0 0043.108.536a19.093 19.093 0 00-11.885 4.126A19.092 19.092 0 0019.338.536C8.75.536.17 9.108.17 19.688c0 10.578 8.58 19.151 19.168 19.151a19.095 19.095 0 0011.885-4.125 19.092 19.092 0 0011.885 4.125 19.087 19.087 0 0011.886-4.125 19.093 19.093 0 0011.885 4.125 19.09 19.09 0 0011.885-4.125 19.09 19.09 0 0011.886 4.125c10.588 0 19.168-8.572 19.168-19.151 0-10.58-8.58-19.152-19.168-19.152zM28.087 31.585a14.89 14.89 0 01-8.749 2.867c-8.168 0-14.777-6.603-14.777-14.764S11.17 4.923 19.338 4.923a14.89 14.89 0 018.749 2.868 19.029 19.029 0 00-4.146 11.897 19.17 19.17 0 004.146 11.897zm3.137-3.125a14.667 14.667 0 01-2.892-8.772 14.642 14.642 0 012.892-8.773 14.647 14.647 0 012.892 8.773 14.67 14.67 0 01-2.892 8.772zm20.634 3.125a14.723 14.723 0 01-8.76 2.862 14.678 14.678 0 01-8.738-2.862 19.165 19.165 0 004.146-11.897A19.029 19.029 0 0034.36 7.792a14.673 14.673 0 018.738-2.863c3.279 0 6.308 1.06 8.76 2.863a19.028 19.028 0 00-4.146 11.896 19.166 19.166 0 004.146 11.897zm3.136-3.125a14.667 14.667 0 01-2.892-8.772 14.646 14.646 0 012.892-8.773 14.644 14.644 0 012.892 8.773 14.666 14.666 0 01-2.893 8.772zm20.634 3.125a14.723 14.723 0 01-8.759 2.862c-3.278 0-6.287-1.06-8.74-2.862a19.161 19.161 0 004.147-11.897A19.029 19.029 0 0058.13 7.792a14.673 14.673 0 018.74-2.863 14.73 14.73 0 018.758 2.863 19.033 19.033 0 00-4.146 11.896 19.17 19.17 0 004.146 11.897zm3.137-3.125a14.668 14.668 0 01-2.892-8.772 14.639 14.639 0 012.892-8.773 14.648 14.648 0 012.892 8.773 14.674 14.674 0 01-2.892 8.772zm11.885 5.992a14.885 14.885 0 01-8.749-2.867 19.168 19.168 0 004.147-11.897A19.032 19.032 0 0081.9 7.792a14.893 14.893 0 018.749-2.868c8.167 0 14.777 6.603 14.777 14.764 0 8.16-6.61 14.764-14.777 14.764z" fill="#00F0FF"/></g><defs><clipPath id="clip0"><path fill="#fff" transform="translate(.153 .534)" d="M0 0h109.676v67.767H0z"/></clipPath></defs></svg>