<svg width="529" height="420" fill="none" xmlns="http://www.w3.org/2000/svg"><mask id="a" maskUnits="userSpaceOnUse" x="0" y="-1" width="529" height="421"><rect x=".5" y=".5" width="528" height="419" rx="39.5" fill="#C4C4C4"/><rect x=".5" y=".5" width="528" height="419" rx="39.5" stroke="url(#paint0_radial)"/><rect x=".5" y=".5" width="528" height="419" rx="39.5" stroke="url(#paint1_radial)" stroke-opacity=".3"/><rect x=".5" y=".5" width="528" height="419" rx="39.5" stroke="url(#paint2_radial)"/></mask><g mask="url(#a)"><g opacity=".2" filter="url(#filter0_f)"><path d="M-16.91 595.871C386.075 383.466 813.78 477.504 820.48 354.85 827.178 232.197 23.272 128.133-97.9 106.907c-77.502-13.575-460.094-150.44-470.437 38.959-6.698 122.653 474.365 484.022 551.429 450.005z" fill="#9F72FF"/></g><g filter="url(#filter1_b)"><rect width="529" height="420" rx="40" fill="url(#paint3_radial)" fill-opacity=".2"/><rect width="529" height="420" rx="40" fill="#ADFAFF" fill-opacity=".7" style="mix-blend-mode:soft-light"/><rect x=".5" y=".5" width="528" height="419" rx="39.5" stroke="url(#paint4_radial)"/><rect x=".5" y=".5" width="528" height="419" rx="39.5" stroke="url(#paint5_radial)" stroke-opacity=".3"/><rect x=".5" y=".5" width="528" height="419" rx="39.5" stroke="url(#paint6_radial)"/></g></g><defs><radialGradient id="paint0_radial" cx="0" cy="0" r="1" gradientUnits="userSpaceOnUse" gradientTransform="rotate(38.298 3.871 11.147) scale(664.193 1187.93)"><stop stop-color="#fff"/><stop offset="1" stop-color="#fff" stop-opacity="0"/></radialGradient><radialGradient id="paint1_radial" cx="0" cy="0" r="1" gradientUnits="userSpaceOnUse" gradientTransform="rotate(121.463 146.5 82.106) scale(492.391 819.705)"><stop stop-color="#A3C6FF"/><stop offset="1" stop-color="#A3C6FF" stop-opacity="0"/></radialGradient><radialGradient id="paint2_radial" cx="0" cy="0" r="1" gradientUnits="userSpaceOnUse" gradientTransform="rotate(116.346 166.5 103.343) scale(468.683 783.972)"><stop stop-color="#BAFBFF"/><stop offset="1" stop-color="#B8FAFF" stop-opacity="0"/></radialGradient><radialGradient id="paint3_radial" cx="0" cy="0" r="1" gradientUnits="userSpaceOnUse" gradientTransform="matrix(529 -340.88326 600.43585 931.78692 0 420)"><stop stop-color="#fff" stop-opacity=".6"/><stop offset="1" stop-color="#fff" stop-opacity="0"/></radialGradient><radialGradient id="paint4_radial" cx="0" cy="0" r="1" gradientUnits="userSpaceOnUse" gradientTransform="rotate(38.298 3.871 11.147) scale(664.193 1187.93)"><stop stop-color="#fff"/><stop offset="1" stop-color="#fff" stop-opacity="0"/></radialGradient><radialGradient id="paint5_radial" cx="0" cy="0" r="1" gradientUnits="userSpaceOnUse" gradientTransform="rotate(121.463 146.5 82.106) scale(492.391 819.705)"><stop stop-color="#A3C6FF"/><stop offset="1" stop-color="#A3C6FF" stop-opacity="0"/></radialGradient><radialGradient id="paint6_radial" cx="0" cy="0" r="1" gradientUnits="userSpaceOnUse" gradientTransform="rotate(116.346 166.5 103.343) scale(468.683 783.972)"><stop stop-color="#BAFBFF"/><stop offset="1" stop-color="#B8FAFF" stop-opacity="0"/></radialGradient><filter id="filter0_f" x="-698.062" y="-83.233" width="1648.24" height="811.008" filterUnits="userSpaceOnUse" color-interpolation-filters="sRGB"><feFlood flood-opacity="0" result="BackgroundImageFix"/><feBlend in="SourceGraphic" in2="BackgroundImageFix" result="shape"/><feGaussianBlur stdDeviation="64.828" result="effect1_foregroundBlur"/></filter><filter id="filter1_b" x="-42" y="-42" width="613" height="504" filterUnits="userSpaceOnUse" color-interpolation-filters="sRGB"><feFlood flood-opacity="0" result="BackgroundImageFix"/><feGaussianBlur in="BackgroundImage" stdDeviation="21"/><feComposite in2="SourceAlpha" operator="in" result="effect1_backgroundBlur"/><feBlend in="SourceGraphic" in2="effect1_backgroundBlur" result="shape"/></filter></defs></svg>